<svg width="320" height="116" viewBox="0 0 320 116" fill="none" xmlns="http://www.w3.org/2000/svg">
<path d="M-0.000217735 7.09347C-0.000217571 3.3359 3.0459 0.289793 6.80347 0.289793C8.56111 0.289793 10.2505 0.969995 11.5178 2.18789L44.4356 33.8226C44.4905 33.8753 44.5637 33.9048 44.6398 33.9048C44.8025 33.9048 44.9344 33.7729 44.9344 33.6101L44.9344 7.83904C44.9344 4.31159 47.794 1.45201 51.3215 1.45202C54.8489 1.45202 57.7085 4.31159 57.7085 7.83905L57.7085 49.3578C57.7085 53.4881 54.3603 56.8363 50.23 56.8363C48.3472 56.8363 46.5337 56.1261 45.1516 54.8475L13.2725 25.3565C13.2176 25.3057 13.1456 25.2775 13.0708 25.2775C12.9068 25.2775 12.7738 25.4105 12.7738 25.5745L12.7738 51.6115C12.7738 55.1389 9.91427 57.9985 6.38682 57.9985C2.85935 57.9985 -0.000219835 55.1389 -0.000219681 51.6115L-0.000217735 7.09347Z" fill="#F90196" fill-opacity="0.6"/>
<path d="M6.41066 48.378C4.64001 48.378 3.20462 49.8133 3.20462 51.584C3.20462 53.3546 4.64001 54.79 6.41066 54.79C8.18131 54.79 9.6167 53.3546 9.6167 51.584C9.6167 49.8133 8.18131 48.378 6.41066 48.378Z" fill="#EDF6F8"/>
<path d="M51.2952 5.0967C49.5245 5.0967 48.0891 6.5321 48.0891 8.30275C48.0891 10.0734 49.5245 11.5088 51.2952 11.5088C53.0658 11.5088 54.5012 10.0734 54.5012 8.30275C54.5012 6.5321 53.0658 5.0967 51.2952 5.0967Z" fill="#EDF6F8"/>
<path fill-rule="evenodd" clip-rule="evenodd" d="M49.5844 51.047C50.5259 51.9549 52.0962 51.2877 52.0962 49.9797L52.0962 8.30119L50.4932 8.30119L50.4932 49.6964L8.12042 8.83694C7.1789 7.92905 5.60863 8.59628 5.60863 9.90421L5.60863 51.5828L7.21165 51.5828L7.21165 10.1875L49.5844 51.047Z" fill="#EDF6F8"/>
<path d="M107.809 57.9985C104.975 57.9985 102.461 56.1815 101.571 53.4909L88.6556 14.4176C88.6035 14.2599 88.4561 14.1534 88.29 14.1534C88.124 14.1534 87.9767 14.2598 87.9245 14.4174L74.9791 53.5017C74.0899 56.1861 71.5804 57.9985 68.7525 57.9985C64.214 57.9985 61.047 53.5001 62.5775 49.2275L78.2169 5.56548C79.3504 2.40114 82.3493 0.289819 85.7105 0.289819L90.8431 0.28982C94.203 0.28982 97.201 2.39952 98.3355 5.56211L113.992 49.2111C115.528 53.4908 112.356 57.9985 107.809 57.9985Z" fill="#F90196" fill-opacity="0.6"/>
<path d="M104.323 51.584C104.323 49.8134 105.759 48.378 107.529 48.378C109.3 48.378 110.735 49.8134 110.735 51.584C110.735 53.3546 109.3 54.79 107.529 54.79C105.759 54.79 104.323 53.3546 104.323 51.584Z" fill="#EDF6F8"/>
<path d="M65.8518 51.584C65.8518 49.8134 67.2872 48.378 69.0579 48.378C70.8285 48.378 72.2639 49.8134 72.2639 51.584C72.2639 53.3546 70.8285 54.79 69.0579 54.79C67.2872 54.79 65.8518 53.3546 65.8518 51.584Z" fill="#EDF6F8"/>
<path fill-rule="evenodd" clip-rule="evenodd" d="M68.301 51.3131L83.1284 9.79658C83.9636 7.45781 86.179 5.89662 88.6624 5.89662C91.1803 5.89662 93.4183 7.50063 94.2273 9.88496L108.287 51.3252L106.769 51.8402L92.7092 10.4C92.121 8.66609 90.4934 7.49964 88.6624 7.49964C86.8564 7.49964 85.2454 8.63495 84.638 10.3357L69.8106 51.8523L68.301 51.3131Z" fill="#EDF6F8"/>
<path fill-rule="evenodd" clip-rule="evenodd" d="M116.862 8.0143C116.862 4.06625 120.063 0.865723 124.011 0.865723H157.967C160.928 0.865723 163.328 3.26612 163.328 6.22715C163.328 9.18819 160.928 11.5886 157.967 11.5886H127.585V23.205H157.967C160.928 23.205 163.328 25.6054 163.328 28.5665C163.328 31.5275 160.928 33.9279 157.967 33.9279H127.585V45.5443H157.967C160.928 45.5443 163.328 47.9447 163.328 50.9058C163.328 53.8668 160.928 56.2672 157.967 56.2672H124.011C120.063 56.2672 116.862 53.0667 116.862 49.1186V8.0143Z" fill="#F90196" fill-opacity="0.6"/>
<path fill-rule="evenodd" clip-rule="evenodd" d="M121.33 8.01421C121.33 6.53369 122.531 5.3335 124.011 5.3335H157.967V7.12064H124.011C123.518 7.12064 123.117 7.52071 123.117 8.01421V27.6728H157.967V29.4599H123.117V49.1185C123.117 49.612 123.518 50.0121 124.011 50.0121H157.967V51.7992H124.011C122.531 51.7992 121.33 50.599 121.33 49.1185V8.01421Z" fill="#EDF6F8"/>
<path d="M154.597 50.743C154.597 48.9717 156.033 47.5358 157.804 47.5358C159.575 47.5358 161.011 48.9717 161.011 50.743C161.011 52.5143 159.575 53.9502 157.804 53.9502C156.033 53.9502 154.597 52.5143 154.597 50.743Z" fill="#EDF6F8"/>
<path d="M154.597 28.4036C154.597 26.6323 156.033 25.1964 157.804 25.1964C159.575 25.1964 161.011 26.6323 161.011 28.4036C161.011 30.1749 159.575 31.6108 157.804 31.6108C156.033 31.6108 154.597 30.1749 154.597 28.4036Z" fill="#EDF6F8"/>
<path d="M154.597 6.06451C154.597 4.29321 156.033 2.85729 157.804 2.85729C159.575 2.85729 161.011 4.29321 161.011 6.06451C161.011 7.83581 159.575 9.27173 157.804 9.27173C156.033 9.27173 154.597 7.83581 154.597 6.06451Z" fill="#EDF6F8"/>
<path d="M215.439 57.9985C212.605 57.9985 210.091 56.1815 209.201 53.4909L196.286 14.4176C196.234 14.2599 196.086 14.1534 195.92 14.1534C195.754 14.1534 195.607 14.2598 195.555 14.4174L182.609 53.5017C181.72 56.1861 179.21 57.9985 176.383 57.9985C171.844 57.9985 168.677 53.5001 170.208 49.2275L185.847 5.56548C186.981 2.40114 189.979 0.289819 193.341 0.289819L198.473 0.28982C201.833 0.28982 204.831 2.39952 205.966 5.56211L221.623 49.2111C223.158 53.4908 219.986 57.9985 215.439 57.9985Z" fill="#F90196" fill-opacity="0.6"/>
<path d="M211.953 51.584C211.953 49.8134 213.389 48.378 215.159 48.378C216.93 48.378 218.365 49.8134 218.365 51.584C218.365 53.3546 216.93 54.79 215.159 54.79C213.389 54.79 211.953 53.3546 211.953 51.584Z" fill="#EDF6F8"/>
<path d="M173.482 51.584C173.482 49.8134 174.917 48.378 176.688 48.378C178.458 48.378 179.894 49.8134 179.894 51.584C179.894 53.3546 178.458 54.79 176.688 54.79C174.917 54.79 173.482 53.3546 173.482 51.584Z" fill="#EDF6F8"/>
<path fill-rule="evenodd" clip-rule="evenodd" d="M175.931 51.3131L190.758 9.79658C191.594 7.45781 193.809 5.89662 196.292 5.89662C198.81 5.89662 201.048 7.50063 201.857 9.88496L215.917 51.3252L214.399 51.8402L200.339 10.4C199.751 8.66609 198.123 7.49964 196.292 7.49964C194.486 7.49964 192.875 8.63495 192.268 10.3357L177.441 51.8523L175.931 51.3131Z" fill="#EDF6F8"/>
<path d="M254.393 57.9985C251.559 57.9985 249.045 56.1815 248.156 53.4909L235.24 14.4176C235.188 14.2599 235.04 14.1534 234.874 14.1534C234.708 14.1534 234.561 14.2598 234.509 14.4174L221.563 53.5017C220.674 56.1861 218.165 57.9985 215.337 57.9985C210.798 57.9985 207.631 53.5001 209.162 49.2275L224.801 5.56548C225.935 2.40114 228.934 0.289819 232.295 0.289819L237.427 0.28982C240.787 0.28982 243.785 2.39952 244.92 5.56211L260.577 49.2111C262.112 53.4908 258.94 57.9985 254.393 57.9985Z" fill="#F90196" fill-opacity="0.6"/>
<path d="M250.907 51.584C250.907 49.8134 252.343 48.378 254.113 48.378C255.884 48.378 257.319 49.8134 257.319 51.584C257.319 53.3546 255.884 54.79 254.113 54.79C252.343 54.79 250.907 53.3546 250.907 51.584Z" fill="#EDF6F8"/>
<path d="M212.436 51.584C212.436 49.8134 213.871 48.378 215.642 48.378C217.413 48.378 218.848 49.8134 218.848 51.584C218.848 53.3546 217.413 54.79 215.642 54.79C213.871 54.79 212.436 53.3546 212.436 51.584Z" fill="#EDF6F8"/>
<path fill-rule="evenodd" clip-rule="evenodd" d="M214.885 51.3131L229.713 9.79658C230.548 7.45781 232.763 5.89662 235.247 5.89662C237.764 5.89662 240.003 7.50063 240.812 9.88496L254.872 51.3252L253.354 51.8402L239.293 10.4C238.705 8.66609 237.078 7.49964 235.247 7.49964C233.441 7.49964 231.83 8.63495 231.222 10.3357L216.395 51.8523L214.885 51.3131Z" fill="#EDF6F8"/>
<path fill-rule="evenodd" clip-rule="evenodd" d="M291.146 45.769C300.487 45.769 308.06 38.196 308.06 28.8544C308.06 19.5127 300.487 11.9397 291.146 11.9397C281.804 11.9397 274.231 19.5127 274.231 28.8544C274.231 38.196 281.804 45.769 291.146 45.769ZM291.146 57.7087C307.081 57.7087 320 44.7902 320 28.8544C320 12.9185 307.081 0 291.146 0C275.21 0 262.291 12.9185 262.291 28.8544C262.291 44.7902 275.21 57.7087 291.146 57.7087Z" fill="#F90196" fill-opacity="0.6"/>
<path d="M294.353 28.8557C294.353 30.6263 292.918 32.0617 291.147 32.0617C289.377 32.0617 287.941 30.6263 287.941 28.8557C287.941 27.0851 289.377 25.6497 291.147 25.6497C292.918 25.6497 294.353 27.0851 294.353 28.8557Z" fill="#EDF6F8"/>
<path fill-rule="evenodd" clip-rule="evenodd" d="M291.147 51.2984C303.542 51.2984 313.59 41.2506 313.59 28.8561C313.59 16.4616 303.542 6.41381 291.147 6.41381C278.753 6.41381 268.705 16.4616 268.705 28.8561C268.705 41.2506 278.753 51.2984 291.147 51.2984ZM291.147 52.9014C304.427 52.9014 315.193 42.136 315.193 28.8561C315.193 15.5762 304.427 4.81079 291.147 4.81079C277.868 4.81079 267.102 15.5762 267.102 28.8561C267.102 42.136 277.868 52.9014 291.147 52.9014Z" fill="#EDF6F8"/>
<path d="M57.7087 65.0918C57.7087 61.3342 54.6626 58.2881 50.905 58.2881C49.1474 58.2881 47.4579 58.9683 46.1907 60.1862L13.2729 91.8209C13.218 91.8736 13.1448 91.9031 13.0687 91.9031C12.906 91.9031 12.7741 91.7712 12.7741 91.6084L12.7741 65.8373C12.7741 62.3099 9.91449 59.4503 6.38703 59.4503C2.85957 59.4503 1.75798e-07 62.3099 3.29988e-07 65.8373L2.14483e-06 107.356C2.32537e-06 111.486 3.34822 114.835 7.47847 114.835C9.36128 114.835 11.1748 114.124 12.5569 112.846L44.436 83.3548C44.4909 83.304 44.5629 83.2758 44.6377 83.2758C44.8017 83.2758 44.9347 83.4088 44.9347 83.5728L44.9347 109.61C44.9347 113.137 47.7942 115.997 51.3217 115.997C54.8491 115.997 57.7087 113.137 57.7087 109.61L57.7087 65.0918Z" fill="#F90196" fill-opacity="0.6"/>
<path d="M51.2978 106.376C53.0685 106.376 54.5039 107.811 54.5039 109.582C54.5039 111.353 53.0685 112.788 51.2978 112.788C49.5272 112.788 48.0918 111.353 48.0918 109.582C48.0918 107.811 49.5272 106.376 51.2978 106.376Z" fill="#EDF6F8"/>
<path d="M6.41331 63.0952C8.18396 63.0952 9.61935 64.5306 9.61935 66.3013C9.61935 68.0719 8.18396 69.5073 6.41331 69.5073C4.64267 69.5073 3.20728 68.0719 3.20728 66.3013C3.20728 64.5306 4.64267 63.0952 6.41331 63.0952Z" fill="#EDF6F8"/>
<path fill-rule="evenodd" clip-rule="evenodd" d="M8.12434 109.045C7.18283 109.953 5.61255 109.286 5.61255 107.978L5.61255 66.2995L7.21557 66.2995L7.21557 107.695L49.5883 66.8352C50.5298 65.9273 52.1001 66.5946 52.1001 67.9025L52.1001 109.581L50.4971 109.581L50.4971 68.1858L8.12434 109.045Z" fill="#EDF6F8"/>
<path fill-rule="evenodd" clip-rule="evenodd" d="M64.9236 66.0128C64.9236 62.0648 68.1241 58.8643 72.0722 58.8643H106.028C108.989 58.8643 111.389 61.2647 111.389 64.2257C111.389 67.1867 108.989 69.5871 106.028 69.5871H75.6464V81.2036H106.028C108.989 81.2036 111.389 83.604 111.389 86.565C111.389 89.526 108.989 91.9264 106.028 91.9264H75.6464V103.543H106.028C108.989 103.543 111.389 105.943 111.389 108.904C111.389 111.865 108.989 114.266 106.028 114.266H72.0722C68.1241 114.266 64.9236 111.065 64.9236 107.117V66.0128Z" fill="#F90196" fill-opacity="0.6"/>
<path fill-rule="evenodd" clip-rule="evenodd" d="M69.3916 66.0127C69.3916 64.5322 70.5918 63.332 72.0723 63.332H106.028V65.1192H72.0723C71.5788 65.1192 71.1787 65.5192 71.1787 66.0127V85.6713H106.028V87.4585H71.1787V107.117C71.1787 107.611 71.5788 108.011 72.0723 108.011H106.028V109.798H72.0723C70.5918 109.798 69.3916 108.598 69.3916 107.117V66.0127Z" fill="#EDF6F8"/>
<path d="M102.658 108.742C102.658 106.97 104.094 105.534 105.865 105.534C107.637 105.534 109.073 106.97 109.073 108.742C109.073 110.513 107.637 111.949 105.865 111.949C104.094 111.949 102.658 110.513 102.658 108.742Z" fill="#EDF6F8"/>
<path d="M102.658 86.4022C102.658 84.6309 104.094 83.1949 105.865 83.1949C107.637 83.1949 109.073 84.6309 109.073 86.4022C109.073 88.1735 107.637 89.6094 105.865 89.6094C104.094 89.6094 102.658 88.1735 102.658 86.4022Z" fill="#EDF6F8"/>
<path d="M102.658 64.063C102.658 62.2917 104.094 60.8558 105.865 60.8558C107.637 60.8558 109.073 62.2917 109.073 64.063C109.073 65.8343 107.637 67.2703 105.865 67.2703C104.094 67.2703 102.658 65.8343 102.658 64.063Z" fill="#EDF6F8"/>
<path d="M159.172 115.997C156.338 115.997 153.824 114.18 152.934 111.489L140.019 72.4159C139.966 72.2582 139.819 72.1517 139.653 72.1517C139.487 72.1517 139.34 72.2581 139.288 72.4157L126.342 111.5C125.453 114.184 122.943 115.997 120.116 115.997C115.577 115.997 112.41 111.498 113.94 107.226L129.58 63.5638C130.713 60.3994 133.712 58.2881 137.074 58.2881L142.206 58.2881C145.566 58.2881 148.564 60.3978 149.699 63.5604L165.355 107.209C166.891 111.489 163.719 115.997 159.172 115.997Z" fill="#F90196" fill-opacity="0.6"/>
<path d="M155.686 109.582C155.686 107.812 157.122 106.376 158.892 106.376C160.663 106.376 162.098 107.812 162.098 109.582C162.098 111.353 160.663 112.788 158.892 112.788C157.122 112.788 155.686 111.353 155.686 109.582Z" fill="#EDF6F8"/>
<path d="M117.215 109.582C117.215 107.812 118.65 106.376 120.421 106.376C122.191 106.376 123.627 107.812 123.627 109.582C123.627 111.353 122.191 112.788 120.421 112.788C118.65 112.788 117.215 111.353 117.215 109.582Z" fill="#EDF6F8"/>
<path fill-rule="evenodd" clip-rule="evenodd" d="M119.664 109.311L134.491 67.7949C135.327 65.4561 137.542 63.8949 140.025 63.8949C142.543 63.8949 144.781 65.4989 145.59 67.8833L159.65 109.323L158.132 109.839L144.072 68.3983C143.484 66.6644 141.856 65.4979 140.025 65.4979C138.219 65.4979 136.608 66.6332 136.001 68.334L121.174 109.851L119.664 109.311Z" fill="#EDF6F8"/>
<path d="M198.126 115.997C195.292 115.997 192.778 114.18 191.888 111.489L178.973 72.4159C178.921 72.2582 178.773 72.1517 178.607 72.1517C178.441 72.1517 178.294 72.2581 178.242 72.4157L165.296 111.5C164.407 114.184 161.898 115.997 159.07 115.997C154.531 115.997 151.364 111.498 152.895 107.226L168.534 63.5638C169.668 60.3994 172.666 58.2881 176.028 58.2881L181.16 58.2881C184.52 58.2881 187.518 60.3978 188.653 63.5604L204.31 107.209C205.845 111.489 202.673 115.997 198.126 115.997Z" fill="#F90196" fill-opacity="0.6"/>
<path d="M194.64 109.582C194.64 107.812 196.076 106.376 197.846 106.376C199.617 106.376 201.052 107.812 201.052 109.582C201.052 111.353 199.617 112.788 197.846 112.788C196.076 112.788 194.64 111.353 194.64 109.582Z" fill="#EDF6F8"/>
<path d="M156.169 109.582C156.169 107.812 157.604 106.376 159.375 106.376C161.146 106.376 162.581 107.812 162.581 109.582C162.581 111.353 161.146 112.788 159.375 112.788C157.604 112.788 156.169 111.353 156.169 109.582Z" fill="#EDF6F8"/>
<path fill-rule="evenodd" clip-rule="evenodd" d="M158.618 109.311L173.445 67.7949C174.281 65.4561 176.496 63.8949 178.98 63.8949C181.497 63.8949 183.735 65.4989 184.544 67.8833L198.604 109.323L197.086 109.839L183.026 68.3983C182.438 66.6644 180.811 65.4979 178.98 65.4979C177.174 65.4979 175.563 66.6332 174.955 68.334L160.128 109.851L158.618 109.311Z" fill="#EDF6F8"/>
<path fill-rule="evenodd" clip-rule="evenodd" d="M231.416 103.768C240.758 103.768 248.331 96.1946 248.331 86.8529C248.331 77.5112 240.758 69.9383 231.416 69.9383C222.074 69.9383 214.501 77.5112 214.501 86.8529C214.501 96.1946 222.074 103.768 231.416 103.768ZM231.416 115.707C247.352 115.707 260.27 102.789 260.27 86.8529C260.27 70.9171 247.352 57.9985 231.416 57.9985C215.48 57.9985 202.562 70.9171 202.562 86.8529C202.562 102.789 215.48 115.707 231.416 115.707Z" fill="#F90196" fill-opacity="0.6"/>
<path d="M234.624 86.854C234.624 88.6246 233.188 90.06 231.417 90.06C229.647 90.06 228.211 88.6246 228.211 86.854C228.211 85.0833 229.647 83.6479 231.417 83.6479C233.188 83.6479 234.624 85.0833 234.624 86.854Z" fill="#EDF6F8"/>
<path fill-rule="evenodd" clip-rule="evenodd" d="M231.418 109.297C243.812 109.297 253.86 99.2489 253.86 86.8544C253.86 74.4599 243.812 64.4121 231.418 64.4121C219.023 64.4121 208.975 74.4599 208.975 86.8544C208.975 99.2489 219.023 109.297 231.418 109.297ZM231.418 110.9C244.698 110.9 255.463 100.134 255.463 86.8544C255.463 73.5745 244.698 62.8091 231.418 62.8091C218.138 62.8091 207.372 73.5745 207.372 86.8544C207.372 100.134 218.138 110.9 231.418 110.9Z" fill="#EDF6F8"/>
<path d="M320 65.0918C320 61.3342 316.954 58.2881 313.196 58.2881C311.439 58.2881 309.749 58.9683 308.482 60.1862L275.564 91.8209C275.509 91.8736 275.436 91.9031 275.36 91.9031C275.197 91.9031 275.065 91.7712 275.065 91.6084L275.065 65.8373C275.065 62.3099 272.206 59.4503 268.678 59.4503C265.151 59.4503 262.291 62.3099 262.291 65.8373L262.291 107.356C262.291 111.486 265.639 114.835 269.77 114.835C271.653 114.835 273.466 114.124 274.848 112.846L306.727 83.3548C306.782 83.304 306.854 83.2758 306.929 83.2758C307.093 83.2758 307.226 83.4088 307.226 83.5728L307.226 109.61C307.226 113.137 310.085 115.997 313.613 115.997C317.14 115.997 320 113.137 320 109.61L320 65.0918Z" fill="#F90196" fill-opacity="0.6"/>
<path d="M313.589 106.376C315.36 106.376 316.795 107.811 316.795 109.582C316.795 111.353 315.36 112.788 313.589 112.788C311.819 112.788 310.383 111.353 310.383 109.582C310.383 107.811 311.819 106.376 313.589 106.376Z" fill="#EDF6F8"/>
<path d="M268.705 63.0952C270.475 63.0952 271.911 64.5306 271.911 66.3013C271.911 68.0719 270.475 69.5073 268.705 69.5073C266.934 69.5073 265.499 68.0719 265.499 66.3013C265.499 64.5306 266.934 63.0952 268.705 63.0952Z" fill="#EDF6F8"/>
<path fill-rule="evenodd" clip-rule="evenodd" d="M270.416 109.045C269.474 109.953 267.904 109.286 267.904 107.978L267.904 66.2995L269.507 66.2995L269.507 107.695L311.88 66.8352C312.821 65.9273 314.391 66.5946 314.391 67.9025L314.391 109.581L312.788 109.581L312.788 68.1858L270.416 109.045Z" fill="#EDF6F8"/>
</svg>
