<svg width="20" height="20" viewBox="0 0 20 20" fill="none" xmlns="http://www.w3.org/2000/svg">
<path fill-rule="evenodd" clip-rule="evenodd" d="M6.3759 3.56041C6.65413 2.44747 7.6541 1.66675 8.80129 1.66675H11.1986C12.3459 1.66675 13.3457 2.4475 13.624 3.5604L12.8155 3.76252L13.624 3.5604L14.0838 5.39968C15.1257 5.96333 15.8333 7.06574 15.8333 8.33341V11.6667C15.8333 12.9345 15.1257 14.0369 14.0838 14.6005L13.624 16.4398L13.624 16.4398C13.3457 17.5527 12.3459 18.3334 11.1986 18.3334H8.80129C7.6541 18.3334 6.65413 17.5527 6.3759 16.4398L7.18435 16.2377L6.3759 16.4398L5.91608 14.6005C4.87427 14.0368 4.16663 12.9345 4.16663 11.6667V8.33341C4.16663 7.06574 4.87427 5.96335 5.91607 5.3997L6.3759 3.56041C6.3759 3.56041 6.3759 3.56041 6.3759 3.56041ZM7.73394 5.00008H12.266L12.0071 3.96465C11.9143 3.59364 11.5811 3.33341 11.1986 3.33341H8.80129C8.41885 3.33341 8.08554 3.59367 7.9928 3.96463L7.9928 3.96464L7.73394 5.00008ZM7.73394 15.0001L7.9928 16.0356C8.08554 16.4065 8.41885 16.6667 8.80129 16.6667H11.1986C11.581 16.6667 11.9143 16.4065 12.0071 16.0355C12.0071 16.0355 12.0071 16.0355 12.0071 16.0355L12.266 15.0001H7.73394ZM7.49996 6.66675C6.57949 6.66675 5.83329 7.41294 5.83329 8.33341V11.6667C5.83329 12.5873 6.57948 13.3334 7.49996 13.3334H12.5C13.4205 13.3334 14.1666 12.5873 14.1666 11.6667V8.33341C14.1666 7.41293 13.4205 6.66675 12.5 6.66675H7.49996ZM9.99996 7.50008C10.4602 7.50008 10.8333 7.87318 10.8333 8.33341V9.93315L11.8717 10.5265C12.2713 10.7549 12.4102 11.2639 12.1818 11.6635C11.9535 12.0631 11.4444 12.202 11.0448 11.9736L9.58651 11.1403C9.32686 10.9919 9.16663 10.7158 9.16663 10.4167V8.33341C9.16663 7.87318 9.53972 7.50008 9.99996 7.50008Z" fill="white"/>
</svg>
