<svg width="34" height="34" viewBox="0 0 34 34" fill="none" xmlns="http://www.w3.org/2000/svg">
<path d="M17 6.80002C17 6.04891 17.6089 5.44002 18.36 5.44002H27.2C27.9511 5.44002 28.56 6.04891 28.56 6.80002V7.48002C28.56 8.23112 27.9511 8.84002 27.2 8.84002H18.36C17.6089 8.84002 17 8.23112 17 7.48002V6.80002Z" fill="white"/>
<path d="M17 16.66C17 15.9089 17.6089 15.3 18.36 15.3H27.2C27.9511 15.3 28.56 15.9089 28.56 16.66V17.34C28.56 18.0911 27.9511 18.7 27.2 18.7H18.36C17.6089 18.7 17 18.0911 17 17.34V16.66Z" fill="white"/>
<path d="M17 26.52C17 25.7689 17.6089 25.16 18.36 25.16H27.2C27.9511 25.16 28.56 25.7689 28.56 26.52V27.2C28.56 27.9511 27.9511 28.56 27.2 28.56H18.36C17.6089 28.56 17 27.9511 17 27.2V26.52Z" fill="white"/>
<path d="M11.5651 4.47835C12.0962 3.94724 12.9573 3.94724 13.4884 4.47835C14.0195 5.00947 14.0195 5.87057 13.4884 6.40168L10.1417 10.0876C9.61058 10.6187 8.74948 10.6187 8.21836 10.0876L6.17836 8.04763C5.64725 7.51652 5.64725 6.65542 6.17836 6.1243C6.70947 5.59319 7.57058 5.59319 8.10169 6.1243L9.18003 7.20264L11.5651 4.47835Z" fill="white"/>
<path d="M11.5651 14.3384C12.0962 13.8072 12.9573 13.8072 13.4884 14.3384C14.0195 14.8695 14.0195 15.7306 13.4884 16.2617L10.1417 19.9476C9.61058 20.4787 8.74948 20.4787 8.21836 19.9476L6.17836 17.9076C5.64725 17.3765 5.64725 16.5154 6.17836 15.9843C6.70947 15.4532 7.57058 15.4532 8.10169 15.9843L9.18003 17.0626L11.5651 14.3384Z" fill="white"/>
<path d="M11.5651 24.1984C12.0962 23.6672 12.9573 23.6672 13.4884 24.1984C14.0195 24.7295 14.0195 25.5906 13.4884 26.1217L10.1417 29.8076C9.61058 30.3387 8.74948 30.3387 8.21836 29.8076L6.17836 27.7676C5.64725 27.2365 5.64725 26.3754 6.17836 25.8443C6.70947 25.3132 7.57058 25.3132 8.10169 25.8443L9.18003 26.9226L11.5651 24.1984Z" fill="white"/>
</svg>
