<svg width="20" height="20" viewBox="0 0 20 20" fill="none" xmlns="http://www.w3.org/2000/svg">
<path d="M16.4854 2.79556C16.2736 2.32918 15.9953 1.89455 15.6099 1.55842C15.2278 1.22197 14.7181 0.997077 14.1467 1.00007C13.8551 0.999784 13.5798 1.0612 13.3362 1.16709C12.9081 1.35342 12.585 1.66283 12.3373 1.99449C11.9665 2.49414 11.7469 3.05811 11.6075 3.50312C11.5704 3.62297 11.5395 3.73332 11.5137 3.83271H10.4923H9.57875H8.55701C8.48223 3.54049 8.35971 3.14442 8.16807 2.73204C7.98206 2.33716 7.73375 1.92506 7.3715 1.58833C7.19052 1.42071 6.97902 1.2727 6.73482 1.16706C6.49123 1.06117 6.21564 0.999714 5.9243 1.00003C5.35617 0.997042 4.84799 1.21571 4.46464 1.5465C3.88646 2.04554 3.54264 2.75608 3.31746 3.49095C3.09524 4.22878 3.0006 5.00074 3 5.65995C3 6.66511 3 10.594 3 12.056C3.00028 12.6155 3.08726 13.3109 3.30291 14.0562C3.62687 15.1711 4.24457 16.4029 5.3304 17.3682C6.41357 18.3348 7.96786 19.0035 10.0354 19C11.414 19.0005 12.5643 18.7078 13.4991 18.2215C14.9041 17.4923 15.8034 16.3429 16.3398 15.1957C16.8777 14.0437 17.0696 12.8935 17.0711 12.056C17.0711 10.594 17.0711 6.66507 17.0711 5.65992C17.0684 4.80938 16.905 3.73125 16.4854 2.79556ZM15.9746 12.056C15.9749 12.5013 15.9019 13.108 15.715 13.7506C15.4349 14.7171 14.9027 15.7597 14.0129 16.5479C13.1208 17.3353 11.8739 17.8999 10.0354 17.9035C8.80985 17.9029 7.84741 17.6477 7.07753 17.2487C5.92553 16.65 5.18651 15.7134 4.72399 14.7302C4.42495 14.0953 4.25051 13.4426 4.16476 12.8784C4.6065 12.8784 5.3767 12.8784 6.43494 12.8784C8.17317 12.8784 9.33199 11.2054 9.33199 9.85346C9.33199 8.81361 9.33199 6.11888 9.33199 4.92892H9.57882H10.4923H12.4213L12.4955 4.46847C12.4963 4.45392 12.6147 3.78166 12.9102 3.16727C13.0559 2.86018 13.2452 2.57243 13.454 2.38434C13.5588 2.28942 13.6661 2.21823 13.7774 2.17073C13.8898 2.12327 14.0067 2.09683 14.1467 2.09655C14.4434 2.09951 14.6647 2.19387 14.8911 2.38642C15.227 2.67181 15.5207 3.21561 15.7037 3.83478C15.8903 4.45065 15.9755 5.13303 15.9746 5.65992C15.9746 6.66511 15.9746 10.594 15.9746 12.056Z" fill="white"/>
<path d="M9.94406 13.335C9.13677 13.335 8.4823 13.8263 8.4823 14.4315C8.4823 15.037 9.13677 15.528 9.94406 15.528C10.7516 15.528 11.4061 15.037 11.4061 14.4315C11.4061 13.8263 10.7516 13.335 9.94406 13.335Z" fill="white"/>
<path d="M12.7767 10.6855C13.2814 10.6855 13.6905 10.2764 13.6905 9.77169C13.6905 9.26702 13.2814 8.85791 12.7767 8.85791C12.272 8.85791 11.8629 9.26702 11.8629 9.77169C11.8629 10.2764 12.272 10.6855 12.7767 10.6855Z" fill="white"/>
<path d="M14.1165 3.49756C13.5077 3.49756 13.3855 4.77682 13.3855 4.77682H14.7259C14.7259 4.77682 14.7253 3.49756 14.1165 3.49756Z" fill="white"/>
</svg>
