<svg width="34" height="34" viewBox="0 0 34 34" fill="none" xmlns="http://www.w3.org/2000/svg">
<path fill-rule="evenodd" clip-rule="evenodd" d="M2.04004 4.346C2.04004 3.05034 3.09038 2 4.38604 2H15.334C16.6297 2 17.68 3.05035 17.68 4.346V6.692C17.68 7.12389 17.3299 7.474 16.898 7.474V15.294C16.898 16.5897 15.8477 17.64 14.552 17.64H5.16804C3.87239 17.64 2.82204 16.5897 2.82204 15.294V7.474C2.39015 7.474 2.04004 7.12389 2.04004 6.692V4.346ZM4.38604 7.474V15.294C4.38604 15.7259 4.73614 16.076 5.16804 16.076H14.552C14.984 16.076 15.334 15.7259 15.334 15.294V7.474H4.38604ZM16.116 5.91H3.60404V4.346C3.60404 3.91411 3.95415 3.564 4.38604 3.564H15.334C15.7659 3.564 16.116 3.91411 16.116 4.346V5.91Z" fill="white"/>
<path fill-rule="evenodd" clip-rule="evenodd" d="M7.5419 9.73209C7.82376 8.91979 8.60784 8.25562 9.81391 8.25562C10.5741 8.25562 11.1882 8.52204 11.6062 8.95253C12.0144 9.37295 12.2057 9.91803 12.2057 10.4452C12.2057 10.8451 12.1 11.1741 11.906 11.4516C11.7204 11.7172 11.476 11.9024 11.2709 12.0442C11.2037 12.0907 11.14 12.1336 11.0798 12.1742C10.7447 12.4 10.5146 12.555 10.3556 12.8665C10.2159 13.1404 9.86 13.2587 9.56081 13.1308C9.26162 13.0028 9.1324 12.677 9.27219 12.4031C9.57133 11.8169 10.0702 11.4882 10.4078 11.2658C10.4594 11.2318 10.5073 11.2002 10.5501 11.1706C10.7269 11.0483 10.8311 10.9582 10.8987 10.8616C10.9578 10.777 11.0098 10.6569 11.0098 10.4452C11.0098 10.1513 10.9021 9.87528 10.7124 9.67988C10.5324 9.49454 10.2496 9.35042 9.81391 9.35042C9.16889 9.35042 8.81826 9.66986 8.68165 10.0635C8.58167 10.3517 8.24547 10.5111 7.93074 10.4195C7.61601 10.328 7.44191 10.0202 7.5419 9.73209ZM9.21598 14.277C9.21598 13.9747 9.48368 13.7296 9.81391 13.7296H9.81989C10.1501 13.7296 10.4178 13.9747 10.4178 14.277C10.4178 14.5793 10.1501 14.8244 9.81989 14.8244H9.81391C9.48368 14.8244 9.21598 14.5793 9.21598 14.277Z" fill="white"/>
<path fill-rule="evenodd" clip-rule="evenodd" d="M16 18.6661C16 17.3704 17.0503 16.3201 18.346 16.3201H29.294C30.5897 16.3201 31.64 17.3704 31.64 18.6661V21.0121C31.64 21.444 31.2899 21.7941 30.858 21.7941V29.6141C30.858 30.9098 29.8077 31.9601 28.512 31.9601H19.128C17.8323 31.9601 16.782 30.9098 16.782 29.6141V21.7941C16.3501 21.7941 16 21.444 16 21.0121V18.6661ZM18.346 21.7941V29.6141C18.346 30.046 18.6961 30.3961 19.128 30.3961H28.512C28.9439 30.3961 29.294 30.046 29.294 29.6141V21.7941H18.346ZM30.076 20.2301H17.564V18.6661C17.564 18.2342 17.9141 17.8841 18.346 17.8841H29.294C29.7259 17.8841 30.076 18.2342 30.076 18.6661V20.2301Z" fill="white"/>
<path fill-rule="evenodd" clip-rule="evenodd" d="M27.4905 22.7709C27.7928 23.0466 27.8116 23.5122 27.5326 23.8109L23.0641 28.5949C22.9266 28.7421 22.7344 28.8275 22.5317 28.8315C22.3291 28.8355 22.1335 28.7578 21.9902 28.6161L20.1283 26.7761C19.8374 26.4887 19.8374 26.0227 20.1283 25.7353C20.4191 25.4478 20.8907 25.4478 21.1815 25.7353L22.4953 27.0336L26.4381 22.8125C26.7171 22.5138 27.1883 22.4952 27.4905 22.7709Z" fill="white"/>
<path d="M23.2486 13.5933C23.5825 14.1356 24.4175 14.1356 24.7514 13.5933L27.8825 8.50927C28.2164 7.96697 27.799 7.2891 27.131 7.2891H20.869C20.201 7.2891 19.7836 7.96697 20.1175 8.50927L23.2486 13.5933Z" fill="#BC4131"/>
</svg>
