<svg width="20" height="20" viewBox="0 0 20 20" fill="none" xmlns="http://www.w3.org/2000/svg">
<path d="M17.8975 14.9763L15.7228 7.9102C15.6216 7.63918 15.3832 7.43347 15.0763 7.43347H12.8918C12.3791 4.88 11.4518 2 9.94646 2C8.44116 2 7.51381 4.88 7.00116 7.43673H4.91789C4.61095 7.43673 4.37585 7.63918 4.27136 7.91347L2.09993 14.9763C1.89748 15.6555 1.99871 16.4033 2.43952 16.9812C2.94891 17.6278 3.73259 18 4.58156 18H15.3832C16.2322 18 17.0485 17.6278 17.5579 16.9812C17.9661 16.3706 18.0999 15.6555 17.8975 14.9763ZM9.98238 3.35837C10.482 3.57714 11.135 5.44816 11.5889 7.43347H8.37912C8.82973 5.45796 9.48279 3.6 9.98238 3.35837ZM15.3505 16.6743H4.54565C4.07871 16.72 3.11871 16.2498 3.35707 15.3486L5.39463 8.79184V8.75918H6.76606C6.56687 10.0131 6.48197 11.0057 6.48197 11.2376C6.48197 11.6098 6.78891 11.9167 7.16116 11.9167C7.5334 11.9167 7.84034 11.6131 7.84034 11.2408C7.84034 10.5747 7.94157 9.69306 8.1081 8.76245H11.8567C12.0199 9.69633 12.1212 10.578 12.1212 11.2408C12.1212 11.6131 12.4281 11.92 12.8003 11.92C13.1726 11.92 13.4469 11.6131 13.411 11.2408C13.411 11.0057 13.3261 10.0131 13.1269 8.76245H14.531L16.5359 15.3518C16.7644 16.1747 15.9742 16.7037 15.3505 16.6743Z" fill="white"/>
</svg>
