<svg width="20" height="20" viewBox="0 0 20 20" fill="none" xmlns="http://www.w3.org/2000/svg">
<path d="M18.8501 8.5097C18.7339 8.37558 18.5651 8.29861 18.3876 8.29861H4.13854L4.14218 8.29497C4.38109 8.05576 4.38109 7.66807 4.14206 7.42916C3.90278 7.19007 3.51509 7.19007 3.27624 7.42928L3.27291 7.43243V4.55468C3.27291 3.93159 3.77969 3.42456 4.40272 3.42456C5.02575 3.42456 5.53266 3.93159 5.53266 4.55468C5.53266 4.89274 5.80678 5.16692 6.14496 5.16692C6.48302 5.16692 6.75727 4.89274 6.75727 4.55468C6.75727 3.25625 5.70102 2.19995 4.40278 2.19995C3.10466 2.19995 2.0486 3.25625 2.0486 4.55468V8.29861H1.61224C1.43479 8.29861 1.26594 8.37564 1.14976 8.5097C1.03339 8.64382 0.981028 8.8217 1.00618 8.99746L2.05472 16.3384C2.09782 16.6401 2.35612 16.8641 2.66091 16.8641H3.09703V17.3005C3.09703 17.6385 3.37121 17.9128 3.70927 17.9128C4.04739 17.9128 4.32157 17.6385 4.32157 17.3005V16.8641H15.6785V17.3005C15.6785 17.6385 15.9526 17.9128 16.2908 17.9128C16.6288 17.9128 16.9031 17.6385 16.9031 17.3005V16.8641H17.3392C17.6439 16.8641 17.9022 16.6401 17.9453 16.3384L18.9939 8.99746C19.0188 8.82176 18.9665 8.64382 18.8501 8.5097ZM16.808 15.6397H3.19175L2.31806 9.52316H17.6817L16.808 15.6397Z" fill="white"/>
</svg>
