<svg width="20" height="20" viewBox="0 0 20 20" fill="none" xmlns="http://www.w3.org/2000/svg">
<path d="M7.64762 3.45406C7.64762 3.2983 7.5849 3.14545 7.47478 3.03533C7.36399 2.92515 7.21175 2.86182 7.05538 2.86182C6.89975 2.86182 6.7475 2.92515 6.63672 3.03533C6.52665 3.14545 6.46387 3.2983 6.46387 3.45406C6.46387 3.60976 6.52659 3.7626 6.63672 3.87266C6.7475 3.98285 6.89975 4.04624 7.05538 4.04624C7.21175 4.04624 7.36399 3.98285 7.47478 3.87266C7.5849 3.7626 7.64762 3.60982 7.64762 3.45406Z" fill="white"/>
<path d="M10.9941 6.67733C10.9417 6.67733 10.8896 6.68424 10.8391 6.69794C10.8349 6.69915 10.4078 6.81121 9.90808 6.81121C9.48021 6.81121 9.13239 6.72867 8.90263 6.57236C8.80105 6.50327 8.49202 6.29321 8.49202 5.5817C8.49202 5.43442 8.71057 4.99485 8.84111 4.73224C9.08439 4.24291 9.33602 3.73685 9.33602 3.28C9.33596 2.02285 8.31312 1 7.0559 1C5.79857 1 4.77572 2.02285 4.77572 3.28006C4.77572 3.73685 5.02724 4.24291 5.27063 4.7323C5.40105 4.99491 5.6196 5.43442 5.6196 5.5817C5.6196 6.1897 5.45142 6.81121 4.20354 6.81121C3.70342 6.81121 3.2756 6.69873 3.27269 6.698C3.22215 6.68424 3.16996 6.67733 3.11748 6.67733C2.17051 6.67733 1.40002 7.44782 1.40002 8.39479V17.1153C1.40002 18.0622 2.17051 18.8327 3.11748 18.8327L10.9941 18.8328C11.9411 18.8328 12.7116 18.0623 12.7116 17.1153V8.39485C12.7115 7.44782 11.9411 6.67733 10.9941 6.67733ZM11.5271 17.1152C11.5271 17.4092 11.288 17.6483 10.9941 17.6483L3.11742 17.6482C2.82348 17.6482 2.58451 17.4092 2.58451 17.1152V8.39479C2.58451 8.12048 2.79287 7.89388 3.05942 7.86491C3.2493 7.90842 3.69402 7.9957 4.20348 7.9957C5.83178 7.99564 6.80396 7.09321 6.80396 5.5817C6.80396 5.1563 6.57433 4.69418 6.33118 4.20503C6.1833 3.90782 5.96008 3.45879 5.96008 3.28006C5.96008 2.67594 6.45166 2.18448 7.05584 2.18448C7.66002 2.18448 8.15148 2.67594 8.15148 3.28006C8.15148 3.45873 7.92808 3.90788 7.78039 4.20503C7.53724 4.69424 7.30748 5.1563 7.30748 5.58176C7.30748 6.688 7.81269 7.2637 8.23645 7.55188C8.66966 7.84636 9.23208 7.9957 9.90808 7.9957C10.4174 7.99564 10.8621 7.90842 11.052 7.86491C11.3187 7.89388 11.5271 8.12048 11.5271 8.39485V17.1152H11.5271Z" fill="white"/>
<path d="M18.2781 1.23629C18.0398 1.15368 17.7751 1.2312 17.619 1.42926C17.5629 1.50047 16.2378 3.18696 15.6 4.46253C13.5709 8.5209 14.5361 12.5006 14.5783 12.668C14.6444 12.9314 14.8812 13.116 15.1526 13.116H15.469V18.4009C15.4672 18.5592 15.5287 18.7116 15.6399 18.8242C15.7512 18.9367 15.9029 19 16.0612 19H18.0842C18.4112 19 18.6764 18.7349 18.6764 18.4078V1.79587C18.6764 1.54362 18.5165 1.31896 18.2781 1.23629ZM17.4918 17.8156H16.6604V13.1159H17.4918V17.8156ZM17.4918 11.9314H15.6425C15.4695 10.8354 15.2057 7.89987 16.6594 4.99223C16.8739 4.56332 17.1843 4.06956 17.4918 3.61568L17.4918 11.9314Z" fill="white"/>
</svg>
