<svg width="20" height="20" viewBox="0 0 20 20" fill="none" xmlns="http://www.w3.org/2000/svg">
<path d="M16.8299 15.7804C16.8469 15.7634 16.8626 15.7458 16.8775 15.728C16.8783 15.727 16.8791 15.726 16.8799 15.725C17.0079 15.5708 17.0598 15.3886 17.0496 15.2122V4.7504C17.0496 4.33619 16.7138 4.00042 16.2996 4.00042H14.0497V1.75049C14.0497 1.2459 13.5614 0.885265 13.0791 1.03369L3.3294 4.0336C3.01473 4.13042 2.79999 4.42119 2.79999 4.7504V15.2501V16.7501C2.79999 17.993 3.807 19 5.04992 19H16.2996C16.9678 19 17.3024 18.1922 16.8299 17.7197C16.1231 17.0129 16.1231 16.4872 16.8299 15.7804ZM15.5496 5.50038V14.5001H8.53758L13.5202 12.967C13.8349 12.8702 14.0496 12.5794 14.0496 12.2502V5.50038H15.5496ZM12.5497 2.76592V4.7504V11.6963L4.29991 14.2347V5.30432L12.5497 2.76592ZM14.9271 17.5H5.04992C4.63539 17.5 4.29995 17.1646 4.29995 16.7501C4.29995 16.3355 4.63539 16.0001 5.04992 16.0001H14.9271C14.7574 16.4972 14.7574 17.003 14.9271 17.5Z" fill="white"/>
<path d="M6.00593 9.97143L11.2558 8.47147C11.5777 8.37948 11.7997 8.08521 11.7997 7.75035V4.75044C11.7997 4.25215 11.3228 3.89243 10.8437 4.02931L5.59388 5.52927C5.27192 5.62126 5.04993 5.91554 5.04993 6.25039V9.25031C5.04989 9.74856 5.52683 10.1083 6.00593 9.97143ZM6.54985 6.8161L10.2997 5.74471V7.18464L6.54985 8.25604V6.8161Z" fill="white"/>
</svg>
