<svg width="20" height="20" viewBox="0 0 20 20" fill="none" xmlns="http://www.w3.org/2000/svg">
<path fill-rule="evenodd" clip-rule="evenodd" d="M9.30399 0.67461C9.40586 0.597052 9.65905 0.416748 10 0.416748C10.341 0.416748 10.5942 0.597052 10.6961 0.67461C10.832 0.778123 10.9567 0.905284 11.0642 1.02859C11.2826 1.2789 11.5066 1.60168 11.7062 1.93782C11.9071 2.27627 12.0979 2.65304 12.2411 3.01942C12.377 3.36729 12.5 3.78036 12.5 4.16675C12.5 5.25526 11.8044 6.1813 10.8334 6.5245V7.50008H13.3334C15.6345 7.50008 17.5 9.36559 17.5 11.6667V12.4888C17.5001 12.4968 17.5001 12.5049 17.5 12.5129V17.5001C17.5 17.9603 17.1269 18.3334 16.6667 18.3334H3.33336C2.87312 18.3334 2.50003 17.9603 2.50003 17.5001V12.513C2.49991 12.5049 2.49991 12.4968 2.50003 12.4887V11.6667C2.50003 9.3656 4.3655 7.50008 6.66669 7.50008H9.16669V6.5245C8.19569 6.1813 7.50003 5.25526 7.50003 4.16675C7.50003 3.78036 7.62307 3.36729 7.759 3.01942C7.90215 2.65304 8.09295 2.27627 8.29388 1.93782C8.49344 1.60168 8.7175 1.2789 8.93583 1.02859C9.04338 0.905284 9.16803 0.778123 9.30399 0.67461ZM10 9.16675H6.66669C5.28599 9.16675 4.16669 10.2861 4.16669 11.6667V12.2478L4.3816 12.5701C4.38161 12.5702 4.38161 12.5702 4.38162 12.5702C4.65173 12.9753 5.25169 12.9609 5.50216 12.5435L5.5354 12.4881L5.53545 12.488C6.42545 11.0046 8.57506 11.0054 9.46477 12.4883L9.46479 12.4883C9.70727 12.8925 10.2929 12.8922 10.5351 12.4886C11.425 11.0054 13.5748 11.0057 14.4641 12.4894M14.4641 12.4894L14.4968 12.5439C14.4968 12.5439 14.4968 12.5439 14.4968 12.5439C14.7464 12.9603 15.3442 12.9754 15.6145 12.5725L15.6145 12.5725L15.8334 12.2464V11.6667C15.8334 10.2861 14.714 9.16675 13.3334 9.16675H10M15.8334 14.4039C14.846 14.7453 13.6688 14.4044 13.0673 13.4008L13.0673 13.4008L13.0346 13.3463L13.0346 13.3462C12.7924 12.9421 12.2067 12.942 11.9643 13.3461L11.9643 13.3461C11.0744 14.8291 8.92511 14.8284 8.0356 13.3457C7.79294 12.9413 7.20705 12.9415 6.96465 13.3454C6.96464 13.3454 6.96462 13.3455 6.96461 13.3455L6.93136 13.4009L6.93132 13.401C6.3295 14.404 5.15351 14.7445 4.16669 14.4044V16.6667H15.8334V14.4039ZM9.31137 3.62597C9.1999 3.91126 9.16669 4.0929 9.16669 4.16675C9.16669 4.62699 9.53977 5.00008 10 5.00008C10.4603 5.00008 10.8334 4.62699 10.8334 4.16675C10.8334 4.0929 10.8002 3.91126 10.6887 3.62597C10.5844 3.35918 10.4367 3.06431 10.273 2.78865C10.1805 2.63272 10.0874 2.49069 10 2.36907C9.91264 2.49069 9.81958 2.63272 9.72701 2.78865C9.56336 3.06431 9.41561 3.35918 9.31137 3.62597ZM10.3136 2.0007C10.328 1.98972 10.326 1.99363 10.3091 2.00422C10.3109 2.00277 10.3124 2.00161 10.3136 2.0007ZM9.69091 2.00422C9.67409 1.99363 9.67205 1.98972 9.68647 2.0007C9.68767 2.00161 9.68915 2.00277 9.69091 2.00422Z" fill="white"/>
</svg>
