<svg width="20" height="20" viewBox="0 0 20 20" fill="none" xmlns="http://www.w3.org/2000/svg">
<path fill-rule="evenodd" clip-rule="evenodd" d="M3.82956 5.87617C4.16984 4.85532 5.12519 4.16675 6.20127 4.16675H13.7987C14.8748 4.16675 15.8301 4.85531 16.1704 5.87616C16.1704 5.87617 16.1704 5.87619 16.1704 5.8762L17.1732 8.88434C17.1776 8.89671 17.1818 8.90923 17.1857 8.92187L17.3717 9.47996L17.3718 9.48021C17.4566 9.73487 17.5 10.0018 17.5 10.2706V16.2501C17.5 16.9404 16.9403 17.5001 16.25 17.5001C15.5597 17.5001 15 16.9404 15 16.2501V15.8334H5V16.2501C5 16.9404 4.4404 17.5001 3.75 17.5001C3.0596 17.5001 2.5 16.9404 2.5 16.2501V10.2706C2.5 10.0019 2.54332 9.73489 2.62829 9.47997C2.62829 9.47997 2.62829 9.47998 2.62829 9.47997L2.81446 8.92145C2.81826 8.9091 2.82234 8.89687 2.82669 8.88477L3.82956 5.87617ZM4.21174 10.0001H15.7883L15.7905 10.0068C15.7905 10.0069 15.7906 10.007 15.7906 10.007C15.8189 10.0921 15.8333 10.1811 15.8333 10.2706V14.1667H4.16667V10.2706C4.16667 10.181 4.18112 10.0919 4.20942 10.007L4.21174 10.0001ZM15.2327 8.33341H4.7673L5.41069 6.40322C5.41069 6.40322 5.41069 6.40322 5.41069 6.40322C5.52412 6.06294 5.84257 5.83341 6.20127 5.83341H13.7987C14.1574 5.83341 14.4758 6.06294 14.5893 6.4032L15.2327 8.33341ZM6.66667 10.8334C7.1269 10.8334 7.5 11.2065 7.5 11.6667V12.5001C7.5 12.9603 7.1269 13.3334 6.66667 13.3334C6.20643 13.3334 5.83333 12.9603 5.83333 12.5001V11.6667C5.83333 11.2065 6.20643 10.8334 6.66667 10.8334ZM13.3333 10.8334C13.7936 10.8334 14.1667 11.2065 14.1667 11.6667V12.5001C14.1667 12.9603 13.7936 13.3334 13.3333 13.3334C12.8731 13.3334 12.5 12.9603 12.5 12.5001V11.6667C12.5 11.2065 12.8731 10.8334 13.3333 10.8334Z" fill="white"/>
</svg>
