<svg width="20" height="20" viewBox="0 0 20 20" fill="none" xmlns="http://www.w3.org/2000/svg">
<path fill-rule="evenodd" clip-rule="evenodd" d="M2.91483 7.53488C3.93453 4.60409 6.72064 2.5 10 2.5C13.2795 2.5 16.0656 4.60409 17.0853 7.53488C18.2667 7.73403 19.1667 8.76189 19.1667 10C19.1667 11.2381 18.2667 12.266 17.0853 12.4651C16.0656 15.3959 13.2795 17.5 10 17.5C6.72064 17.5 3.93452 15.3959 2.91483 12.4651C1.73338 12.266 0.833374 11.2381 0.833374 10C0.833374 8.76188 1.73338 7.73402 2.91483 7.53488ZM10 4.16667C7.28308 4.16667 4.99804 6.02492 4.35044 8.54105C4.25566 8.90928 3.92364 9.16667 3.54341 9.16667H3.33337C2.87313 9.16667 2.50004 9.53974 2.50004 10C2.50004 10.4603 2.87313 10.8333 3.33337 10.8333H3.54341C3.92364 10.8333 4.25566 11.0907 4.35044 11.459C4.99804 13.9751 7.28308 15.8333 10 15.8333C12.717 15.8333 15.0021 13.9751 15.6497 11.459C15.7445 11.0907 16.0765 10.8333 16.4567 10.8333H16.6667C17.127 10.8333 17.5 10.4603 17.5 10C17.5 9.53974 17.127 9.16667 16.6667 9.16667H16.4567C16.0765 9.16667 15.7445 8.90928 15.6497 8.54105C15.0021 6.02492 12.717 4.16667 10 4.16667ZM6.66671 8.33333C6.66671 7.8731 7.0398 7.5 7.50004 7.5H7.50837C7.96861 7.5 8.34171 7.8731 8.34171 8.33333C8.34171 8.79357 7.96861 9.16667 7.50837 9.16667H7.50004C7.0398 9.16667 6.66671 8.79357 6.66671 8.33333ZM11.6667 8.33333C11.6667 7.8731 12.0398 7.5 12.5 7.5H12.5084C12.9686 7.5 13.3417 7.8731 13.3417 8.33333C13.3417 8.79357 12.9686 9.16667 12.5084 9.16667H12.5C12.0398 9.16667 11.6667 8.79357 11.6667 8.33333ZM6.6954 10.9453C7.09378 10.7149 7.60356 10.851 7.83401 11.2494C8.26753 11.9988 9.07579 12.5 10 12.5C10.9244 12.5 11.7326 11.9988 12.1661 11.2494C12.3966 10.851 12.9063 10.7149 13.3047 10.9453C13.7031 11.1758 13.8392 11.6855 13.6088 12.0839C12.8896 13.3272 11.5434 14.1667 10 14.1667C8.45679 14.1667 7.11051 13.3272 6.39134 12.0839C6.16088 11.6856 6.29702 11.1758 6.6954 10.9453Z" fill="white"/>
</svg>
