<svg width="20" height="20" viewBox="0 0 20 20" fill="none" xmlns="http://www.w3.org/2000/svg">
<path d="M17.6441 10.7336C17.631 10.6911 14.5616 5.01929 14.5616 5.01929C14.4604 4.84949 13.8465 3.9646 12.9943 4.03317C12.6547 4.06582 12.142 4.30419 11.8025 5.15643C11.6653 5.49603 11.8351 5.87154 12.178 6.00868C12.5208 6.14582 12.8931 5.97602 13.0302 5.63317C13.0629 5.49602 13.1869 5.32949 13.4384 5.70174L15.0678 8.73194C14.8392 8.68623 14.6008 8.66337 14.3592 8.66337C12.8637 8.66337 11.5739 9.57113 11.0155 10.8642C10.6433 10.5605 10.2416 10.4168 9.83347 10.4364C9.49388 10.456 9.19673 10.5899 8.94531 10.7695C8.36408 9.52868 7.10367 8.66664 5.64408 8.66664C5.40571 8.66664 5.17061 8.68949 4.94204 8.73521L6.59755 5.67235C6.76082 5.37521 6.97306 5.50256 7.00571 5.60378C7.14286 5.94337 7.5151 6.11317 7.85796 5.97929C8.19755 5.84215 8.36735 5.4699 8.23347 5.12705C7.89388 4.24215 7.41714 4.03643 7.04163 4.00378C6.18939 3.93521 5.57878 4.82011 5.47429 4.9899C5.44163 4.9899 2.48653 10.4985 2.48653 10.4985C2.17633 11.0275 2 11.6479 2 12.3075C2 14.3156 3.63265 15.9483 5.64408 15.9483C7.62939 15.9483 9.24898 14.3189 9.2849 12.376C9.46776 12.0887 9.73551 11.7621 9.93143 11.7621C10.0914 11.7621 10.3755 11.945 10.7216 12.5099C10.8261 14.4234 12.4163 15.9483 14.3559 15.9483C16.3673 15.9483 18 14.2797 18 12.3075C18 11.7426 17.8727 11.2103 17.6441 10.7336ZM5.64408 14.5866C4.35102 14.5866 3.32898 13.5646 3.32898 12.2715C3.32898 10.9785 4.38367 9.95643 5.64408 9.95643C6.93714 9.95643 7.95918 10.9785 7.95918 12.2715C7.95918 13.5646 6.93714 14.5866 5.64408 14.5866ZM14.3559 14.5866C13.0629 14.5866 12.0408 13.5646 12.0408 12.2715C12.0408 10.9785 13.0955 9.95643 14.3559 9.95643C15.6163 9.95643 16.671 10.9785 16.671 12.2715C16.671 13.5646 15.6522 14.5866 14.3559 14.5866Z" fill="white"/>
</svg>
