<svg width="20" height="20" viewBox="0 0 20 20" fill="none" xmlns="http://www.w3.org/2000/svg">
<path fill-rule="evenodd" clip-rule="evenodd" d="M1.66669 5C1.66669 3.61929 2.78597 2.5 4.16669 2.5H10.8334C12.2141 2.5 13.3334 3.6193 13.3334 5V5.83333H15.8334C17.2141 5.83333 18.3334 6.95263 18.3334 8.33333V16.6667C18.3334 17.1269 17.9603 17.5 17.5 17.5H2.50002C2.03978 17.5 1.66669 17.1269 1.66669 16.6667V5ZM11.6667 15.8333V5C11.6667 4.53975 11.2936 4.16667 10.8334 4.16667H4.16669C3.70645 4.16667 3.33335 4.53976 3.33335 5V15.8333H11.6667ZM13.3334 7.5V10V13.3333V15.8333H16.6667V8.33333C16.6667 7.87309 16.2936 7.5 15.8334 7.5H13.3334ZM13.3334 13.3333C13.3334 13.7936 13.7065 14.1667 14.1667 14.1667H14.175C14.6353 14.1667 15.0084 13.7936 15.0084 13.3333C15.0084 12.8731 14.6353 12.5 14.175 12.5H14.1667C13.7065 12.5 13.3334 12.8731 13.3334 13.3333ZM13.3334 10C13.3334 10.4602 13.7065 10.8333 14.1667 10.8333H14.175C14.6353 10.8333 15.0084 10.4602 15.0084 10C15.0084 9.53976 14.6353 9.16667 14.175 9.16667H14.1667C13.7065 9.16667 13.3334 9.53976 13.3334 10ZM5.00002 6.66667C5.00002 6.20643 5.37312 5.83333 5.83335 5.83333H5.84169C6.30192 5.83333 6.67502 6.20643 6.67502 6.66667C6.67502 7.1269 6.30192 7.5 5.84169 7.5H5.83335C5.37312 7.5 5.00002 7.1269 5.00002 6.66667ZM8.33335 6.66667C8.33335 6.20643 8.70645 5.83333 9.16669 5.83333H9.17502C9.63526 5.83333 10.0084 6.20643 10.0084 6.66667C10.0084 7.1269 9.63526 7.5 9.17502 7.5H9.16669C8.70645 7.5 8.33335 7.1269 8.33335 6.66667ZM5.00002 10C5.00002 9.53976 5.37312 9.16667 5.83335 9.16667H5.84169C6.30192 9.16667 6.67502 9.53976 6.67502 10C6.67502 10.4602 6.30192 10.8333 5.84169 10.8333H5.83335C5.37312 10.8333 5.00002 10.4602 5.00002 10ZM8.33335 10C8.33335 9.53976 8.70645 9.16667 9.16669 9.16667H9.17502C9.63526 9.16667 10.0084 9.53976 10.0084 10C10.0084 10.4602 9.63526 10.8333 9.17502 10.8333H9.16669C8.70645 10.8333 8.33335 10.4602 8.33335 10ZM5.00002 13.3333C5.00002 12.8731 5.37312 12.5 5.83335 12.5H5.84169C6.30192 12.5 6.67502 12.8731 6.67502 13.3333C6.67502 13.7936 6.30192 14.1667 5.84169 14.1667H5.83335C5.37312 14.1667 5.00002 13.7936 5.00002 13.3333ZM8.33335 13.3333C8.33335 12.8731 8.70645 12.5 9.16669 12.5H9.17502C9.63526 12.5 10.0084 12.8731 10.0084 13.3333C10.0084 13.7936 9.63526 14.1667 9.17502 14.1667H9.16669C8.70645 14.1667 8.33335 13.7936 8.33335 13.3333Z" fill="white"/>
</svg>
