<svg width="20" height="20" viewBox="0 0 20 20" fill="none" xmlns="http://www.w3.org/2000/svg">
<path d="M9.87815 2.8412C9.87815 2.0465 9.23156 1.3999 8.43685 1.3999H2.44127C1.64656 1.3999 1 2.0465 1 2.8412C1 2.86859 1.00158 2.89594 1.00475 2.92319L1.91287 10.7699C1.91287 10.7701 1.9129 10.7703 1.9129 10.7705L2.32272 14.3113C2.33864 14.7959 2.59511 15.2208 2.97624 15.4702V17.7593C2.97624 18.1531 3.29546 18.4723 3.68917 18.4723H7.18912C7.58283 18.4723 7.90205 18.1531 7.90205 17.7593V15.4703C8.28322 15.2209 8.53975 14.7961 8.55561 14.3113L9.87351 2.92319C9.8766 2.89598 9.87815 2.86859 9.87815 2.8412ZM6.47611 17.0464H4.40204V15.7046H6.47611V17.0464ZM7.13519 14.1814C7.13206 14.2086 7.13044 14.2359 7.13044 14.2633C7.13044 14.2675 7.12868 14.2713 7.12598 14.274H3.75217C3.74946 14.2713 3.74771 14.2675 3.74771 14.2633C3.74771 14.2359 3.74613 14.2086 3.74296 14.1813L3.3747 10.9992L7.94371 7.19453L7.13519 14.1814ZM8.18137 5.14116L3.17888 9.3069L2.42945 2.83129C2.4323 2.82791 2.43652 2.82577 2.44123 2.82577H8.43678C8.44152 2.82577 8.44574 2.82791 8.44863 2.83129L8.18137 5.14116Z" fill="white"/>
<path d="M16.9334 10.0332V7.43437C16.9334 7.04065 16.6142 6.72144 16.2205 6.72144H12.1C11.7063 6.72144 11.387 7.04062 11.387 7.43437V10.0332C10.211 10.2631 9.32056 11.301 9.32056 12.5434V15.9142C9.32056 17.3248 10.4681 18.4723 11.8786 18.4723H16.4419C17.8524 18.4723 19 17.3247 19 15.9142V12.5434C19 11.301 18.1095 10.2631 16.9334 10.0332ZM12.8129 8.1473H15.5076V9.98531H12.8129V8.1473ZM16.4419 17.0465H11.8786C11.2543 17.0465 10.7464 16.5385 10.7464 15.9143V12.5434C10.7464 11.9191 11.2544 11.4112 11.8786 11.4112H12.1H16.2205H16.4418C17.0662 11.4112 17.574 11.9191 17.574 12.5434V15.9142C17.574 16.5386 17.0662 17.0465 16.4419 17.0465Z" fill="white"/>
<path d="M14.1603 12.0591C12.9639 12.0591 11.9906 13.0324 11.9906 14.2288C11.9906 15.4252 12.9639 16.3985 14.1603 16.3985C15.3566 16.3985 16.33 15.4252 16.33 14.2288C16.33 13.0324 15.3566 12.0591 14.1603 12.0591ZM14.1603 14.9727C13.7501 14.9727 13.4164 14.639 13.4164 14.2288C13.4164 13.8187 13.7501 13.4849 14.1603 13.4849C14.5704 13.4849 14.9041 13.8187 14.9041 14.2288C14.9041 14.639 14.5704 14.9727 14.1603 14.9727Z" fill="white"/>
</svg>
