<svg width="20" height="20" viewBox="0 0 20 20" fill="none" xmlns="http://www.w3.org/2000/svg">
<path d="M17.4767 6.7876H13.2108C12.3709 6.7876 11.6875 7.47104 11.6875 8.31085V17.0768C11.6875 17.9167 12.3709 18.6001 13.2108 18.6001H17.4767C18.3166 18.6001 19 17.9167 19 17.0768V8.31085C19 7.47104 18.3166 6.7876 17.4767 6.7876ZM17.875 17.0768C17.875 17.2968 17.6967 17.4751 17.4767 17.4751H13.2108C12.9908 17.4751 12.8125 17.2968 12.8125 17.0768V8.31085C12.8125 8.09091 12.9908 7.9126 13.2108 7.9126H17.4767C17.6967 7.9126 17.875 8.09091 17.875 8.31085V17.0768Z" fill="white"/>
<path d="M18.4375 14.6626H12.25C11.9389 14.6626 11.6875 14.9146 11.6875 15.2251C11.6875 15.5356 11.9389 15.7876 12.25 15.7876H18.4375C18.7486 15.7876 19 15.5356 19 15.2251C19 14.9146 18.7486 14.6626 18.4375 14.6626Z" fill="white"/>
<path d="M15.7431 15.9508C15.535 15.7426 15.1463 15.7426 14.9444 15.9508C14.8426 16.0576 14.7812 16.2039 14.7812 16.3501C14.7812 16.4964 14.8426 16.6426 14.9444 16.7495C15.0507 16.8508 15.1975 16.9126 15.3438 16.9126C15.49 16.9126 15.6362 16.8508 15.7431 16.7495C15.8444 16.6426 15.9062 16.4964 15.9062 16.3501C15.9062 16.2039 15.8444 16.0576 15.7431 15.9508Z" fill="white"/>
<path d="M17.2923 1.6001H2.69369C1.79144 1.6001 1 2.38479 1 3.27916V13.5341C1 14.4122 1.74362 15.1001 2.69369 15.1001H12.25C12.5611 15.1001 12.8125 14.8481 12.8125 14.5376C12.8125 14.2271 12.5611 13.9751 12.25 13.9751H2.69369C2.41975 13.9751 2.125 13.8063 2.125 13.5341V3.27916C2.125 2.9996 2.40681 2.7251 2.69369 2.7251H17.2923C17.5814 2.7251 17.875 3.00466 17.875 3.27916V8.9126C17.875 9.2231 18.1264 9.4751 18.4375 9.4751C18.7486 9.4751 19 9.2231 19 8.9126V3.27916C19 2.38479 18.2018 1.6001 17.2923 1.6001Z" fill="white"/>
<path d="M7.1875 13.9751C6.87644 13.9751 6.625 14.2271 6.625 14.5376V16.7876C6.625 17.0981 6.87644 17.3501 7.1875 17.3501C7.49856 17.3501 7.75 17.0981 7.75 16.7876V14.5376C7.75 14.2271 7.49856 13.9751 7.1875 13.9751Z" fill="white"/>
<path d="M12.25 16.2251H5.5C5.18894 16.2251 4.9375 16.4771 4.9375 16.7876C4.9375 17.0981 5.18894 17.3501 5.5 17.3501H12.25C12.5611 17.3501 12.8125 17.0981 12.8125 16.7876C12.8125 16.4771 12.5611 16.2251 12.25 16.2251Z" fill="white"/>
<path d="M12.25 11.7251H1.5625C1.25144 11.7251 1 11.9771 1 12.2876C1 12.5981 1.25144 12.8501 1.5625 12.8501H12.25C12.5611 12.8501 12.8125 12.5981 12.8125 12.2876C12.8125 11.9771 12.5611 11.7251 12.25 11.7251Z" fill="white"/>
<path d="M10 13.4126C9.68894 13.4126 9.4375 13.6646 9.4375 13.9751V14.5376C9.4375 14.8481 9.68894 15.1001 10 15.1001C10.3111 15.1001 10.5625 14.8481 10.5625 14.5376V13.9751C10.5625 13.6646 10.3111 13.4126 10 13.4126Z" fill="white"/>
</svg>
