<svg width="20" height="20" viewBox="0 0 20 20" fill="none" xmlns="http://www.w3.org/2000/svg">
<path fill-rule="evenodd" clip-rule="evenodd" d="M10 3.33341C6.31812 3.33341 3.33335 6.31819 3.33335 10.0001C3.33335 13.682 6.31812 16.6667 10 16.6667C13.6819 16.6667 16.6667 13.682 16.6667 10.0001C16.6667 6.31818 13.6819 3.33341 10 3.33341ZM1.66669 10.0001C1.66669 5.39771 5.39765 1.66675 10 1.66675C14.6024 1.66675 18.3334 5.39771 18.3334 10.0001C18.3334 14.6025 14.6024 18.3334 10 18.3334C5.39765 18.3334 1.66669 14.6025 1.66669 10.0001ZM8.22136 5.25172C8.45181 5.6501 8.31568 6.15987 7.91729 6.39033C6.6697 7.11202 5.83335 8.45887 5.83335 10.0001C5.83335 10.4603 5.46026 10.8334 5.00002 10.8334C4.53978 10.8334 4.16669 10.4603 4.16669 10.0001C4.16669 7.83987 5.34134 5.95501 7.08275 4.94765C7.48113 4.7172 7.9909 4.85333 8.22136 5.25172ZM10 9.16675C9.53976 9.16675 9.16669 9.53982 9.16669 10.0001C9.16669 10.4603 9.53976 10.8334 10 10.8334C10.4603 10.8334 10.8334 10.4603 10.8334 10.0001C10.8334 9.53982 10.4603 9.16675 10 9.16675ZM7.50002 10.0001C7.50002 8.61934 8.61928 7.50008 10 7.50008C11.3808 7.50008 12.5 8.61934 12.5 10.0001C12.5 11.3808 11.3808 12.5001 10 12.5001C8.61928 12.5001 7.50002 11.3808 7.50002 10.0001ZM15 9.00233C15.4603 9.00233 15.8334 9.37543 15.8334 9.83566C15.8334 11.9958 14.6587 13.8808 12.9173 14.8881C12.5189 15.1185 12.0091 14.9824 11.7787 14.584C11.5482 14.1856 11.6844 13.6759 12.0828 13.4454C13.3303 12.7237 14.1667 11.3768 14.1667 9.83566C14.1667 9.37543 14.5398 9.00233 15 9.00233Z" fill="white"/>
</svg>
