<svg width="20" height="20" viewBox="0 0 20 20" fill="none" xmlns="http://www.w3.org/2000/svg">
<path d="M17.7979 7.90907C17.6967 7.56955 17.1875 6.55096 17.1189 6.31264C16.7108 5.19286 16.7794 3.93596 16.8479 2.7117C16.8479 2.50929 16.8577 2 16.1362 2L10.6352 2.16976C10.2631 2.16976 9.98883 2.47664 9.98883 2.84882C10.0215 4.5791 9.98883 6.31264 9.92027 8.07884C9.92027 8.31716 9.61339 9.43694 9.44363 9.74382C8.86578 10.795 8.28793 11.8169 7.43912 12.6657C6.55765 13.5472 5.50316 14.0924 4.45193 14.1609C4.06017 14.1511 3.74023 14.1936 3.43335 14.2621C2.6531 14.4646 2.07525 15.1795 2.00669 15.9271C1.93813 16.7074 2.40172 17.4811 3.16239 17.7945C3.84144 18.0753 8.05288 17.9643 8.05288 17.9643C8.73193 17.9643 9.75051 17.9643 10.4981 17.3864C10.8376 17.1481 12.2056 15.0489 13.9554 13.6451L16.6096 17.6933C17.034 18.3169 17.8828 17.8859 17.8665 17.3211V9.80912C18.0657 9.25412 18.0363 8.62077 17.7979 7.90907ZM9.68195 16.3646C9.34242 16.6356 8.73193 16.6715 8.08552 16.6715C8.08552 16.6715 3.94264 16.6715 3.70432 16.5703C3.466 16.4691 3.33215 16.2307 3.33215 16.0283C3.3648 15.79 3.56721 15.5811 3.80879 15.519C4.17117 15.4244 4.48785 15.4505 4.5564 15.4505C5.91451 15.3493 7.27262 14.6702 8.3924 13.5831C9.37834 12.5972 10.0215 11.4447 10.6352 10.3576C10.8376 10.0181 11.2816 9.36512 11.2816 8.0821C11.2816 6.55423 11.3143 5.02636 11.3143 3.49849L15.3886 3.42667C15.356 4.5138 15.3886 5.70215 15.7967 6.82193C15.8979 7.0929 16.3745 8.14739 16.4758 8.38245C16.577 8.72198 16.6782 9.16271 16.5084 9.53815C13.5049 11.9932 9.81907 16.2275 9.68195 16.3646ZM14.9805 12.78C15.4898 12.349 16.0122 11.9181 16.5084 11.4741V15.1077L14.9805 12.78Z" fill="white"/>
</svg>
