<svg width="20" height="20" viewBox="0 0 20 20" fill="none" xmlns="http://www.w3.org/2000/svg">
<path d="M16.5996 16.2632L14.1506 8.07363L15.9857 2.88492C16.087 2.6792 16.1425 2.12735 15.3718 2H12.0705C11.695 2 11.3881 2.30695 11.3881 2.68247C11.3881 3.43024 10.7742 4.04414 10.0264 4.04414C9.27862 4.04414 8.66473 3.43024 8.66473 2.68247C8.66473 2.30695 8.35778 2 7.98226 2H4.68421C3.95603 2.08163 3.96909 2.68247 4.03766 2.88492L5.88914 8.12588C5.88914 8.12588 3.43683 16.3449 3.43357 16.3841C3.35193 16.6355 3.4205 16.9326 3.62622 17.1155C4.54053 17.9253 6.3267 18.4608 8.01818 17.4388C8.83453 17.9449 10.4933 18.3923 11.966 17.4388C13.8861 18.5947 15.7866 17.6739 16.358 17.1155C16.4853 16.9882 16.7041 16.5539 16.5996 16.2632ZM7.4402 3.32902C7.71123 4.48496 8.80187 5.33723 10.0264 5.33723C11.2509 5.33723 12.3089 4.48496 12.6126 3.32902H14.3824L12.8869 7.58382H7.1006L5.67036 3.32902H7.4402ZM12.4134 16.0934C12.2893 15.9824 11.9007 15.7996 11.5285 16.0934C10.637 16.7955 9.31128 16.8477 8.46554 16.0934C8.11941 15.7832 7.7047 15.9824 7.58062 16.0934C6.82304 16.7596 5.66383 16.8314 4.81809 16.3155L7.0353 8.90957H12.9587L15.1759 16.3155C14.3269 16.8347 13.1677 16.7596 12.4134 16.0934Z" fill="white"/>
</svg>
