<svg width="20" height="20" viewBox="0 0 20 20" fill="none" xmlns="http://www.w3.org/2000/svg">
<path fill-rule="evenodd" clip-rule="evenodd" d="M8.371 4.1404C9.11056 5.09775 9.82145 6.12756 10.4909 7.22116C11.876 6.68647 13.0067 6.01603 13.8239 5.27256C12.7789 4.42611 11.4491 3.9199 10 3.9199C9.43513 3.9199 8.88896 3.99675 8.371 4.1404ZM14.8773 6.36897C15.5183 7.22828 15.937 8.26199 16.0495 9.3865C15.4444 9.29025 14.8192 9.2399 14.18 9.2399C13.3477 9.2399 12.5391 9.32529 11.7679 9.48618C11.6063 9.17375 11.4389 8.86138 11.2657 8.54941C12.6942 7.97334 13.9321 7.23767 14.8773 6.36897ZM9.00745 7.71266C8.34641 6.65753 7.64674 5.66884 6.92205 4.75529C5.55232 5.56103 4.52676 6.88757 4.11637 8.46088C5.88123 8.3903 7.53689 8.12628 9.00745 7.71266ZM2.44638 9.15638C2.74401 6.46406 4.44601 4.19842 6.80081 3.10425L7.09578 3.73908L6.80081 3.10425C7.77414 2.65199 8.85871 2.3999 10 2.3999C12.1431 2.3999 14.0801 3.28793 15.4608 4.71404L15.4608 4.71407C16.7843 6.08112 17.6 7.94602 17.6 9.9999C17.6 10.1192 17.5972 10.2377 17.5919 10.3554L17.5918 10.3557C17.4702 12.9896 16.0086 15.2716 13.8766 16.5381C12.741 17.2128 11.4146 17.5999 10 17.5999C8.17258 17.5999 6.49398 16.9539 5.18305 15.8786C3.4853 14.4861 2.40002 12.3694 2.40002 9.9999C2.40002 9.71507 2.41573 9.43358 2.44638 9.1564M13.9164 14.6508C15.0182 13.7221 15.7844 12.41 16.0107 10.9215C15.4236 10.8159 14.8108 10.7599 14.18 10.7599C13.5888 10.7599 13.0134 10.8091 12.4601 10.9022C13.0424 12.1652 13.5284 13.422 13.9164 14.6508ZM10.9584 11.2784C11.634 12.7108 12.1777 14.1311 12.5884 15.5032C11.8036 15.8731 10.9268 16.0799 10 16.0799C8.72548 16.0799 7.54391 15.6884 6.567 15.0187C7.24435 13.3874 8.82904 11.9979 10.9584 11.2784ZM5.3837 13.9569C6.31771 12.1258 8.09963 10.6916 10.2732 9.90805C10.124 9.62571 9.96964 9.34339 9.81029 9.06137C8.04784 9.59767 6.04613 9.92527 3.92003 9.98864C3.92003 9.99239 3.92002 9.99615 3.92002 9.9999C3.92002 11.511 4.47068 12.893 5.3837 13.9569Z" fill="white"/>
</svg>
