<svg width="20" height="20" viewBox="0 0 20 20" fill="none" xmlns="http://www.w3.org/2000/svg">
<path fill-rule="evenodd" clip-rule="evenodd" d="M13.718 1.85437C13.8444 2.2969 13.5882 2.75814 13.1456 2.88457L10.8334 3.54522V4.99997H14.5725C14.5791 4.99989 14.5857 4.99989 14.5923 4.99997H15.8334C16.2936 4.99997 16.6667 5.37307 16.6667 5.8333C16.6667 6.29354 16.2936 6.66664 15.8334 6.66664H15.3404L14.436 16.0725C14.436 16.0725 14.436 16.0726 14.436 16.0725C14.3127 17.3547 13.2355 18.3333 11.9475 18.3333H8.0526C6.76456 18.3333 5.68736 17.3547 5.56408 16.0726L4.65966 6.66664H4.16671C3.70647 6.66664 3.33337 6.29354 3.33337 5.8333C3.33337 5.37307 3.70647 4.99997 4.16671 4.99997H5.40779C5.41441 4.99989 5.42101 4.99989 5.4276 4.99997H9.16671V2.91664C9.16671 2.54457 9.41335 2.21758 9.77111 2.11537L12.6878 1.28203C13.1303 1.1556 13.5915 1.41184 13.718 1.85437ZM6.33401 6.66664L7.22309 15.913C7.26419 16.3404 7.62327 16.6666 8.0526 16.6666H11.9475C12.3768 16.6666 12.7359 16.3404 12.7769 15.9131L13.6661 6.66664H6.33401Z" fill="white"/>
</svg>
