<svg width="34" height="34" viewBox="0 0 34 34" fill="none" xmlns="http://www.w3.org/2000/svg">
<path fill-rule="evenodd" clip-rule="evenodd" d="M26.8595 16.32H20.7395C20.364 16.32 20.0595 16.6245 20.0595 17V27.2C20.0595 27.5756 20.364 27.88 20.7395 27.88H26.8595C27.2351 27.88 27.5395 27.5756 27.5395 27.2V17C27.5395 16.6245 27.2351 16.32 26.8595 16.32ZM20.7395 14.28C19.2373 14.28 18.0195 15.4978 18.0195 17V27.2C18.0195 28.7022 19.2373 29.92 20.7395 29.92H26.8595C28.3617 29.92 29.5795 28.7022 29.5795 27.2V17C29.5795 15.4978 28.3617 14.28 26.8595 14.28H20.7395Z" fill="white"/>
<path fill-rule="evenodd" clip-rule="evenodd" d="M26.8595 6.45992H20.7395C20.364 6.45992 20.0595 6.76437 20.0595 7.13992V9.85992C20.0595 10.2355 20.364 10.5399 20.7395 10.5399H26.8595C27.2351 10.5399 27.5395 10.2355 27.5395 9.85992V7.13992C27.5395 6.76437 27.2351 6.45992 26.8595 6.45992ZM20.7395 4.41992C19.2373 4.41992 18.0195 5.63771 18.0195 7.13992V9.85992C18.0195 11.3621 19.2373 12.5799 20.7395 12.5799H26.8595C28.3617 12.5799 29.5795 11.3621 29.5795 9.85992V7.13992C29.5795 5.63771 28.3617 4.41992 26.8595 4.41992H20.7395Z" fill="white"/>
<path fill-rule="evenodd" clip-rule="evenodd" d="M13.2599 18.0201H7.13992C6.76437 18.0201 6.45992 17.7156 6.45992 17.3401V7.14006C6.45992 6.76451 6.76437 6.46006 7.13992 6.46006H13.2599C13.6355 6.46006 13.9399 6.76451 13.9399 7.14006V17.3401C13.9399 17.7156 13.6355 18.0201 13.2599 18.0201ZM7.13992 20.0601C5.63771 20.0601 4.41992 18.8423 4.41992 17.3401V7.14006C4.41992 5.63784 5.63771 4.42006 7.13992 4.42006H13.2599C14.7621 4.42006 15.9799 5.63784 15.9799 7.14006V17.3401C15.9799 18.8423 14.7621 20.0601 13.2599 20.0601H7.13992Z" fill="white"/>
<path fill-rule="evenodd" clip-rule="evenodd" d="M13.2599 27.8799H7.13992C6.76437 27.8799 6.45992 27.5755 6.45992 27.1999V24.4799C6.45992 24.1044 6.76437 23.7999 7.13992 23.7999H13.2599C13.6355 23.7999 13.9399 24.1044 13.9399 24.4799V27.1999C13.9399 27.5755 13.6355 27.8799 13.2599 27.8799ZM7.13992 29.9199C5.63771 29.9199 4.41992 28.7021 4.41992 27.1999V24.4799C4.41992 22.9777 5.63771 21.7599 7.13992 21.7599H13.2599C14.7621 21.7599 15.9799 22.9777 15.9799 24.4799V27.1999C15.9799 28.7021 14.7621 29.9199 13.2599 29.9199H7.13992Z" fill="white"/>
</svg>
