<svg width="20" height="20" viewBox="0 0 20 20" fill="none" xmlns="http://www.w3.org/2000/svg">
<path fill-rule="evenodd" clip-rule="evenodd" d="M16.1625 3.83747C15.7564 3.43131 15.0978 3.43131 14.6917 3.83747L12.2557 6.27347L5.50218 4.5812C5.47334 4.57397 5.44281 4.58232 5.42165 4.60322L5.21301 4.80934C5.17463 4.84725 5.18073 4.91085 5.22561 4.94077L10.2433 8.2859L5.95143 12.5778H3.85774C3.83523 12.5778 3.81352 12.5867 3.79749 12.6028L3.55799 12.8422L3.55793 12.8423C3.51827 12.882 3.52716 12.9485 3.57592 12.9765L3.57597 12.9765L5.76991 14.2301L7.02359 16.4241L7.02362 16.4242C7.05153 16.4729 7.11811 16.4817 7.15774 16.4421L7.1578 16.442L7.39738 16.2025C7.41327 16.1866 7.42229 16.1649 7.42229 16.1423V14.0486L11.7142 9.75675L15.0593 14.7745C15.0892 14.8194 15.1528 14.8254 15.1906 14.7871L15.1907 14.787L15.3968 14.5785C15.4177 14.5573 15.4261 14.5267 15.4188 14.498L13.7266 7.74433L16.1625 5.30834C16.5687 4.90217 16.5687 4.24364 16.1625 3.83747ZM13.6078 2.7536C14.6126 1.7488 16.2417 1.7488 17.2464 2.7536C18.2512 3.75838 18.2512 5.38743 17.2464 6.39221L15.4245 8.21414L16.9057 14.1254C17.0431 14.6737 16.8844 15.2538 16.4872 15.6558L16.4871 15.6559L16.2812 15.8643L16.2811 15.8644C15.5606 16.5937 14.3524 16.4775 13.7839 15.6248L11.4759 12.1628L8.95514 14.6836V16.1423C8.95514 16.5714 8.78469 16.983 8.48119 17.2865L8.24169 17.5259L8.24163 17.526C7.48717 18.2805 6.22203 18.1108 5.69276 17.1847L5.69273 17.1847L4.64643 15.3536L2.81537 14.3073C1.88914 13.7779 1.71968 12.5128 2.47404 11.7584L2.4741 11.7583L2.71368 11.5188C3.01704 11.2155 3.42855 11.0449 3.85774 11.0449H5.3165L7.83728 8.52414L4.37535 6.21618C3.52245 5.64759 3.40651 4.43928 4.13573 3.71889L4.34436 3.51277C4.7464 3.11558 5.32656 2.95695 5.87477 3.09432L11.7859 4.5755L13.6078 2.7536Z" fill="white"/>
</svg>
