<svg width="20" height="20" viewBox="0 0 20 20" fill="none" xmlns="http://www.w3.org/2000/svg">
<path d="M17.2433 7.85181H2.75674C2.26902 7.85181 1.8006 8.05829 1.47161 8.41829C1.14196 8.77904 0.978107 9.26532 1.02203 9.75244C1.14648 11.1317 1.69328 12.4595 2.60335 13.5923C3.36703 14.5429 4.37116 15.3376 5.52876 15.9111C5.66981 16.731 6.38591 17.3568 7.24544 17.3568H12.7547C13.6142 17.3568 14.3303 16.731 14.4713 15.9111C15.6289 15.3375 16.6331 14.5429 17.3968 13.5923C18.3068 12.4595 18.8536 11.1317 18.978 9.75244C19.022 9.26532 18.8581 8.77904 18.5285 8.41829C18.1995 8.05829 17.731 7.85181 17.2433 7.85181ZM13.2131 15.3719V15.615C13.2131 15.8681 13.0078 16.0734 12.7547 16.0734H7.24544C6.99227 16.0734 6.78705 15.8681 6.78705 15.615V15.3719C6.78705 15.1878 6.67659 15.0224 6.50743 14.9499C4.91497 14.2671 3.64077 13.1319 2.92191 11.7449H17.0782C16.3593 13.1319 15.0851 14.2671 13.4926 14.9499C13.3235 15.0224 13.2131 15.1878 13.2131 15.3719ZM2.43794 10.4614C2.37206 10.1923 2.32559 9.91725 2.30033 9.63715C2.27603 9.36793 2.48638 9.13529 2.75674 9.13529H17.2434C17.5137 9.13529 17.7241 9.36793 17.6997 9.63715C17.6745 9.91725 17.628 10.1923 17.5622 10.4614H2.43794Z" fill="white"/>
<path d="M12.7546 17.3717H7.2454C6.39005 17.3717 5.66367 16.762 5.51528 15.9211C4.36134 15.3481 3.35052 14.5462 2.59166 13.6016C1.67974 12.4664 1.1318 11.1359 1.00708 9.75366C0.962767 9.26235 1.12803 8.77187 1.46052 8.40804C1.79233 8.04492 2.26477 7.83667 2.75671 7.83667H17.2433C17.7352 7.83667 18.2076 8.04492 18.5395 8.40804C18.872 8.77187 19.0372 9.26232 18.9929 9.75366C18.8683 11.1358 18.3204 12.4664 17.4084 13.6016C16.6496 14.5461 15.6388 15.3481 14.4848 15.9211C14.3364 16.762 13.61 17.3717 12.7546 17.3717ZM2.75671 7.86666C2.27319 7.86666 1.80881 8.07138 1.48266 8.42829C1.15583 8.78592 0.993356 9.26801 1.03692 9.75099C1.1611 11.1273 1.70679 12.4523 2.61497 13.5828C3.3726 14.5259 4.38246 15.3264 5.53535 15.8976L5.54218 15.901L5.54347 15.9085C5.68635 16.739 6.40209 17.3417 7.24537 17.3417H12.7546C13.5979 17.3417 14.3137 16.739 14.4565 15.9085L14.4578 15.901L14.4647 15.8976C15.6176 15.3263 16.6274 14.5259 17.3851 13.5828C18.2933 12.4523 18.8389 11.1272 18.9631 9.75099C19.0066 9.26804 18.8442 8.78592 18.5174 8.42829C18.1912 8.07138 17.7268 7.86666 17.2433 7.86666H2.75671ZM12.7546 16.0882H7.2454C6.98439 16.0882 6.77204 15.8759 6.77204 15.6148V15.3717C6.77204 15.1942 6.66586 15.034 6.5015 14.9635C4.90277 14.278 3.62678 13.1374 2.90858 11.7517L2.89725 11.7298H17.1028L17.0915 11.7517C16.3732 13.1374 15.0972 14.278 13.4985 14.9635C13.3342 15.034 13.228 15.1942 13.228 15.3717V15.6148C13.228 15.8759 13.0157 16.0882 12.7546 16.0882ZM2.94657 11.7597C3.66366 13.1294 4.92938 14.2569 6.5133 14.936C6.68869 15.0112 6.802 15.1822 6.802 15.3717V15.6148C6.802 15.8594 7.0009 16.0583 7.2454 16.0583H12.7546C12.9991 16.0583 13.1981 15.8594 13.1981 15.6148V15.3717C13.1981 15.1822 13.3114 15.0112 13.4867 14.936C15.0706 14.2569 16.3363 13.1294 17.0535 11.7597H2.94657ZM17.5739 10.4762H2.42616L2.42335 10.4648C2.35671 10.1928 2.31031 9.91469 2.28538 9.63837C2.27337 9.50517 2.31804 9.37233 2.40798 9.27391C2.49855 9.17477 2.6224 9.12019 2.75671 9.12019H17.2434C17.3777 9.12019 17.5015 9.17477 17.5921 9.27391C17.682 9.37233 17.7267 9.50517 17.7146 9.63837C17.6898 9.91451 17.6434 10.1926 17.5767 10.4648L17.5739 10.4762ZM2.44968 10.4463H17.5504C17.6152 10.1792 17.6604 9.90649 17.6848 9.63568C17.6961 9.51083 17.6542 9.38635 17.57 9.29413C17.4851 9.20126 17.3691 9.15015 17.2434 9.15015H2.75671C2.63094 9.15015 2.51493 9.20129 2.43009 9.29413C2.34584 9.38635 2.30396 9.51083 2.31522 9.63568C2.33967 9.90663 2.38491 10.1793 2.44968 10.4463Z" fill="white"/>
<path d="M6.08528 4.98525C5.84707 4.73733 5.41505 4.44181 4.7097 4.44181C4.31618 4.44181 4.02625 4.30998 3.8233 4.03882C3.63087 3.78167 3.56262 3.45678 3.56262 3.25674C3.56262 2.90345 3.2771 2.61683 2.9242 2.615C2.566 2.61317 2.27629 2.91694 2.2792 3.27511C2.28354 3.80884 2.47591 4.38048 2.79571 4.8078C3.10894 5.22637 3.69525 5.72529 4.70973 5.72529C5.01361 5.72529 5.12138 5.83528 5.15679 5.87141C5.23729 5.95353 5.29931 6.10252 5.34239 6.24872C5.39944 6.44239 5.57908 6.57406 5.78101 6.57406H6.16042C6.45772 6.57406 6.67705 6.29534 6.60575 6.00671C6.52342 5.6734 6.36969 5.28123 6.08528 4.98525Z" fill="white"/>
<path d="M6.16042 6.58912H5.781C5.57257 6.58912 5.38631 6.45091 5.32804 6.25303C5.29239 6.13205 5.23187 5.96949 5.14609 5.88197C5.11173 5.84692 5.00723 5.74035 4.70972 5.74035C3.68902 5.74035 3.09896 5.23813 2.78369 4.81687C2.46276 4.38799 2.26853 3.81168 2.26418 3.27531C2.26274 3.09704 2.33444 2.92169 2.46087 2.79424C2.58505 2.66904 2.74845 2.6001 2.92099 2.6001H2.92426C3.2845 2.60196 3.57757 2.89655 3.57757 3.25682C3.57757 3.45462 3.64507 3.77576 3.83528 4.02994C4.03521 4.29706 4.32123 4.42691 4.70969 4.42691C5.42038 4.42691 5.85587 4.72492 6.09606 4.97494C6.33742 5.22609 6.51376 5.57207 6.62027 6.00319C6.6553 6.14493 6.62369 6.29225 6.53354 6.40735C6.44312 6.52288 6.3071 6.58912 6.16042 6.58912ZM2.92102 2.63003C2.75654 2.63003 2.60069 2.69585 2.48217 2.81533C2.36131 2.93715 2.29279 3.10474 2.29417 3.27507C2.29849 3.8053 2.49044 4.37496 2.80772 4.79889C3.11888 5.2147 3.70145 5.71039 4.70975 5.71039C5.01984 5.71039 5.13099 5.82373 5.16748 5.86097C5.2576 5.95292 5.32019 6.12034 5.3568 6.24455C5.41136 6.42979 5.58581 6.55916 5.78103 6.55916H6.16045C6.29784 6.55916 6.42526 6.49711 6.50999 6.3889C6.59439 6.28107 6.62402 6.14314 6.59121 6.01041C6.48599 5.58444 6.31216 5.24305 6.07449 4.9957C5.83832 4.74988 5.40983 4.45687 4.70969 4.45687C4.31114 4.45687 4.01729 4.3231 3.81128 4.04788C3.61666 3.7878 3.54761 3.4592 3.54761 3.25682C3.54761 2.913 3.2679 2.63183 2.92411 2.63006L2.92102 2.63003Z" fill="white"/>
<path d="M10.6123 4.98525C10.3741 4.73733 9.94205 4.44181 9.23671 4.44181C8.84318 4.44181 8.55323 4.30998 8.35031 4.03882C8.15788 3.78167 8.0896 3.45678 8.0896 3.25674C8.0896 2.90345 7.80408 2.61683 7.45118 2.615C7.09298 2.61317 6.8033 2.91694 6.80617 3.27511C6.81052 3.80884 7.00289 4.38048 7.32268 4.8078C7.63591 5.22634 8.2222 5.72529 9.23668 5.72529C9.54056 5.72529 9.64833 5.83528 9.68374 5.87141C9.76424 5.95353 9.82626 6.10252 9.86934 6.24872C9.92642 6.44239 10.1061 6.57406 10.308 6.57406H10.6874C10.9846 6.57406 11.204 6.29534 11.1327 6.00671C11.0504 5.6734 10.8967 5.28123 10.6123 4.98525Z" fill="white"/>
<path d="M10.6874 6.58915H10.308C10.0996 6.58915 9.91332 6.45094 9.85499 6.25306C9.81933 6.13211 9.75885 5.96955 9.67304 5.882C9.63871 5.84698 9.53424 5.74038 9.23667 5.74038C8.21606 5.74038 7.62596 5.23816 7.31066 4.8169C6.98973 4.38802 6.7955 3.81171 6.79116 3.27534C6.78972 3.09707 6.86142 2.92172 6.98785 2.79424C7.11203 2.66904 7.27543 2.6001 7.44794 2.6001H7.45121C7.81145 2.60196 8.10451 2.89655 8.10451 3.25682C8.10451 3.45459 8.17201 3.77573 8.36223 4.02994C8.56215 4.29706 8.84818 4.42691 9.23664 4.42691C9.94729 4.42691 10.3828 4.72492 10.623 4.97494C10.8644 5.22609 11.0407 5.57204 11.1472 6.00319C11.1822 6.1449 11.1506 6.29222 11.0605 6.40732C10.9701 6.52291 10.8341 6.58915 10.6874 6.58915ZM7.44797 2.63006C7.28349 2.63006 7.12764 2.69585 7.00915 2.81536C6.88829 2.93718 6.81977 3.10474 6.82115 3.2751C6.82546 3.80533 7.01742 4.37499 7.33469 4.79892C7.64589 5.21474 8.22846 5.71042 9.2367 5.71042C9.54685 5.71042 9.65797 5.82379 9.69446 5.86103C9.78458 5.95298 9.84714 6.12037 9.88375 6.24461C9.93833 6.42985 10.1128 6.55919 10.308 6.55919H10.6874C10.8249 6.55919 10.9522 6.49711 11.037 6.3889C11.1214 6.2811 11.151 6.14314 11.1182 6.01044C11.013 5.58447 10.8391 5.24308 10.6015 4.99573C10.3653 4.74991 9.93681 4.4569 9.2367 4.4569C8.83814 4.4569 8.54427 4.32313 8.33829 4.04791C8.14367 3.78783 8.07461 3.45923 8.07461 3.25685C8.07461 2.91303 7.79491 2.63186 7.45112 2.63009L7.44797 2.63006Z" fill="white"/>
</svg>
