<svg width="20" height="20" viewBox="0 0 20 20" fill="none" xmlns="http://www.w3.org/2000/svg">
<path d="M17.1036 4.47811C16.6447 3.88686 16.1105 3.35564 15.5199 2.8938C13.995 1.70727 12.0782 1 9.99884 1C5.03784 1 1 5.03523 1 9.99884C1 11.6318 1.43882 13.1669 2.20227 14.4878C2.99427 15.8579 4.13977 17.0031 5.50991 17.7951C6.83077 18.5586 8.36559 18.9974 9.99881 18.9974C14.9624 18.9974 19 14.9598 19 9.99884C19 7.91917 18.2931 6.00238 17.1036 4.47811ZM9.99972 17.418C5.90212 17.418 2.58024 14.0958 2.58024 9.99828C2.58024 5.90039 5.90212 2.57852 9.99972 2.57852C14.0982 2.57852 17.4201 5.90043 17.4201 9.99828C17.4201 14.0958 14.0982 17.418 9.99972 17.418Z" fill="white"/>
<path d="M9.29163 11.3906C9.23946 11.3693 9.17945 11.381 9.13951 11.4209L6.31326 14.2468C6.19556 14.3649 6.13671 14.5292 6.15274 14.695C6.16877 14.8608 6.26201 14.9768 6.39634 15.1038C6.39634 15.1038 6.82932 15.5575 7.45757 15.8183C8.08612 16.0783 8.71289 16.0634 8.71289 16.0634C8.8866 16.0637 9.04568 16.0529 9.17446 15.9468C9.30327 15.841 9.37787 15.6828 9.37787 15.5161L9.37759 11.5197C9.37759 11.4632 9.34377 11.4122 9.29163 11.3906Z" fill="white"/>
<path d="M10.7087 8.60581C10.7605 8.62739 10.8206 8.61572 10.8605 8.57579L13.6867 5.74954C13.8045 5.63184 13.8633 5.46748 13.8479 5.30165C13.8316 5.13585 13.7381 5.01959 13.6037 4.89282C13.6037 4.89282 13.1712 4.43881 12.5427 4.17862C11.9142 3.91839 11.2874 3.93326 11.2874 3.93326C11.1137 3.9327 10.9543 3.94402 10.8258 4.05012C10.6973 4.15591 10.6227 4.31414 10.6227 4.4805V8.47728C10.6227 8.53353 10.6568 8.58454 10.7087 8.60581Z" fill="white"/>
<path d="M8.6077 10.5823C8.58611 10.5304 8.53542 10.4966 8.47892 10.4966H4.48211C4.31516 10.4966 4.15748 10.5706 4.05173 10.6994C3.9457 10.8282 3.92967 10.9762 3.93463 11.1612C3.93463 11.1612 3.91976 11.7878 4.17995 12.4163C4.44045 13.0448 4.89446 13.4775 4.89446 13.4775C5.01684 13.6002 5.13718 13.7054 5.30329 13.7214C5.46881 13.7375 5.63341 13.6783 5.75087 13.5606L8.57768 10.7343C8.6173 10.6948 8.62925 10.6347 8.6077 10.5823Z" fill="white"/>
<path d="M11.3926 9.51359C11.4142 9.56544 11.4652 9.59951 11.5214 9.59951H15.5179C15.6849 9.59951 15.8431 9.52491 15.9486 9.39645C16.0544 9.26764 16.0704 9.11959 16.0655 8.93457C16.0655 8.93457 16.0803 8.30808 15.8201 7.67956C15.5596 7.051 15.1059 6.61858 15.1059 6.61858C14.9835 6.4956 14.8629 6.39069 14.6971 6.37466C14.5313 6.35863 14.3669 6.41752 14.2486 6.53522L11.4227 9.36175C11.3827 9.40109 11.3708 9.46114 11.3926 9.51359Z" fill="white"/>
<path d="M4.05178 9.39646C4.15785 9.52492 4.31524 9.59952 4.48216 9.59952H8.47894C8.53543 9.59952 8.58616 9.56545 8.60771 9.5136C8.62955 9.46115 8.61763 9.4011 8.57741 9.36148L5.7512 6.53523C5.63346 6.41721 5.4691 6.35864 5.30331 6.37467C5.13719 6.39042 5.0215 6.48394 4.89448 6.61827C4.89448 6.61827 4.44047 7.05097 4.18024 7.67953C3.91973 8.30806 3.9346 8.93454 3.9346 8.93454C3.93464 9.10853 3.94571 9.26765 4.05178 9.39646Z" fill="white"/>
<path d="M15.9486 10.6997C15.8428 10.5706 15.6849 10.4966 15.5179 10.4966H11.5211C11.4652 10.4966 11.4142 10.5304 11.3923 10.5825C11.3708 10.6347 11.3827 10.6948 11.4226 10.7343L14.2485 13.5606C14.3666 13.6783 14.5309 13.7375 14.6967 13.7214C14.8628 13.7054 14.9788 13.6116 15.1058 13.4773C15.1058 13.4773 15.5595 13.0448 15.82 12.4163C16.0803 11.7878 16.0654 11.1612 16.0654 11.1612C16.0654 10.9876 16.0544 10.8282 15.9486 10.6997Z" fill="white"/>
<path d="M9.13946 8.57541C9.1794 8.61535 9.23941 8.6273 9.29158 8.60572C9.34375 8.58413 9.37754 8.53287 9.37754 8.47694V4.48048C9.37782 4.31349 9.30294 4.15585 9.17441 4.04978C9.04563 3.94344 8.89815 3.928 8.71284 3.93292C8.71284 3.93292 8.08607 3.91805 7.45752 4.17828C6.82927 4.43851 6.39629 4.8922 6.39629 4.8922C6.27331 5.01486 6.16869 5.1352 6.15269 5.30131C6.13638 5.46739 6.19551 5.63175 6.31321 5.74945L9.13946 8.57541Z" fill="white"/>
<path d="M10.8605 11.4206C10.8206 11.3812 10.7605 11.3693 10.7087 11.3905C10.6568 11.4121 10.6227 11.4631 10.6227 11.5196V15.5164C10.6227 15.6828 10.6973 15.841 10.8258 15.9468C10.9543 16.0528 11.1024 16.0689 11.2874 16.0636C11.2874 16.0636 11.9142 16.0782 12.5427 15.8183C13.1712 15.5575 13.6037 15.1041 13.6037 15.1041C13.7267 14.9814 13.8315 14.8608 13.8479 14.695C13.8633 14.5292 13.8045 14.3651 13.6867 14.2468L10.8605 11.4206Z" fill="white"/>
</svg>
