<svg width="34" height="34" viewBox="0 0 34 34" fill="none" xmlns="http://www.w3.org/2000/svg">
<g clip-path="url(#clip0_2299_599)">
<path d="M22.19 8.57944C24.5202 5.50779 24.4143 2.33022 24.4143 2.11838C24.4143 1.58879 23.8847 1.16511 23.3551 1.05919C23.2492 1.05919 21.3426 1.16511 19.542 3.07165C19.1183 2.01246 18.4828 1.16511 17.7414 0.317757C17.3177 -0.105919 16.6822 -0.105919 16.2585 0.317757C15.5171 1.16511 14.8816 2.11838 14.4579 3.07165C12.6573 1.16511 10.8567 1.16511 10.7507 1.16511C10.1152 1.16511 9.69156 1.58878 9.69156 2.2243C9.69156 2.33022 9.58564 5.50779 11.9159 8.57944C7.99685 10.2741 5.34888 14.1931 5.34888 18.7477V22.7726C5.34888 27.9626 8.8442 32.3053 13.7165 33.5763C13.8224 33.5763 13.9283 33.6822 14.0342 33.6822C14.8816 33.8941 15.7289 34 16.5763 34H17.4236C23.6729 34 28.6511 29.0218 28.6511 22.7726V18.7477C28.6511 14.2991 26.0031 10.3801 22.19 8.57944ZM20.1775 6.1433C20.1775 6.03738 20.1775 5.93146 20.1775 5.82555C20.8131 4.76636 21.5545 4.02492 22.19 3.70717C21.9782 4.76636 21.4486 6.35514 20.0716 7.83801H19.9657C20.0716 7.30841 20.1775 6.77882 20.1775 6.1433ZM20.4953 10.1682C21.8722 10.6978 23.1433 11.5452 24.2025 12.6044L21.7663 15.0405L18.6947 11.9688L20.4953 10.1682ZM17.2118 13.4517L20.2835 16.5234L17.2118 19.595L14.1402 16.5234L17.2118 13.4517ZM16.3645 9.63863C16.4704 9.63863 16.4704 9.63863 16.5763 9.63863H17.4236C17.6355 9.63863 17.7414 9.63863 17.9532 9.63863L17.2118 10.3801L16.3645 9.63863ZM15.7289 21.0779L12.975 23.8318L9.90339 20.7601L12.6573 18.0062L15.7289 21.0779ZM17.2118 22.5607L19.9657 25.3146L17.2118 28.0685L14.4579 25.3146L17.2118 22.5607ZM18.6947 21.0779L21.7663 18.0062L24.5202 20.7601L21.4486 23.8318L18.6947 21.0779ZM17 2.85981C17.6355 3.81308 18.0592 4.97819 18.0592 6.24922C18.0592 6.6729 17.9532 7.20249 17.8473 7.62617C17.7414 7.62617 17.6355 7.62617 17.4236 7.62617H16.5763C16.4704 7.62617 16.3645 7.62617 16.1526 7.62617C16.0467 7.09657 15.9408 6.6729 15.9408 6.1433C15.9408 4.97819 16.3645 3.81308 17 2.85981ZM13.8224 5.71963C13.8224 5.82555 13.8224 6.03738 13.8224 6.1433C13.8224 6.6729 13.9283 7.20249 14.0342 7.83801C12.7632 6.35514 12.1277 4.76636 11.9159 3.70717C12.4454 4.02492 13.1869 4.66044 13.8224 5.71963ZM13.8224 10.0623L15.7289 11.9688L12.6573 15.0405L10.1152 12.4984C11.0685 11.3333 12.3395 10.486 13.8224 10.0623ZM8.73828 14.1931L11.0685 16.5234L8.31461 19.2773L7.46726 18.4299C7.57318 16.8411 7.99685 15.3583 8.73828 14.1931ZM7.46726 23.0903L8.31461 22.243L11.3863 25.3146L8.95012 27.7508C7.99685 26.3738 7.46726 24.785 7.46726 23.0903ZM13.8224 31.4579C12.5514 31.0343 11.3863 30.2928 10.3271 29.4455L12.8691 26.9034L15.623 29.6573L13.8224 31.4579ZM17.4236 31.8816H16.5763H16.4704L17.2118 31.1402L17.9532 31.8816C17.7414 31.8816 17.6355 31.8816 17.4236 31.8816ZM20.4953 31.352C20.3894 31.352 20.2835 31.2461 20.2835 31.1402L18.6947 29.5514L21.4486 26.7975L23.8847 29.2336C22.9314 30.1869 21.7663 30.9283 20.4953 31.352ZM25.1557 27.6449L22.9314 25.4206L26.0031 22.3489L26.5327 22.8785C26.5327 24.5732 26.0031 26.162 25.1557 27.6449ZM26.0031 19.2773L23.2492 16.5234L25.3676 14.405C26.109 15.676 26.5327 17.1589 26.5327 18.7477L26.0031 19.2773Z" fill="white"/>
</g>
<defs>
<clipPath id="clip0_2299_599">
<rect width="34" height="34" fill="white"/>
</clipPath>
</defs>
</svg>
