<svg width="20" height="20" viewBox="0 0 20 20" fill="none" xmlns="http://www.w3.org/2000/svg">
<g clip-path="url(#clip0_498_521)">
<path d="M10 1.875C10.3452 1.875 10.625 2.15482 10.625 2.5V5.625H13.75C17.1433 5.625 19.905 8.32917 19.9976 11.7001L20 11.875C20 15.2683 17.2958 18.03 13.9249 18.1226L13.75 18.125H6.25C2.79822 18.125 0 15.3268 0 11.875C0 8.48173 2.70417 5.72004 6.07506 5.6274L6.25 5.625H9.375V2.5C9.375 2.15482 9.65482 1.875 10 1.875ZM13.75 6.875H6.25C3.48858 6.875 1.25 9.11358 1.25 11.875C1.25 14.5843 3.4049 16.7903 6.09426 16.8726L6.25 16.875H13.75C16.5114 16.875 18.75 14.6364 18.75 11.875C18.75 9.11358 16.5114 6.875 13.75 6.875ZM6.25 9.375C6.59518 9.375 6.875 9.65482 6.875 10V11.25H8.125C8.47018 11.25 8.75 11.5298 8.75 11.875C8.75 12.2202 8.47018 12.5 8.125 12.5H6.875V13.75C6.875 14.0952 6.59518 14.375 6.25 14.375C5.90482 14.375 5.625 14.0952 5.625 13.75V12.5H4.375C4.02982 12.5 3.75 12.2202 3.75 11.875C3.75 11.5298 4.02982 11.25 4.375 11.25H5.625V10C5.625 9.65482 5.90482 9.375 6.25 9.375ZM15.3125 12.5C15.8303 12.5 16.25 12.9197 16.25 13.4375C16.25 13.9553 15.8303 14.375 15.3125 14.375C14.7947 14.375 14.375 13.9553 14.375 13.4375C14.375 12.9197 14.7947 12.5 15.3125 12.5ZM14.0625 9.375C14.5803 9.375 15 9.79473 15 10.3125C15 10.8303 14.5803 11.25 14.0625 11.25C13.5447 11.25 13.125 10.8303 13.125 10.3125C13.125 9.79473 13.5447 9.375 14.0625 9.375Z" fill="white"/>
</g>
<defs>
<clipPath id="clip0_498_521">
<rect width="20" height="20" fill="white"/>
</clipPath>
</defs>
</svg>
