<svg width="20" height="20" viewBox="0 0 20 20" fill="none" xmlns="http://www.w3.org/2000/svg">
<path fill-rule="evenodd" clip-rule="evenodd" d="M4.48515 4.04415C4.79703 3.5986 5.30668 3.33325 5.85054 3.33325H14.1494C14.6934 3.33325 15.2029 3.59865 15.5148 4.04403L15.5149 4.04415L17.8026 7.31246C18.2477 7.94808 18.1951 8.80659 17.6762 9.38322L11.2389 16.5358C11.2388 16.5358 11.2388 16.5358 11.2388 16.5358C11.1106 16.6783 10.9638 16.7932 10.8058 16.8805L10.7982 16.906H10.7578C10.2835 17.148 9.71647 17.148 9.24216 16.906H9.2018L9.19415 16.8805C9.03614 16.7932 8.88943 16.6783 8.76116 16.5358C8.76115 16.5358 8.76113 16.5358 8.76112 16.5358L2.32385 9.38322L2.32384 9.38321C1.80487 8.80656 1.75239 7.94811 2.19728 7.31254L2.19728 7.31253L4.48515 4.04415C4.48515 4.04415 4.48515 4.04415 4.48515 4.04415ZM11.8656 13.348L13.12 9.16659H15.6289L11.8656 13.348ZM15.8994 7.49992L14.1495 5.00004C14.1495 4.99999 14.1495 4.99996 14.1495 4.99994C14.1495 4.99993 14.1495 4.99993 14.1494 4.99992C14.1494 4.99992 14.1494 4.99992 14.1494 4.99992H12.37L13.12 7.49992H15.8994ZM11.38 7.49992L10.63 4.99992H9.37002L8.62002 7.49992H11.38ZM6.87997 9.16659L8.13438 13.348L4.37114 9.16659H6.87997ZM6.87997 7.49992L7.62997 4.99992H5.85054L5.85054 4.99992L5.16784 4.52204L5.85053 4.99992L4.10054 7.49992H6.87997ZM8.62002 9.16659H11.38L9.99999 13.7665L8.62002 9.16659Z" fill="white"/>
</svg>
