<svg width="20" height="20" viewBox="0 0 20 20" fill="none" xmlns="http://www.w3.org/2000/svg">
<path fill-rule="evenodd" clip-rule="evenodd" d="M6.3786 4.57874C6.3786 4.57874 6.3786 4.57874 6.3786 4.57874L6.48394 5.00008H8.99842L8.18483 3.77972L8.18482 3.77969C7.99897 3.5009 7.68604 3.33341 7.35093 3.33341C6.69889 3.33341 6.22047 3.94618 6.3786 4.57874ZM9.16663 6.66675H4.16663C3.70639 6.66675 3.33329 7.03984 3.33329 7.50008V8.33341H9.16663V6.66675ZM9.16663 10.0001H4.16663V15.0001C4.16663 15.4603 4.53971 15.8334 4.99996 15.8334H9.16663V10.0001ZM10.8333 15.8334V10.0001H15.8333V15.0001C15.8333 15.4603 15.4602 15.8334 15 15.8334H10.8333ZM16.6666 8.33341H10.8333V6.66675H15.8333C16.2935 6.66675 16.6666 7.03984 16.6666 7.50008V8.33341ZM11.0015 5.00008H13.516L13.6213 4.57877C13.6213 4.57875 13.6213 4.57873 13.6213 4.57872C13.7794 3.94613 13.301 3.33341 12.649 3.33341C12.3139 3.33341 12.001 3.5009 11.8151 3.77969L11.8151 3.77972L11.0015 5.00008ZM15.234 5.00008H15.8333C17.214 5.00008 18.3333 6.11938 18.3333 7.50008V9.16675C18.3333 9.62699 17.9602 10.0001 17.5 10.0001V15.0001C17.5 16.3808 16.3807 17.5001 15 17.5001H4.99996C3.61925 17.5001 2.49996 16.3808 2.49996 15.0001L2.49996 10.0001C2.03972 10.0001 1.66663 9.62699 1.66663 9.16675V7.50008C1.66663 6.11937 2.78591 5.00008 4.16663 5.00008H4.76598L4.7617 4.98296C4.34059 3.29849 5.61461 1.66675 7.35093 1.66675C8.24327 1.66675 9.07662 2.11272 9.5716 2.85524L9.99996 3.49777L10.4283 2.85524C10.4283 2.85523 10.4283 2.85522 10.4283 2.85521C10.9233 2.11271 11.7567 1.66675 12.649 1.66675C14.3854 1.66675 15.6593 3.2985 15.2383 4.98293L15.2382 4.98298L15.234 5.00008Z" fill="white"/>
</svg>
