<svg width="20" height="20" viewBox="0 0 20 20" fill="none" xmlns="http://www.w3.org/2000/svg">
<path fill-rule="evenodd" clip-rule="evenodd" d="M6.23808 5.20089C5.67633 5.32436 5.09864 5.65032 4.53886 6.2101C3.2371 7.51185 3.23711 9.62239 4.53885 10.9241C5.35245 11.7377 6.77505 13.1603 7.99424 14.3795L10.229 16.6144L10.2292 16.6145C10.2292 16.6145 10.2292 16.6145 10.2292 16.6145C10.2292 16.6145 10.2292 16.6145 10.2292 16.6145C10.2292 16.6145 10.2292 16.6145 10.2292 16.6145L15.9195 10.9241C17.2213 9.6224 17.2213 7.51185 15.9195 6.2101C15.3598 5.65032 14.7821 5.32436 14.2203 5.20089C13.6676 5.07941 13.0745 5.141 12.4436 5.44887C11.9139 5.70734 11.2671 6.21494 10.974 6.79898C10.8326 7.08069 10.5444 7.25853 10.2292 7.25853C9.91401 7.25853 9.62579 7.08069 9.48441 6.79898C9.1913 6.21494 8.54456 5.70734 8.01483 5.44888C7.38389 5.14101 6.7908 5.07941 6.23808 5.20089ZM10.229 16.6147C10.229 16.6147 10.229 16.6147 10.229 16.6147C10.2289 16.6148 10.2287 16.6149 10.2285 16.6152C10.2286 16.6151 10.2287 16.615 10.229 16.6147ZM10.2285 16.6152C10.2245 16.6193 10.1973 16.6464 10.0157 16.8281L10.2286 16.6151C10.2285 16.6152 10.2285 16.6152 10.2285 16.6152ZM5.8803 3.57308C6.8256 3.36531 7.80106 3.49008 8.74569 3.95101C9.19511 4.17029 9.75023 4.53416 10.2292 5.02532C10.7082 4.53416 11.2633 4.17029 11.7127 3.95101C12.6573 3.49008 13.6328 3.36531 14.5781 3.57308C15.5144 3.77886 16.3642 4.29776 17.0981 5.0316C19.0507 6.98421 19.0507 10.15 17.0981 12.1026L11.4077 17.793C10.7569 18.4439 9.70156 18.4439 9.0507 17.7931L9.63996 17.2038C9.0507 17.793 9.05068 17.793 9.05065 17.793L9.05051 17.7929L6.81572 15.558C5.59653 14.3388 4.17394 12.9162 3.36035 12.1026C1.40771 10.15 1.40772 6.98421 3.36034 5.03159C4.09417 4.29776 4.94402 3.77886 5.8803 3.57308Z" fill="white"/>
</svg>
