<svg width="20" height="20" viewBox="0 0 20 20" fill="none" xmlns="http://www.w3.org/2000/svg">
<path fill-rule="evenodd" clip-rule="evenodd" d="M9.57636 3.71791C9.57634 3.71792 9.57633 3.71793 9.57631 3.71794L4.5764 6.6693C4.32249 6.81918 4.16667 7.09208 4.16667 7.38694V15.0002C4.16667 15.4604 4.53975 15.8335 5 15.8335H6.66667C7.12691 15.8335 7.5 15.4604 7.5 15.0002V11.6667C7.5 10.2861 8.61924 9.16675 10 9.16675C11.3808 9.16675 12.5 10.2861 12.5 11.6667V15.0002C12.5 15.4604 12.8731 15.8335 13.3333 15.8335H15C15.4603 15.8335 15.8333 15.4604 15.8333 15.0002V7.38694C15.8333 7.09204 15.6775 6.81916 15.4236 6.66931L10.4237 3.71794C10.4237 3.71793 10.4237 3.71792 10.4236 3.71791C10.1622 3.56365 9.83777 3.56365 9.57636 3.71791ZM8.72919 2.28261C9.51325 1.81986 10.4867 1.81986 11.2708 2.28261L11.2709 2.28264L16.2709 5.23403C17.0326 5.68369 17.5 6.50242 17.5 7.38694V15.0002C17.5 16.3809 16.3807 17.5002 15 17.5002H13.3333C11.9526 17.5002 10.8333 16.3809 10.8333 15.0002V11.6667C10.8333 11.2065 10.4602 10.8334 10 10.8334C9.53976 10.8334 9.16667 11.2065 9.16667 11.6667V15.0002C9.16667 16.3809 8.04737 17.5002 6.66667 17.5002H5C3.6193 17.5002 2.5 16.3809 2.5 15.0002V7.38694C2.5 6.50238 2.96743 5.68367 3.72918 5.23403C3.72919 5.23403 3.72918 5.23403 3.72918 5.23403L8.72919 2.28261Z" fill="white"/>
</svg>
