<svg width="20" height="20" viewBox="0 0 20 20" fill="none" xmlns="http://www.w3.org/2000/svg">
<path d="M18.6557 3.32098L16.679 1.34421C16.08 0.745216 15.0663 0.95974 14.7578 1.74179L13.4609 4.04928L12.1777 5.33249C10.572 4.5703 8.66302 4.69732 7.41036 5.95001C6.89356 6.46681 6.55427 7.1223 6.41182 7.87015C4.88216 7.74904 3.45675 8.24376 2.43064 9.26983C0.371246 11.3292 0.557434 14.8662 2.84562 17.1544C5.13455 19.4434 8.67153 19.628 10.7301 17.5693C11.7563 16.5432 12.2509 15.118 12.1298 13.5882C12.8777 13.4457 13.5332 13.1064 14.05 12.5896C14.2502 12.3894 14.4269 12.1657 14.5752 11.9246C14.8186 11.5288 14.5245 11.0221 14.069 11.0303C13.3556 11.0387 12.747 10.6253 12.4614 10.0284L15.9507 6.53913L18.2581 5.24217C19.0396 4.93389 19.2552 3.92033 18.6557 3.32098ZM12.9495 11.992C12.441 12.3653 11.867 12.4704 11.4461 12.4879C11.0891 12.5028 10.8285 12.8307 10.8935 13.1813C11.1485 14.5563 10.7865 15.8531 9.90014 16.7394C8.29845 18.3411 5.50605 18.155 3.67549 16.3245C1.84493 14.494 1.65878 11.7016 3.2605 10.0998C4.1468 9.21351 5.44364 8.85161 6.81868 9.10642C7.16926 9.17139 7.49713 8.91085 7.51207 8.55384C7.53278 8.05606 7.67593 7.34428 8.24023 6.77991C8.98354 6.0366 10.1596 5.84423 11.2796 6.23046L7.82531 9.68478C7.59613 9.91393 7.59613 10.2855 7.82531 10.5147L9.48522 12.1746C9.71441 12.4038 10.086 12.4038 10.3152 12.1746L11.6021 10.8877C11.9218 11.3711 12.3887 11.7654 12.9495 11.992ZM9.90014 10.9297L9.0702 10.0998L13.9325 5.23739L14.7625 6.06737L9.90014 10.9297ZM15.6928 5.33766L14.6623 4.30719C15.9023 2.10095 15.8231 2.25093 15.8491 2.17425L17.8257 4.15099C17.7499 4.1762 17.9075 4.09288 15.6928 5.33766Z" fill="white"/>
<path d="M8.6553 13.0047L6.99536 11.3447C6.76621 11.1156 6.3946 11.1156 6.16542 11.3447C5.93623 11.5739 5.93623 11.9455 6.16542 12.1747L7.82536 13.8346C8.05455 14.0638 8.42611 14.0638 8.6553 13.8346C8.88448 13.6054 8.88448 13.2338 8.6553 13.0047Z" fill="white"/>
<path d="M5.75044 16.4965C6.07456 16.4965 6.33731 16.2337 6.33731 15.9096C6.33731 15.5855 6.07456 15.3228 5.75044 15.3228C5.42632 15.3228 5.16357 15.5855 5.16357 15.9096C5.16357 16.2337 5.42632 16.4965 5.75044 16.4965Z" fill="white"/>
<path d="M9.07014 16.4965C9.39426 16.4965 9.65701 16.2337 9.65701 15.9096C9.65701 15.5855 9.39426 15.3228 9.07014 15.3228C8.74603 15.3228 8.48328 15.5855 8.48328 15.9096C8.48328 16.2337 8.74603 16.4965 9.07014 16.4965Z" fill="white"/>
</svg>
