<svg width="20" height="20" viewBox="0 0 20 20" fill="none" xmlns="http://www.w3.org/2000/svg">
<path fill-rule="evenodd" clip-rule="evenodd" d="M2.5 4.16675C2.5 2.78604 3.61929 1.66675 5 1.66675H15C16.3807 1.66675 17.5 2.78604 17.5 4.16675V15.8334C17.5 17.2142 16.3807 18.3334 15 18.3334H5C3.6193 18.3334 2.5 17.2142 2.5 15.8334V4.16675ZM5 3.33341C4.53976 3.33341 4.16667 3.70651 4.16667 4.16675V15.8334C4.16667 16.2937 4.53975 16.6667 5 16.6667H15C15.4603 16.6667 15.8333 16.2937 15.8333 15.8334V4.16675C15.8333 3.7065 15.4603 3.33341 15 3.33341H5ZM13.3333 5.00008C13.3333 4.53984 13.7064 4.16675 14.1667 4.16675H14.175C14.6352 4.16675 15.0083 4.53984 15.0083 5.00008C15.0083 5.46032 14.6352 5.83341 14.175 5.83341H14.1667C13.7064 5.83341 13.3333 5.46032 13.3333 5.00008ZM10 7.50008C8.15906 7.50008 6.66667 8.99248 6.66667 10.8334C6.66667 12.6743 8.15906 14.1667 10 14.1667C11.8409 14.1667 13.3333 12.6743 13.3333 10.8334C13.3333 8.99249 11.8409 7.50008 10 7.50008ZM5 10.8334C5 8.07201 7.23858 5.83341 10 5.83341C12.7614 5.83341 15 8.07201 15 10.8334C15 13.5948 12.7614 15.8334 10 15.8334C7.23858 15.8334 5 13.5948 5 10.8334ZM11.6667 10.0001C12.1269 10.0001 12.5 10.3732 12.5 10.8334C12.5 12.2142 11.3807 13.3334 10 13.3334C9.53976 13.3334 9.16667 12.9603 9.16667 12.5001C9.16667 12.0398 9.53976 11.6667 10 11.6667C10.4603 11.6667 10.8333 11.2937 10.8333 10.8334C10.8333 10.3732 11.2064 10.0001 11.6667 10.0001Z" fill="white"/>
</svg>
