<svg width="20" height="20" viewBox="0 0 20 20" fill="none" xmlns="http://www.w3.org/2000/svg">
<path fill-rule="evenodd" clip-rule="evenodd" d="M2.57586 3.93023C2.63499 3.51662 2.99127 3.21074 3.40906 3.21489C6.27958 3.24334 8.76402 4.88424 10 7.27517C11.236 4.88424 13.7204 3.24334 16.5909 3.21489C17.0087 3.21074 17.3649 3.51656 17.4241 3.93012C17.4742 4.28009 17.5 4.63741 17.5 5.00022C17.5 8.8607 14.5833 12.0399 10.8333 12.4544V17.5001C10.8333 17.9604 10.4602 18.3335 10 18.3335C9.53976 18.3335 9.16667 17.9604 9.16667 17.5001V12.4544C5.41663 12.0399 2.5 8.8607 2.5 5.00022C2.5 4.63739 2.52583 4.28011 2.57586 3.93023ZM10.8336 10.7744C10.8334 10.7545 10.8333 10.7345 10.8333 10.7145C10.8333 7.77587 13.0064 5.3447 15.833 4.94027C15.8332 4.96023 15.8333 4.98021 15.8333 5.00022C15.8333 7.93887 13.6603 10.37 10.8336 10.7744ZM9.16667 10.7145C9.16667 7.77588 6.99365 5.34471 4.16697 4.94028C4.16677 4.96023 4.16667 4.98021 4.16667 5.00022C4.16667 7.93887 6.33969 10.37 9.16637 10.7744C9.16657 10.7545 9.16667 10.7345 9.16667 10.7145Z" fill="white"/>
</svg>
