<svg width="34" height="34" viewBox="0 0 34 34" fill="none" xmlns="http://www.w3.org/2000/svg">
<path d="M10.8801 7.48008C10.8801 9.35785 9.35785 10.8801 7.48008 10.8801C5.60231 10.8801 4.08008 9.35785 4.08008 7.48008C4.08008 5.60231 5.60231 4.08008 7.48008 4.08008C9.35785 4.08008 10.8801 5.60231 10.8801 7.48008Z" fill="white"/>
<path d="M20.4001 7.48008C20.4001 9.35785 18.8778 10.8801 17.0001 10.8801C15.1223 10.8801 13.6001 9.35785 13.6001 7.48008C13.6001 5.60231 15.1223 4.08008 17.0001 4.08008C18.8778 4.08008 20.4001 5.60231 20.4001 7.48008Z" fill="white"/>
<path d="M29.9201 7.48008C29.9201 9.35785 28.3978 10.8801 26.5201 10.8801C24.6423 10.8801 23.1201 9.35785 23.1201 7.48008C23.1201 5.60231 24.6423 4.08008 26.5201 4.08008C28.3978 4.08008 29.9201 5.60231 29.9201 7.48008Z" fill="white"/>
<path d="M10.8801 17.0001C10.8801 18.8778 9.35785 20.4001 7.48008 20.4001C5.60231 20.4001 4.08008 18.8778 4.08008 17.0001C4.08008 15.1223 5.60231 13.6001 7.48008 13.6001C9.35785 13.6001 10.8801 15.1223 10.8801 17.0001Z" fill="white"/>
<path d="M20.4001 17.0001C20.4001 18.8778 18.8778 20.4001 17.0001 20.4001C15.1223 20.4001 13.6001 18.8778 13.6001 17.0001C13.6001 15.1223 15.1223 13.6001 17.0001 13.6001C18.8778 13.6001 20.4001 15.1223 20.4001 17.0001Z" fill="white"/>
<path d="M29.9201 17.0001C29.9201 18.8778 28.3978 20.4001 26.5201 20.4001C24.6423 20.4001 23.1201 18.8778 23.1201 17.0001C23.1201 15.1223 24.6423 13.6001 26.5201 13.6001C28.3978 13.6001 29.9201 15.1223 29.9201 17.0001Z" fill="white"/>
<path d="M10.8801 26.5201C10.8801 28.3978 9.35785 29.9201 7.48008 29.9201C5.60231 29.9201 4.08008 28.3978 4.08008 26.5201C4.08008 24.6423 5.60231 23.1201 7.48008 23.1201C9.35785 23.1201 10.8801 24.6423 10.8801 26.5201Z" fill="white"/>
<path d="M20.4001 26.5201C20.4001 28.3978 18.8778 29.9201 17.0001 29.9201C15.1223 29.9201 13.6001 28.3978 13.6001 26.5201C13.6001 24.6423 15.1223 23.1201 17.0001 23.1201C18.8778 23.1201 20.4001 24.6423 20.4001 26.5201Z" fill="white"/>
<path d="M29.9201 26.5201C29.9201 28.3978 28.3978 29.9201 26.5201 29.9201C24.6423 29.9201 23.1201 28.3978 23.1201 26.5201C23.1201 24.6423 24.6423 23.1201 26.5201 23.1201C28.3978 23.1201 29.9201 24.6423 29.9201 26.5201Z" fill="white"/>
</svg>
