<svg width="34" height="34" viewBox="0 0 34 34" fill="none" xmlns="http://www.w3.org/2000/svg">
<path fill-rule="evenodd" clip-rule="evenodd" d="M6.38873 10.0432C7.12376 9.31097 8.16592 9.06226 9.28083 9.06226C10.3957 9.06226 11.4379 9.31097 12.1729 10.0432C12.8846 10.7521 13.1403 11.7517 13.1403 12.9069C13.1403 14.062 12.8846 15.0616 12.1729 15.7705C11.4379 16.5027 10.3957 16.7514 9.28083 16.7514C8.16592 16.7514 7.12376 16.5027 6.38873 15.7705C5.67709 15.0616 5.42137 14.062 5.42137 12.9069C5.42137 11.7517 5.67709 10.7521 6.38873 10.0432ZM7.83103 11.1784C7.57781 11.4306 7.3511 11.9262 7.3511 12.9069C7.3511 13.8875 7.57781 14.3831 7.83103 14.6353C8.06087 14.8643 8.46601 15.0427 9.28083 15.0427C10.0956 15.0427 10.5008 14.8643 10.7306 14.6353C10.9838 14.3831 11.2106 13.8875 11.2106 12.9069C11.2106 11.9262 10.9838 11.4306 10.7306 11.1784C10.5008 10.9494 10.0956 10.771 9.28083 10.771C8.46601 10.771 8.06087 10.9494 7.83103 11.1784Z" fill="white"/>
<path fill-rule="evenodd" clip-rule="evenodd" d="M15.7563 21.621C16.2791 23.8149 14.3012 25.2095 12.6884 25.2095H5.87325C4.2606 25.2095 2.28237 23.815 2.80535 21.6209C3.11825 20.3081 3.85258 19.1887 5.10129 18.4537C6.27293 17.764 7.71686 17.5204 9.28081 17.5204C10.8448 17.5204 12.2887 17.764 13.4603 18.4537C14.7091 19.1887 15.4434 20.3083 15.7563 21.621ZM13.9118 22.0397C14.0823 22.7556 13.4412 23.3612 12.6884 23.3612H5.87325C5.12047 23.3612 4.47924 22.7556 4.64987 22.0397C5.07431 20.259 6.49364 19.3687 9.28081 19.3687C12.068 19.3687 13.4873 20.259 13.9118 22.0397Z" fill="white"/>
<path d="M23.2486 21.4156C23.5825 20.8615 24.4175 20.8615 24.7514 21.4156L27.8825 26.6104C28.2164 27.1645 27.799 27.8571 27.131 27.8571H20.869C20.201 27.8571 19.7836 27.1645 20.1175 26.6104L23.2486 21.4156Z" fill="#509B8A"/>
<path d="M30.51 17C30.7806 17 31 17.3469 31 17.7748C31 18.2027 30.7806 18.5496 30.51 18.5496L17.49 18.5496C17.2194 18.5496 17 18.2027 17 17.7748C17 17.3469 17.2194 17 17.49 17L30.51 17Z" fill="white"/>
<path fill-rule="evenodd" clip-rule="evenodd" d="M25.4032 8.67773H22.3157C21.8894 8.67773 21.5438 9.02199 21.5438 9.44665V12.5223C21.5438 12.947 21.8894 13.2912 22.3157 13.2912H25.4032C25.8295 13.2912 26.1751 12.947 26.1751 12.5223V9.44665C26.1751 9.02199 25.8295 8.67773 25.4032 8.67773ZM22.3157 7.13989C21.0368 7.13989 20 8.17266 20 9.44665V12.5223C20 13.7963 21.0368 14.8291 22.3157 14.8291H25.4032C26.6822 14.8291 27.7189 13.7963 27.7189 12.5223V9.44665C27.7189 8.17266 26.6822 7.13989 25.4032 7.13989H22.3157Z" fill="white"/>
</svg>
