<svg width="20" height="20" viewBox="0 0 20 20" fill="none" xmlns="http://www.w3.org/2000/svg">
<path d="M17.5417 16.8631L10.8001 5.65974L12.318 3.13727C12.5316 2.78213 12.417 2.3212 12.0621 2.10762C11.707 1.89379 11.2458 2.00858 11.0325 2.36347L9.92456 4.20443L8.81663 2.36347C8.60305 2.00858 8.14237 1.89379 7.78698 2.10762C7.43185 2.3212 7.3173 2.78213 7.53114 3.13727L9.04897 5.65974L2.30737 16.8631C2.16782 17.0949 2.16407 17.3838 2.29712 17.6191C2.43017 17.8544 2.67977 18 2.95012 18H8.16688H11.682H16.8987C17.1691 18 17.4187 17.8544 17.5518 17.6191C17.6851 17.3838 17.681 17.0949 17.5417 16.8631ZM9.17427 8.36178V12.806H8.16688C7.75247 12.806 7.41659 13.1419 7.41659 13.5563V16.4997H4.27738L9.17427 8.36178ZM8.91717 16.4997V14.3066H10.9317V16.4997H8.91717ZM12.4323 16.4997V13.5563C12.4323 13.1419 12.0964 12.806 11.682 12.806H10.6748V8.36178L15.5717 16.4997H12.4323Z" fill="white"/>
</svg>
