<svg width="20" height="20" viewBox="0 0 20 20" fill="none" xmlns="http://www.w3.org/2000/svg">
<path d="M16.2408 1H3.75097C3.44666 1 3.19995 1.24671 3.19995 1.55102V18.449C3.19995 18.7533 3.44666 19 3.75097 19H7.42444C7.70061 19 7.93414 18.7956 7.97061 18.5218L9.37627 7.97959H10.6155L12.0211 18.5218C12.0576 18.7956 12.2911 19 12.5673 19H16.2408C16.5451 19 16.7918 18.7533 16.7918 18.449V1.55102C16.7918 1.24671 16.5451 1 16.2408 1ZM4.30199 2.10204H5.38567V5.04082H4.30199V2.10204ZM15.6897 17.898H13.0497L11.6441 7.35576C11.6076 7.08198 11.3741 6.87755 11.0979 6.87755H8.89383C8.61766 6.87755 8.38414 7.08198 8.34766 7.35576L6.942 17.898H4.30199V6.14286H5.95505C6.25936 6.14286 6.50607 5.89615 6.50607 5.59184C6.50607 5.54287 6.49968 5.49541 6.48771 5.45022V2.10204H9.44485V4.4898C9.44485 4.79411 9.69156 5.04082 9.99587 5.04082C10.3002 5.04082 10.5469 4.79411 10.5469 4.4898V2.10204H13.4857V5.59184C13.4857 5.89615 13.7324 6.14286 14.0367 6.14286H15.6897V17.898ZM15.6897 5.04082H14.5877V2.10204H15.6897V5.04082Z" fill="white"/>
</svg>
