<svg width="20" height="20" viewBox="0 0 20 20" fill="none" xmlns="http://www.w3.org/2000/svg">
<path d="M12.7816 14.9738H12.2259V9.12022C12.2259 7.71583 11.0834 6.57326 9.67897 6.57326H9.56552C9.39484 6.57326 9.25594 6.43439 9.25594 6.26367V5.74821C9.80761 5.50556 10.1939 4.9541 10.1939 4.31384V2.76637C10.1939 1.90262 9.49124 1.19995 8.62752 1.19995H4.59841C3.73473 1.19995 3.03199 1.90265 3.03199 2.76637V4.31388C3.03199 4.94739 3.41027 5.49389 3.95263 5.74037V6.26367C3.95263 6.43439 3.81376 6.57326 3.64304 6.57326H3.54703C2.14254 6.57326 1 7.71583 1 9.12022V9.9582V14.3334V15.2612C1 16.6656 2.14254 17.8082 3.54696 17.8082H8.16729C8.49453 18.3728 9.10508 18.7537 9.80336 18.7537H12.7816C13.8238 18.7537 14.6716 17.9059 14.6716 16.8638C14.6716 15.8216 13.8238 14.9738 12.7816 14.9738ZM4.28879 2.76637C4.28879 2.59565 4.42766 2.45678 4.59838 2.45678H8.62752C8.7982 2.45682 8.93707 2.59572 8.93707 2.76637V4.31388C8.93707 4.4841 8.79894 4.62258 8.62889 4.62339C8.62844 4.62339 8.62798 4.62332 8.62749 4.62332H4.59556C4.42618 4.62177 4.28883 4.48364 4.28883 4.31388V2.76637H4.28879ZM2.25683 10.5866H7.47215V13.7049H2.25683V10.5866ZM7.93969 16.5514H3.54696C2.83557 16.5514 2.25683 15.9727 2.25683 15.2613V14.9618H8.10057C8.44763 14.9618 8.72898 14.6805 8.72898 14.3334V9.9582C8.72898 9.61114 8.44763 9.32978 8.10057 9.32978H2.25683V9.12022C2.25683 8.40887 2.83557 7.83009 3.54696 7.83009H3.64297C4.50665 7.83009 5.20939 7.12739 5.20939 6.26367V5.88012H7.9991V6.26367C7.9991 7.12743 8.70177 7.83009 9.56552 7.83009H9.67897C10.3903 7.83009 10.969 8.40883 10.969 9.12022V14.9738H9.80336C8.86771 14.9738 8.0891 15.6574 7.93969 16.5514ZM12.7816 17.4969H9.80336C9.45422 17.4969 9.17019 17.2129 9.17019 16.8638C9.17019 16.5147 9.45418 16.2307 9.80336 16.2307H12.7816C13.1308 16.2307 13.4148 16.5147 13.4148 16.8638C13.4148 17.213 13.1308 17.4969 12.7816 17.4969Z" fill="white"/>
<path d="M18.4465 12.9245L16.3405 10.8185C15.9835 10.4615 15.5089 10.2649 15.0041 10.2649C14.4994 10.2649 14.0246 10.4615 13.6677 10.8185C12.9308 11.5553 12.9308 12.7544 13.6677 13.4912L15.7738 15.5973C16.1422 15.9657 16.6262 16.1499 17.1101 16.1499C17.594 16.1499 18.078 15.9657 18.4465 15.5973C18.8035 15.2403 19 14.7657 19 14.2609C19 13.756 18.8034 13.2814 18.4465 12.9245ZM17.5578 14.7085C17.3109 14.9554 16.9093 14.9554 16.6624 14.7085L14.5564 12.6025C14.3095 12.3556 14.3095 11.954 14.5564 11.7071C14.676 11.5875 14.835 11.5217 15.0041 11.5217C15.1733 11.5217 15.3322 11.5875 15.4518 11.7071L17.5578 13.8131C17.6774 13.9327 17.7432 14.0916 17.7432 14.2608C17.7432 14.43 17.6773 14.589 17.5578 14.7085Z" fill="white"/>
</svg>
