<svg width="20" height="20" viewBox="0 0 20 20" fill="none" xmlns="http://www.w3.org/2000/svg">
<path fill-rule="evenodd" clip-rule="evenodd" d="M4.11949 5.52985L4.91004 6.91331C6.46556 6.21906 8.18855 5.83333 9.99982 5.83333C11.811 5.83333 13.534 6.21906 15.0896 6.91331L15.8801 5.52985C14.1071 4.65708 12.1116 4.16667 9.99982 4.16667C7.88792 4.16667 5.89254 4.65708 4.11949 5.52985ZM14.2579 8.36867C12.9516 7.80967 11.5127 7.5 9.99982 7.5C8.48688 7.5 7.04799 7.80966 5.74168 8.36867L9.99981 15.8204L14.2579 8.36867ZM3.8518 8.42066L9.27628 17.9134C9.42465 18.1731 9.70077 18.3333 9.99982 18.3333C10.2989 18.3333 10.575 18.1731 10.7234 17.9134L17.7532 5.61124C17.9814 5.21191 17.8429 4.7032 17.4438 4.47464C15.2495 3.21803 12.7072 2.5 9.99982 2.5C7.29238 2.5 4.75016 3.21803 2.55583 4.47464C2.1567 4.7032 2.01822 5.21191 2.24641 5.61124L3.84753 8.41318C3.84894 8.41568 3.85037 8.41818 3.8518 8.42066ZM7.49979 9.16667C7.49979 8.70643 7.87289 8.33333 8.33312 8.33333H8.34148C8.80172 8.33333 9.17482 8.70643 9.17482 9.16667C9.17482 9.6269 8.80172 10 8.34148 10H8.33312C7.87289 10 7.49979 9.6269 7.49979 9.16667ZM9.99982 11.6667C9.99982 11.2064 10.3729 10.8333 10.8331 10.8333H10.8415C11.3017 10.8333 11.6748 11.2064 11.6748 11.6667C11.6748 12.1269 11.3017 12.5 10.8415 12.5H10.8331C10.3729 12.5 9.99982 12.1269 9.99982 11.6667Z" fill="white"/>
</svg>
