<svg width="20" height="20" viewBox="0 0 20 20" fill="none" xmlns="http://www.w3.org/2000/svg">
<path fill-rule="evenodd" clip-rule="evenodd" d="M10 17.25C14.0041 17.25 17.25 14.0041 17.25 10C17.25 5.99594 14.0041 2.75 10 2.75C5.99594 2.75 2.75 5.99594 2.75 10C2.75 14.0041 5.99594 17.25 10 17.25ZM10 18.75C14.8325 18.75 18.75 14.8325 18.75 10C18.75 5.16751 14.8325 1.25 10 1.25C5.16751 1.25 1.25 5.16751 1.25 10C1.25 14.8325 5.16751 18.75 10 18.75Z" fill="white"/>
<path fill-rule="evenodd" clip-rule="evenodd" d="M7.9375 7.3C7.65445 7.3 7.425 7.52945 7.425 7.8125C7.425 8.09555 7.65445 8.325 7.9375 8.325C8.22055 8.325 8.45 8.09555 8.45 7.8125C8.45 7.52945 8.22055 7.3 7.9375 7.3ZM9.475 7.8125C9.475 8.66164 8.78664 9.35 7.9375 9.35C7.08836 9.35 6.4 8.66164 6.4 7.8125C6.4 6.96336 7.08836 6.275 7.9375 6.275C8.78664 6.275 9.475 6.96336 9.475 7.8125Z" fill="white"/>
<path fill-rule="evenodd" clip-rule="evenodd" d="M12.2375 11.575C11.9545 11.575 11.725 11.8045 11.725 12.0875C11.725 12.3705 11.9545 12.6 12.2375 12.6C12.5205 12.6 12.75 12.3705 12.75 12.0875C12.75 11.8045 12.5205 11.575 12.2375 11.575ZM13.775 12.0875C13.775 12.9366 13.0866 13.625 12.2375 13.625C11.3884 13.625 10.7 12.9366 10.7 12.0875C10.7 11.2384 11.3884 10.55 12.2375 10.55C13.0866 10.55 13.775 11.2384 13.775 12.0875Z" fill="white"/>
<path d="M6.73033 13.2193C6.43744 12.9264 6.43744 12.4515 6.73033 12.1586L12.0336 6.85533C12.3265 6.56244 12.8014 6.56244 13.0943 6.85533C13.3872 7.14822 13.3872 7.6231 13.0943 7.91599L7.79099 13.2193C7.4981 13.5122 7.02322 13.5122 6.73033 13.2193Z" fill="white"/>
</svg>
