<svg width="20" height="20" viewBox="0 0 20 20" fill="none" xmlns="http://www.w3.org/2000/svg">
<path d="M17.3086 9.30857H14.9781L15.657 8.62969C15.927 8.35969 15.927 7.92187 15.657 7.65177C15.387 7.38168 14.9492 7.38177 14.6791 7.65177L13.0222 9.30854H11.6695L15.657 5.3211C15.927 5.05109 15.927 4.61321 15.657 4.34318C15.387 4.07318 14.9491 4.07318 14.6791 4.34318L10.6916 8.33059V6.97802L12.3485 5.32113C12.6185 5.05112 12.6185 4.61324 12.3485 4.34321C12.0785 4.07321 11.6406 4.07321 11.3706 4.34321L10.6915 5.02222V2.69151C10.6915 2.3096 10.3819 2 10 2C9.61811 2 9.30851 2.3096 9.30851 2.69151V5.02222L8.6295 4.34321C8.3595 4.07315 7.92162 4.07315 7.65159 4.34321C7.38152 4.61321 7.38152 5.05103 7.65159 5.32113L9.30848 6.97808V8.33066L5.32113 4.34318C5.05112 4.07318 4.61324 4.07318 4.34321 4.34318C4.07315 4.61318 4.07315 5.05106 4.34321 5.3211L8.33066 9.30854H6.97805L5.32116 7.65165C5.05115 7.38165 4.61328 7.38165 4.34324 7.65165C4.07318 7.92165 4.07318 8.35953 4.34324 8.62956L5.02222 9.30857H2.69151C2.3096 9.30857 2 9.61817 2 10.0001C2 10.382 2.3096 10.6916 2.69151 10.6916H5.02215L4.34318 11.3706C4.07318 11.6406 4.07311 12.0784 4.34318 12.3485C4.47821 12.4835 4.65518 12.551 4.83212 12.551C5.00906 12.551 5.18609 12.4835 5.32106 12.3485L6.97802 10.6916H8.33059L4.34315 14.6791C4.07308 14.9491 4.07308 15.387 4.34315 15.657C4.47818 15.7921 4.65515 15.8596 4.83209 15.8596C5.00903 15.8596 5.18606 15.7921 5.32103 15.657L9.30848 11.6696V13.0222L7.65159 14.6791C7.38152 14.9491 7.38152 15.3869 7.65159 15.657C7.92159 15.927 8.35947 15.927 8.6295 15.657L9.30851 14.978V17.3087C9.30851 17.6906 9.61811 18.0002 10 18.0002C10.3819 18.0002 10.6915 17.6906 10.6915 17.3087V14.9781L11.3705 15.657C11.5055 15.7921 11.6825 15.8596 11.8594 15.8596C12.0364 15.8596 12.2134 15.7921 12.3484 15.657C12.6184 15.387 12.6184 14.9492 12.3484 14.6791L10.6915 13.0222V11.6696L14.679 15.657C14.814 15.7921 14.991 15.8596 15.1679 15.8596C15.3448 15.8596 15.5219 15.7921 15.6569 15.657C15.9269 15.387 15.9269 14.9492 15.6569 14.6791L11.6694 10.6917H13.0219L14.6789 12.3487C14.8139 12.4837 14.9909 12.5512 15.1678 12.5512C15.3448 12.5512 15.5218 12.4837 15.6568 12.3487C15.9268 12.0787 15.9268 11.6408 15.6568 11.3707L14.9777 10.6917H17.3085C17.6904 10.6917 18 10.3821 18 10.0002C18 9.61826 17.6905 9.30857 17.3086 9.30857Z" fill="white"/>
</svg>
