<svg width="34" height="34" viewBox="0 0 34 34" fill="none" xmlns="http://www.w3.org/2000/svg">
<path d="M10.7102 17.0001C10.7102 18.8779 9.18792 20.4001 7.31016 20.4001C5.43239 20.4001 3.91016 18.8779 3.91016 17.0001C3.91016 15.1223 5.43239 13.6001 7.31016 13.6001C9.18792 13.6001 10.7102 15.1223 10.7102 17.0001Z" fill="white"/>
<path d="M10.7102 4.88755C10.7102 6.76532 9.18792 8.28755 7.31016 8.28755C5.43239 8.28755 3.91016 6.76532 3.91016 4.88755C3.91016 3.00978 5.43239 1.48755 7.31016 1.48755C9.18792 1.48755 10.7102 3.00978 10.7102 4.88755Z" fill="white"/>
<path d="M10.7102 29.1126C10.7102 30.9904 9.18792 32.5126 7.31016 32.5126C5.43239 32.5126 3.91016 30.9904 3.91016 29.1126C3.91016 27.2349 5.43239 25.7126 7.31016 25.7126C9.18792 25.7126 10.7102 27.2349 10.7102 29.1126Z" fill="white"/>
<path fill-rule="evenodd" clip-rule="evenodd" d="M9.09473 4.8876C9.09473 4.41816 9.47528 4.0376 9.94473 4.0376H13.8972C17.066 4.0376 19.6347 6.60636 19.6347 9.7751V16.1501H24.9685C25.4379 16.1501 25.8185 16.5307 25.8185 17.0001C25.8185 17.4695 25.4379 17.8501 24.9685 17.8501H19.6347V24.2251C19.6347 27.3938 17.066 29.9626 13.8972 29.9626H9.94473C9.47528 29.9626 9.09473 29.582 9.09473 29.1126C9.09473 28.6432 9.47528 28.2626 9.94473 28.2626H13.8972C16.1271 28.2626 17.9347 26.4549 17.9347 24.2251V17.8501H9.94473C9.47528 17.8501 9.09473 17.4695 9.09473 17.0001C9.09473 16.5307 9.47528 16.1501 9.94473 16.1501H17.9347V9.7751C17.9347 7.54525 16.1271 5.7376 13.8972 5.7376H9.94473C9.47528 5.7376 9.09473 5.35704 9.09473 4.8876Z" fill="white"/>
<path d="M29.6824 16.2815C30.2009 16.6008 30.2009 17.3993 29.6824 17.7186L24.8208 20.7126C24.3022 21.032 23.654 20.6328 23.654 19.9941L23.654 14.006C23.654 13.3673 24.3022 12.9681 24.8208 13.2874L29.6824 16.2815Z" fill="#A771BE"/>
</svg>
