<svg width="20" height="20" viewBox="0 0 20 20" fill="none" xmlns="http://www.w3.org/2000/svg">
<path d="M14.8913 8.69568C12.2736 8.69568 12.2922 8.72359 11.9397 8.61092C11.9373 8.61014 11.9349 8.60937 11.9325 8.6086C11.0297 8.31575 10.9944 7.90143 9.22558 4.36383C9.1379 4.15061 8.92823 4.00039 8.68347 4C8.68315 4 8.68284 4 8.68252 4H1.58697C1.26279 4.00004 1 4.26283 1 4.587V14.3696C1 15.3406 1.78993 16.1305 2.76087 16.1305H17.2391C18.2101 16.1305 19 15.3406 19 14.3696V12.8044C19 10.5389 17.1568 8.69568 14.8913 8.69568ZM14.6956 9.86962H14.8913C16.4437 9.86962 17.7177 11.0815 17.8188 12.6087H14.6956V9.86962H14.6956ZM2.1739 5.17397H8.31816L8.73251 6.00268L7.0415 7.69369C6.81228 7.92288 6.81228 8.29455 7.0415 8.52377C7.15607 8.63837 7.30629 8.69572 7.45652 8.69572C7.60674 8.69572 7.75696 8.63837 7.87154 8.52377L9.28587 7.10943L9.75408 8.04582L8.7979 9.75177C8.63942 10.0346 8.74014 10.3923 9.02294 10.5508C9.11371 10.6016 9.21222 10.6258 9.30936 10.6258C9.51484 10.6258 9.71428 10.5177 9.82193 10.3257L10.5045 9.10789C10.7056 9.2914 10.9308 9.44535 11.1739 9.56569V10.8479C11.1739 11.172 11.4367 11.4348 11.7609 11.4348C12.085 11.4348 12.3478 11.1721 12.3478 10.8479V9.86638C12.3917 9.86832 12.4356 9.86962 12.4798 9.86962H13.5218V12.6087H2.1739V5.17397ZM17.8261 14.3696C17.8261 14.6933 17.5628 14.9566 17.2391 14.9566H2.76087C2.43722 14.9566 2.1739 14.6933 2.1739 14.3696V13.7826H17.8261V14.3696H17.8261Z" fill="white"/>
</svg>
