<svg width="20" height="20" viewBox="0 0 20 20" fill="none" xmlns="http://www.w3.org/2000/svg">
<path fill-rule="evenodd" clip-rule="evenodd" d="M9.16664 3.33341C8.7064 3.33341 8.3333 3.70651 8.3333 4.16675V5.00008H11.6666V4.16675C11.6666 3.7065 11.2936 3.33341 10.8333 3.33341H9.16664ZM13.3333 5.00008V4.16675C13.3333 2.78604 12.214 1.66675 10.8333 1.66675H9.16664C7.78592 1.66675 6.66664 2.78604 6.66664 4.16675V5.00008H5.76674C4.89993 5.00008 4.17782 5.66452 4.10584 6.52834L3.41139 14.8617C3.33042 15.8334 4.09727 16.6667 5.0723 16.6667H14.9276C15.9026 16.6667 16.6695 15.8334 16.5885 14.8617C16.5885 14.8617 16.5885 14.8617 16.5885 14.8617L15.8941 6.52834C15.8221 5.66459 15.1001 5.00008 14.2332 5.00008H13.3333ZM5.76675 6.66674L5.0723 15.0001L14.9276 15.0001L14.2332 6.66676C14.2332 6.66675 14.2332 6.66676 14.2332 6.66676L5.76675 6.66674ZM5.07176 15.0001L4.24184 14.9309L5.07183 15.0001" fill="white"/>
</svg>
