<svg width="34" height="34" viewBox="0 0 34 34" fill="none" xmlns="http://www.w3.org/2000/svg">
<path fill-rule="evenodd" clip-rule="evenodd" d="M15.583 5.66683C14.8006 5.66683 14.1663 6.30109 14.1663 7.0835V8.50016H19.833V7.0835C19.833 6.30108 19.1987 5.66683 18.4163 5.66683H15.583ZM22.6663 8.50016V7.0835C22.6663 4.7363 20.7636 2.8335 18.4163 2.8335H15.583C13.2358 2.8335 11.333 4.73628 11.333 7.0835V8.50016H9.80315C8.32956 8.50016 7.10198 9.62971 6.97961 11.0982L5.79904 25.2649C5.66139 26.9168 6.96504 28.3335 8.6226 28.3335H25.3767C27.0342 28.3335 28.3378 26.9169 28.2001 25.2649C28.2001 25.2649 28.2001 25.2649 28.2001 25.2649L27.0196 11.0982C26.8972 9.62984 25.6699 8.50016 24.1962 8.50016H22.6663ZM9.80316 11.3335L8.62259 25.5002L25.3766 25.5002L24.1961 11.3335C24.1961 11.3335 24.1961 11.3335 24.1961 11.3335L9.80316 11.3335ZM8.62167 25.5001L7.21082 25.3826L8.6218 25.5002" fill="white"/>
<path fill-rule="evenodd" clip-rule="evenodd" d="M14.7424 15.7999C14.9718 15.6948 15.219 15.6401 15.4696 15.6401C15.7203 15.6401 15.9675 15.6948 16.1968 15.7999C16.426 15.905 16.6319 16.0579 16.8037 16.248C16.9086 16.364 17.0907 16.364 17.1955 16.248C17.5429 15.8636 18.0219 15.6401 18.5296 15.6401C19.0373 15.6401 19.5163 15.8636 19.8637 16.248C20.2101 16.6313 20.3996 17.1444 20.3996 17.6731C20.3996 18.2018 20.2101 18.7149 19.8637 19.0981L17.7563 21.4299C17.3514 21.878 16.6478 21.878 16.2429 21.4299L14.1355 19.0981C13.9637 18.908 13.829 18.6842 13.7377 18.4401C13.6463 18.1961 13.5996 17.9355 13.5996 17.6731C13.5996 17.4106 13.6463 17.1501 13.7377 16.906C13.829 16.6619 13.9637 16.4381 14.1355 16.248C14.3073 16.0579 14.5132 15.905 14.7424 15.7999Z" fill="#E788B0"/>
</svg>
