<svg width="20" height="20" viewBox="0 0 20 20" fill="none" xmlns="http://www.w3.org/2000/svg">
<path d="M17.9974 16.0172L16.1043 6.81487C16.1082 6.79528 16.1159 3.28243 16.1159 3.28243C16.1159 2.90698 15.7542 2.6001 15.3117 2.6001H4.64208C4.19959 2.6001 3.83791 2.90698 3.83791 3.28243V6.72019C3.83791 6.8116 2.13723 15.6417 2.13723 15.6417C2.01026 16.0498 1.88329 16.2947 2.1911 16.5428C4.37659 18.3155 6.93915 17.4014 7.57402 16.9509C9.67101 18.1458 11.6564 17.3851 12.3798 16.9476C14.2998 18.087 16.6546 17.594 17.755 16.5428C17.9281 16.3861 18.0166 16.2032 17.9974 16.0172ZM14.5114 3.93211V6.07704H5.40392V3.93211H14.5114ZM12.9454 15.5927C12.6106 15.3087 12.072 15.3805 11.8219 15.5927C10.8176 16.4448 9.13233 16.4448 8.13193 15.5927C7.78949 15.3022 7.26235 15.3773 7.00841 15.5927C6.1119 16.3534 4.67671 16.4318 3.66477 15.8376L5.35775 7.40252H14.6384L16.366 15.7919C15.354 16.435 13.865 16.3697 12.9454 15.5927Z" fill="white"/>
</svg>
