<svg width="20" height="20" viewBox="0 0 20 20" fill="none" xmlns="http://www.w3.org/2000/svg">
<path d="M6.23316 3C4.9979 3 3.98036 4.11591 3.98036 5.47059V6.4437C3.81135 6.37555 3.63455 6.32504 3.44503 6.30538H3.44356H3.4421C3.00088 6.26062 2.55173 6.35916 2.15876 6.59168C1.1017 7.21517 0.752403 8.62703 1.17463 9.78286L2.45063 13.2829C2.8421 14.3543 3.71605 15.109 4.7313 15.3015V17H6.23316V15.3529H13.7425V17H15.2444V15.2999C16.26 15.1072 17.1343 14.3538 17.525 13.2812L18.826 9.76517L18.8274 9.76356C19.2323 8.65228 18.9209 7.30333 17.9342 6.6528C17.582 6.42056 17.1766 6.29412 16.7668 6.29412C16.498 6.29412 16.2391 6.35213 15.9953 6.45014V5.47059C15.9953 4.11591 14.9778 3 13.7425 3H6.23316ZM6.23316 4.64706H13.7425C14.1668 4.64706 14.4934 5.00527 14.4934 5.47059V8.33203L13.722 10.4118H6.25663L5.48223 8.2886V5.47059C5.48223 5.00527 5.80886 4.64706 6.23316 4.64706ZM16.7668 7.94118C16.9051 7.94118 17.0299 7.97778 17.1598 8.06342C17.4572 8.25948 17.5834 8.73848 17.4326 9.15234L16.1302 12.6684V12.67C15.9017 13.2974 15.352 13.7059 14.7354 13.7059H5.24023C4.62501 13.7059 4.07481 13.298 3.84543 12.6716V12.67L2.56943 9.17165V9.17004C2.4107 8.73561 2.5515 8.22997 2.8701 8.04251L2.87156 8.0409C3.00981 7.9591 3.14392 7.92856 3.30276 7.94439C3.56287 7.97139 3.84035 8.21836 3.96863 8.57008L5.24023 12.0588H14.7325L16.0657 8.46392L16.0672 8.46071C16.1822 8.14464 16.4568 7.94118 16.7668 7.94118Z" fill="white"/>
</svg>
