<svg width="34" height="34" viewBox="0 0 34 34" fill="none" xmlns="http://www.w3.org/2000/svg">
<path fill-rule="evenodd" clip-rule="evenodd" d="M29.1962 12.7925H4.75531V9.3055C4.75531 8.48542 5.41979 7.81995 6.23856 7.81995H7.81042V10.88H10.8655V7.81995H23.086V10.88H26.1411V7.81995H27.6686C28.5119 7.81995 29.1962 8.50539 29.1962 9.34995V12.7925ZM29.1962 27.71C29.1962 28.5515 28.5088 29.24 27.6686 29.24H6.28286C5.43965 29.24 4.75531 28.5545 4.75531 27.71V15.8525H29.1962V27.71ZM1.79796 28.8743C1.79796 30.5634 3.26289 32.3 4.94931 32.3H29.3902C31.0781 32.3 32.3002 30.7378 32.3002 28.8743C32.3002 28.2791 32.2513 9.90076 32.2513 8.9032C32.2513 5.71774 31.8221 4.75995 26.1411 4.75995V1.69995H23.086V4.75995H10.8655V1.69995H7.81042V4.75995H4.75531C3.075 4.75995 1.7002 6.13695 1.7002 7.81995L1.79796 28.8743Z" fill="white"/>
<path d="M18.5256 20.1398L17.2369 17.152L17.2326 17.1584C17.2197 17.1273 17.2007 17.0991 17.1767 17.0755C17.1527 17.0519 17.1243 17.0334 17.093 17.021C17.0615 17.0075 17.0277 17.0004 16.9935 17C16.9593 16.9996 16.9254 17.006 16.8937 17.0188C16.8619 17.0316 16.8331 17.0505 16.8086 17.0744C16.7842 17.0984 16.7648 17.1269 16.7514 17.1584L15.4627 20.1505L12.2408 20.4383C12.1704 20.4418 12.1041 20.4726 12.0561 20.5242C12.0157 20.5756 11.9959 20.6402 12.0007 20.7054C12.0055 20.7705 12.0344 20.8316 12.0819 20.8765L14.5305 23.0244L13.8152 26.2012C13.7995 26.2671 13.8103 26.3365 13.8453 26.3945C13.881 26.4534 13.9384 26.4958 14.0051 26.5127C14.0718 26.5296 14.1425 26.5195 14.2019 26.4847L16.9942 24.8136L19.7865 26.4761C19.8465 26.5141 19.9189 26.5272 19.9884 26.5127C20.0218 26.5053 20.0534 26.4914 20.0814 26.4717C20.1094 26.452 20.1332 26.4269 20.1514 26.3979C20.1696 26.3689 20.1818 26.3366 20.1874 26.3028C20.193 26.269 20.1918 26.2345 20.1838 26.2012L19.46 23.033L21.9108 20.8851C21.9362 20.8633 21.9571 20.8368 21.9722 20.8069C21.9873 20.777 21.9964 20.7445 21.9988 20.7111C22.0021 20.6771 21.9985 20.6427 21.9884 20.6101C21.9782 20.5774 21.9616 20.5471 21.9396 20.5209C21.9176 20.4947 21.8907 20.4732 21.8603 20.4575C21.8299 20.4419 21.7967 20.4324 21.7626 20.4297L18.5256 20.1398Z" fill="#89A05C"/>
</svg>
