<svg width="20" height="20" viewBox="0 0 20 20" fill="none" xmlns="http://www.w3.org/2000/svg">
<path fill-rule="evenodd" clip-rule="evenodd" d="M1.84456 10.1449L1.84453 10.1448C0.218639 8.75247 1.08356 6.08966 3.21836 5.91857C3.21836 5.91857 3.21836 5.91857 3.21836 5.91857L6.5093 5.65482L7.77722 2.60736C7.77722 2.60736 7.77722 2.60736 7.77722 2.60736C8.59954 0.630893 11.4004 0.630875 12.2228 2.60734C12.2228 2.60734 12.2228 2.60734 12.2228 2.60735L13.4907 5.65482L16.7816 5.91857C16.7816 5.91857 16.7816 5.91857 16.7816 5.91857C18.9165 6.08966 19.7814 8.7525 18.1554 10.1449C18.1554 10.1449 18.1554 10.1449 18.1554 10.1449L15.648 12.2921L16.4141 15.5027C16.9108 17.5844 14.6453 19.2307 12.8175 18.1146C12.8174 18.1146 12.8174 18.1146 12.8174 18.1146L9.99999 16.3943L7.18259 18.1146C7.18256 18.1146 7.18254 18.1146 7.18251 18.1146C5.35462 19.2308 3.08924 17.5843 3.58593 15.5027C3.58594 15.5027 3.58594 15.5027 3.58594 15.5027L4.35202 12.2921L1.84456 10.1449ZM6.05879 11.7378L5.0757 15.8579C4.89494 16.6154 5.7193 17.2142 6.38414 16.8082L10 14.6004L13.6158 16.8082C14.2807 17.2142 15.1051 16.6154 14.9243 15.8579L13.9412 11.7378L17.159 8.98227C17.7507 8.47559 17.4358 7.50682 16.6592 7.44458L12.4358 7.1061L10.8086 3.19522C10.5095 2.47614 9.49053 2.47614 9.19135 3.19523L7.5642 7.1061L3.34076 7.44458C2.5642 7.50682 2.24933 8.47559 2.84098 8.98227L6.05879 11.7378Z" fill="white"/>
</svg>
