<svg width="34" height="34" viewBox="0 0 34 34" fill="none" xmlns="http://www.w3.org/2000/svg">
<path fill-rule="evenodd" clip-rule="evenodd" d="M5.66706 13.5999C5.3541 13.5999 5.10039 13.8536 5.10039 14.1666V28.3332C5.10039 28.6462 5.35409 28.8999 5.66706 28.8999H9.06706V13.5999H5.66706ZM3.40039 14.1666C3.40039 12.9147 4.41522 11.8999 5.66706 11.8999H9.91706C10.3865 11.8999 10.7671 12.2805 10.7671 12.7499V29.7499C10.7671 30.2193 10.3865 30.5999 9.91706 30.5999H5.66706C4.41523 30.5999 3.40039 29.5851 3.40039 28.3332V14.1666Z" fill="white"/>
<path fill-rule="evenodd" clip-rule="evenodd" d="M18.9831 12.7499C18.9831 12.2805 19.3636 11.8999 19.8331 11.8999H26.4051C28.6813 11.8999 30.4124 13.9436 30.0384 16.1887L30.0384 16.1888L28.3467 26.3383C27.9369 28.7976 25.8091 30.5999 23.3161 30.5999H15.8821C14.5955 30.5999 13.3378 30.219 12.2674 29.5054L12.2673 29.5054L9.44491 27.6238C9.20844 27.4662 9.06641 27.2008 9.06641 26.9166V15.5832C9.06641 15.1138 9.44696 14.7332 9.91641 14.7332C10.3858 14.7332 10.7664 15.1138 10.7664 15.5832V26.4617L13.2103 28.0909C13.2103 28.0909 13.2103 28.0909 13.2103 28.0909C14.0016 28.6184 14.9312 28.8999 15.8821 28.8999H23.3161C24.9781 28.8999 26.3966 27.6983 26.6699 26.0589L27.3779 26.1769L26.6699 26.0589L28.3615 15.9094C28.5629 14.7003 27.6307 13.5999 26.4051 13.5999H19.8331C19.3636 13.5999 18.9831 13.2193 18.9831 12.7499Z" fill="white"/>
<path fill-rule="evenodd" clip-rule="evenodd" d="M15.2467 5.85564C16.0055 4.33787 17.7649 3.60912 19.3747 4.14572L19.3747 4.14572C21.006 4.68951 21.9773 6.36298 21.6401 8.04926L21.6401 8.04928L20.6666 12.9167C20.5745 13.3771 20.1267 13.6756 19.6664 13.5835C19.206 13.4915 18.9075 13.0436 18.9996 12.5833L19.9731 7.71589C20.1422 6.87037 19.6552 6.03118 18.8371 5.75848L19.1059 4.9521L18.8371 5.75848C18.0298 5.4894 17.1477 5.85484 16.7672 6.61587L16.7672 6.61591L12.0933 15.9635C11.9493 16.2515 11.655 16.4334 11.3331 16.4334H9.91641C9.44696 16.4334 9.06641 16.0528 9.06641 15.5834C9.06641 15.1139 9.44696 14.7334 9.91641 14.7334H10.8077L15.2467 5.85567C15.2467 5.85566 15.2467 5.85565 15.2467 5.85564Z" fill="white"/>
<path fill-rule="evenodd" clip-rule="evenodd" d="M18.3445 17.188C18.6143 17.0643 18.9051 17 19.2 17C19.4949 17 19.7857 17.0643 20.0555 17.188C20.3252 17.3116 20.5674 17.4914 20.7696 17.7152C20.8929 17.8516 21.1071 17.8516 21.2304 17.7152C21.6392 17.2629 22.2027 17 22.8 17C23.3973 17 23.9608 17.2629 24.3696 17.7152C24.7771 18.1661 25 18.7697 25 19.3917C25 20.0137 24.7771 20.6173 24.3696 21.0682L21.8903 23.8115C21.4138 24.3387 20.5862 24.3387 20.1097 23.8115L17.6305 21.0682C17.4283 20.8446 17.2699 20.5812 17.1624 20.2941C17.0549 20.007 17 19.7005 17 19.3917C17 19.0829 17.0549 18.7764 17.1624 18.4893C17.2699 18.2021 17.4283 17.9388 17.6305 17.7152C17.8326 17.4914 18.0749 17.3116 18.3445 17.188Z" fill="#9C7C38"/>
</svg>
