<svg width="20" height="20" viewBox="0 0 20 20" fill="none" xmlns="http://www.w3.org/2000/svg">
<path d="M16.8287 5.92261H3.17069C1.97369 5.92261 1 6.8963 1 8.09273V16.69C1 17.8864 1.97369 18.8601 3.17069 18.8601H16.8293C18.0263 18.8601 19 17.8864 19 16.6894V8.09273C19 6.8963 18.0263 5.92261 16.8287 5.92261ZM17.875 16.69C17.875 17.2665 17.4059 17.7351 16.8287 17.7351H3.17069C2.59413 17.7351 2.125 17.2665 2.125 16.6894V8.09273C2.125 7.51617 2.59413 7.04761 3.17069 7.04761H16.8293C17.4059 7.04761 17.875 7.51617 17.875 8.09273V16.69Z" fill="white"/>
<path d="M13.5753 7.61011H3.65556C2.73419 7.61011 2.6875 8.29298 2.6875 8.42967V16.0679C2.6875 16.5291 3.05538 17.1726 3.65556 17.1726H13.5747C14.1282 17.1726 14.5 16.6011 14.5 16.0679V8.42967C14.5 8.29298 14.4556 7.61011 13.5753 7.61011ZM13.375 16.0476H3.8125V8.73511H13.375V16.0476Z" fill="white"/>
<path d="M16.2004 14.2498C15.5834 14.2498 15.0811 14.7515 15.0811 15.3686C15.0811 15.9856 15.5828 16.4879 16.2004 16.4879C16.8181 16.4879 17.3204 15.9862 17.3198 15.3686C17.3198 14.7521 16.8175 14.2498 16.2004 14.2498ZM16.2004 15.9254L16.1948 15.3686C16.1948 15.3652 16.1971 15.3629 16.2004 15.3629V15.9254Z" fill="white"/>
<path d="M16.2004 11.426C15.5834 11.426 15.0811 11.9283 15.0811 12.5454C15.0811 13.1625 15.5828 13.6648 16.2004 13.6648C16.8181 13.6648 17.3198 13.1625 17.3198 12.5454C17.3198 11.9283 16.8175 11.426 16.2004 11.426ZM16.2004 13.1023L16.1948 12.5454C16.1948 12.542 16.1971 12.5398 16.2004 12.5398V13.1023Z" fill="white"/>
<path d="M16.75 9.29761H15.625C15.3139 9.29761 15.0625 9.54961 15.0625 9.86011C15.0625 10.1706 15.3139 10.4226 15.625 10.4226H16.75C17.0611 10.4226 17.3125 10.1706 17.3125 9.86011C17.3125 9.54961 17.0611 9.29761 16.75 9.29761Z" fill="white"/>
<path d="M16.75 7.61011H15.625C15.3139 7.61011 15.0625 7.86211 15.0625 8.17261C15.0625 8.48311 15.3139 8.73511 15.625 8.73511H16.75C17.0611 8.73511 17.3125 8.48311 17.3125 8.17261C17.3125 7.86211 17.0611 7.61011 16.75 7.61011Z" fill="white"/>
<path d="M10.4173 5.18514L6.39771 1.16495C6.17777 0.945016 5.82227 0.945016 5.60233 1.16495C5.38239 1.38433 5.38239 1.74039 5.60233 1.96033L9.62196 5.98052C9.73164 6.0902 9.87564 6.14533 10.0196 6.14533C10.1636 6.14533 10.3076 6.09077 10.4173 5.98052C10.6373 5.76114 10.6373 5.40508 10.4173 5.18514Z" fill="white"/>
<path d="M14.4381 1.16495C14.2182 0.945016 13.8627 0.945016 13.6427 1.16495L9.62198 5.18514C9.40205 5.40452 9.40205 5.76058 9.62198 5.98052C9.73167 6.0902 9.87567 6.14533 10.0197 6.14533C10.1637 6.14533 10.3077 6.09077 10.4174 5.98052L14.4381 1.96033C14.658 1.74095 14.658 1.38489 14.4381 1.16495Z" fill="white"/>
</svg>
