<svg width="20" height="20" viewBox="0 0 20 20" fill="none" xmlns="http://www.w3.org/2000/svg">
<path d="M9.82319 11.0463C10.2078 11.0463 10.5196 10.7345 10.5196 10.3499C10.5196 9.96534 10.2078 9.65356 9.82319 9.65356C9.4386 9.65356 9.12683 9.96534 9.12683 10.3499C9.12683 10.7345 9.4386 11.0463 9.82319 11.0463Z" fill="white"/>
<path d="M9.82319 14.7313C10.2078 14.7313 10.5196 14.4196 10.5196 14.035C10.5196 13.6504 10.2078 13.3386 9.82319 13.3386C9.4386 13.3386 9.12683 13.6504 9.12683 14.035C9.12683 14.4196 9.4386 14.7313 9.82319 14.7313Z" fill="white"/>
<path d="M15.0476 4.11611C15.0076 4.06613 13.9247 2.50348 13.8881 2.43352C13.7148 2.087 13.3316 1.94706 12.9851 2.087C12.8452 2.12032 10.4496 4.35267 9.95979 4.77915C9.48334 4.38599 7.01109 2.12032 6.87115 2.05368C6.52464 1.91374 6.10815 2.05368 5.96821 2.4002C5.9349 2.47017 4.81539 4.08612 4.76874 4.16609C3.09615 4.37933 1.80005 5.81203 1.80005 7.54127V17.3036C1.80005 17.6868 2.11324 18 2.49641 18H17.4332C17.8163 18 18.1295 17.6868 18.1295 17.3036V7.50795C18.1262 5.73873 16.7701 4.2827 15.0476 4.11611ZM13.0551 3.75293C13.265 4.09945 13.5082 4.4493 13.7515 4.68919C13.6815 4.79248 12.6753 6.28849 12.2921 6.94819C11.9089 6.46174 11.4925 6.01194 11.076 5.59213C11.5258 5.21229 12.9518 3.8229 13.0551 3.75293ZM6.80118 3.78959C6.90447 3.85955 8.33051 5.21229 8.78031 5.59546C8.32718 6.01194 7.94734 6.46507 7.56418 6.95153C7.18102 6.29182 6.17479 4.83246 6.10482 4.72917C6.31473 4.48261 6.59461 4.1361 6.80118 3.78959ZM16.7701 16.6739H3.15612V7.57459C3.15612 6.53171 3.9491 5.6421 4.99198 5.53548C5.07527 5.66876 6.42135 7.60791 6.87115 8.58081C6.97444 8.79072 7.18435 8.96397 7.42757 8.96397C7.42757 8.96397 7.81407 9.00729 8.05396 8.58081C8.61039 7.76117 9.21679 7.01483 9.89316 6.38511C10.6062 7.02816 11.2592 7.80115 11.8056 8.65078C11.9089 8.86069 12.1188 8.96397 12.3621 8.96397C12.6619 8.96397 12.8818 8.75407 12.9885 8.54749C13.4416 7.57459 14.7843 5.62211 14.8676 5.4955C15.9172 5.5688 16.7735 6.44175 16.7735 7.53794V16.6739H16.7701Z" fill="white"/>
</svg>
