<svg width="20" height="20" viewBox="0 0 20 20" fill="none" xmlns="http://www.w3.org/2000/svg">
<path d="M17.0308 13.4201C16.4407 12.5143 15.6219 11.7879 14.6568 11.3107C14.62 11.2613 14.5814 11.2134 14.5417 11.1663C15.133 10.2762 15.4546 9.22075 15.4546 8.14556C15.4546 7.62711 15.3819 7.12542 15.2461 6.64997C16.0397 6.15936 16.5455 5.28069 16.5455 4.3274C16.5455 2.82354 15.322 1.6001 13.8182 1.6001C12.8649 1.6001 11.9862 2.10587 11.4956 2.89947C11.0202 2.76372 10.5185 2.691 10 2.691C9.48163 2.691 8.97991 2.76372 8.50446 2.89947C8.01378 2.10587 7.13514 1.6001 6.18182 1.6001C4.678 1.6001 3.45455 2.82354 3.45455 4.32736C3.45455 5.28069 3.96033 6.15933 4.75392 6.64994C4.61818 7.12539 4.54545 7.62711 4.54545 8.14553C4.54545 9.22068 4.86703 10.2761 5.45836 11.1663C5.4186 11.2133 5.38002 11.2613 5.34327 11.3107C4.37818 11.7879 3.55926 12.5142 2.9692 13.4201C2.33517 14.3935 2 15.5246 2 16.691C2 17.5933 2.73407 18.3274 3.63637 18.3274C5.17465 18.3274 15.0916 18.3274 16.3636 18.3274C17.2659 18.3274 18 17.5933 18 16.691C18 15.5246 17.6649 14.3935 17.0308 13.4201ZM13.8182 2.691C14.7205 2.691 15.4546 3.42507 15.4546 4.32736C15.4546 4.83457 15.2158 5.30656 14.8294 5.61239C14.3144 4.63446 13.5111 3.8312 12.5332 3.31618C12.839 2.92985 13.311 2.691 13.8182 2.691ZM10 3.78193C12.4061 3.78193 14.3636 5.73945 14.3636 8.14556C14.3636 8.98601 14.1307 9.78349 13.6875 10.4793C13.3732 10.3157 13.0285 10.2127 12.6658 10.1766C12.7065 9.9883 12.7273 9.79516 12.7273 9.60011C12.7273 8.09629 11.5038 6.87285 10 6.87285C8.4962 6.87285 7.27275 8.09629 7.27275 9.60011C7.27275 9.79516 7.29353 9.98827 7.3342 10.1766C6.9715 10.2127 6.62682 10.3157 6.31253 10.4793C5.86929 9.78349 5.63639 8.98601 5.63639 8.14556C5.63639 5.73945 7.5939 3.78193 10 3.78193ZM11.6364 9.60011C11.6364 9.84815 11.5803 10.0907 11.4732 10.3115C10.9302 10.5023 10.4532 10.8732 10.0667 11.411C10.0437 11.4429 10.0215 11.4749 10 11.5068C9.97855 11.4749 9.95637 11.4429 9.9334 11.411C9.54688 10.8732 9.06982 10.5023 8.52684 10.3115C8.41978 10.0907 8.36368 9.84815 8.36368 9.60011C8.36368 8.69782 9.09776 7.96375 10 7.96375C10.9023 7.96375 11.6364 8.69782 11.6364 9.60011ZM5.17064 5.61239C4.78431 5.30656 4.54549 4.83457 4.54549 4.32736C4.54549 3.42507 5.27956 2.691 6.18185 2.691C6.68906 2.691 7.16105 2.92982 7.46688 3.31615C6.48892 3.8312 5.68569 4.63446 5.17064 5.61239ZM4.18183 16.3274C4.18183 16.6546 4.26135 16.9635 4.40128 17.2365H3.63637C3.3356 17.2365 3.0909 16.9918 3.0909 16.691C3.0909 15.281 3.70344 13.9568 4.72269 13.0384C4.71776 13.1144 4.71443 13.1908 4.71443 13.2677C4.71443 13.7569 4.82028 14.2264 5.03515 14.6902C4.51968 15.0524 4.18183 15.651 4.18183 16.3274ZM6.9091 17.2365H6.18182C5.68056 17.2365 5.27273 16.8287 5.27273 16.3274C5.27273 15.8261 5.68056 15.4183 6.18182 15.4183H6.9091C7.41036 15.4183 7.81818 15.8261 7.81818 16.3274C7.81818 16.8287 7.41039 17.2365 6.9091 17.2365ZM11.3104 17.2365H8.68964C8.82956 16.9635 8.90908 16.6546 8.90908 16.3274C8.90908 15.2246 8.01189 14.3274 6.9091 14.3274H6.18182C6.1452 14.3274 6.10883 14.3285 6.0727 14.3305C5.89148 13.9766 5.80533 13.6324 5.80533 13.2678C5.80533 12.1189 6.58971 11.2526 7.62994 11.2526C8.98756 11.2526 9.45579 12.8324 9.47451 12.8977C9.54018 13.1337 9.75479 13.298 9.99972 13.298C10.2447 13.298 10.4593 13.1356 10.5249 12.8997C10.5442 12.8324 11.0124 11.2526 12.3701 11.2526C13.4103 11.2526 14.1947 12.1189 14.1947 13.2678C14.1947 13.6324 14.1085 13.9765 13.9273 14.3305C13.8912 14.3285 13.8548 14.3274 13.8182 14.3274H13.0909C11.9881 14.3274 11.0909 15.2246 11.0909 16.3274C11.0909 16.6546 11.1705 16.9635 11.3104 17.2365ZM13.8182 17.2365H13.0909C12.5897 17.2365 12.1818 16.8287 12.1818 16.3274C12.1818 15.8261 12.5897 15.4183 13.0909 15.4183H13.8182C14.3195 15.4183 14.7273 15.8261 14.7273 16.3274C14.7273 16.8287 14.3195 17.2365 13.8182 17.2365ZM16.3637 17.2365H15.5988C15.7387 16.9635 15.8182 16.6546 15.8182 16.3274C15.8182 15.651 15.4804 15.0524 14.9649 14.6902C15.1798 14.2265 15.2856 13.757 15.2856 13.2678C15.2856 13.1908 15.2823 13.1144 15.2773 13.0385C16.2965 13.9568 16.9091 15.281 16.9091 16.691C16.9091 16.9918 16.6644 17.2365 16.3637 17.2365Z" fill="white"/>
<path d="M9.99999 9.05456C10.3012 9.05456 10.5455 8.81034 10.5455 8.50909C10.5455 8.20784 10.3012 7.96362 9.99999 7.96362C9.69874 7.96362 9.45453 8.20784 9.45453 8.50909C9.45453 8.81034 9.69874 9.05456 9.99999 9.05456Z" fill="white"/>
<path d="M8.36364 6.50915C8.66489 6.50915 8.90911 6.26493 8.90911 5.96368C8.90911 5.66243 8.66489 5.41821 8.36364 5.41821C8.06239 5.41821 7.81818 5.66243 7.81818 5.96368C7.81818 6.26493 8.06239 6.50915 8.36364 6.50915Z" fill="white"/>
<path d="M11.6364 6.50915C11.9377 6.50915 12.1819 6.26493 12.1819 5.96368C12.1819 5.66243 11.9377 5.41821 11.6364 5.41821C11.3352 5.41821 11.0909 5.66243 11.0909 5.96368C11.0909 6.26493 11.3352 6.50915 11.6364 6.50915Z" fill="white"/>
</svg>
