<svg width="20" height="20" viewBox="0 0 20 20" fill="none" xmlns="http://www.w3.org/2000/svg">
<path d="M16.7389 15.3175C16.9929 14.1776 17.6378 10.733 17.6378 10.733C19.0466 9.61776 19.4149 7.68709 18.4967 6.49176C18.1014 5.97655 17.502 5.64291 16.8089 5.55236C15.9549 5.44091 15.0337 5.70067 14.2677 6.26485C13.7695 4.38752 12.0587 3 10.0299 3C8.0165 3 6.3168 4.36685 5.80438 6.22249C5.03062 5.63697 4.09147 5.36594 3.22232 5.47952C2.52911 5.56988 1.92953 5.90352 1.53401 6.41891C1.05304 7.0457 0.883529 7.93146 1.0805 8.78837C1.25917 9.56564 1.72444 10.1886 2.41317 10.7329C2.41317 10.7329 3.06026 14.1775 3.31462 15.3175C3.50989 16.1924 4.40711 16.8796 5.30347 16.8796H14.75C15.6463 16.8796 16.5438 16.1924 16.7389 15.3175ZM10.0299 4.1837C11.7532 4.1837 13.162 5.5557 13.2277 7.26685C12.4278 6.98418 11.4047 7.17091 10.565 7.81776C10.4019 7.94352 10.2547 8.07843 10.1228 8.21976C9.86523 8.01594 9.5425 7.77182 9.37093 7.68558C8.21262 7.10158 7.39984 7.04297 6.83511 7.20291C6.93305 5.52158 8.32826 4.1837 10.0299 4.1837ZM3.79311 10.2997C2.71498 9.7597 2.3502 9.02824 2.23408 8.52321C2.11717 8.01437 2.20874 7.48418 2.47304 7.1397C2.73286 6.80115 3.10717 6.68843 3.37541 6.65346C3.9462 6.57867 4.57886 6.77139 5.11111 7.18164C5.49814 7.47976 5.78777 7.8577 5.9488 8.27455C6.02105 8.4614 6.18287 8.59903 6.37899 8.64037C6.57523 8.6817 6.77874 8.62091 6.9202 8.47903C7.34141 8.05661 8.40171 8.52261 8.83644 8.74182C8.92432 8.78909 9.21571 9.00994 9.48911 9.22867C9.35765 9.58691 9.31359 9.95261 9.36311 10.2998H7.95971L3.68717 8.1597C3.51171 8.07188 3.2985 8.14285 3.21062 8.31812C3.1228 8.49352 3.19371 8.70691 3.36905 8.79467L6.37377 10.2997H3.79311ZM15.5854 15.051C15.495 15.3897 15.0997 15.6959 14.75 15.6959H5.30347C4.95377 15.6959 4.5585 15.3897 4.46802 15.051L3.72335 11.4835H16.3302L15.5854 15.051ZM13.5901 10.2997L15.7157 9.15158C15.8883 9.05837 15.9525 8.84285 15.8594 8.67037C15.7661 8.4977 15.5505 8.43358 15.3781 8.52667L12.0956 10.2998H10.5818C10.404 9.86103 10.6853 9.21964 11.2875 8.75546C11.9197 8.26849 12.7375 8.17691 13.1104 8.55158C13.2519 8.69346 13.4555 8.75449 13.6515 8.71309C13.8475 8.67194 14.0095 8.53449 14.0818 8.34764C14.2435 7.93024 14.5332 7.55212 14.9197 7.25424C15.452 6.84412 16.0848 6.65146 16.6555 6.72624C16.9237 6.76127 17.2978 6.87406 17.5577 7.21267C18.0881 7.90315 17.766 9.0454 16.8395 9.75897C16.4531 10.0568 16.0143 10.2506 15.5707 10.2998H13.5901V10.2997Z" fill="white"/>
<path d="M10.0299 6.1676C10.226 6.1676 10.385 6.00863 10.385 5.81251V5.22033C10.385 5.02426 10.226 4.86523 10.0299 4.86523C9.83377 4.86523 9.6748 5.02426 9.6748 5.22033V5.81251C9.6748 6.00863 9.83377 6.1676 10.0299 6.1676Z" fill="white"/>
<path d="M11.2155 6.61354C11.2714 6.64566 11.3324 6.66099 11.3925 6.66099C11.5153 6.66099 11.6348 6.59717 11.7005 6.48305L11.9961 5.96996C12.0941 5.80002 12.0356 5.58287 11.8657 5.48493C11.6957 5.38711 11.4787 5.44542 11.3807 5.61542L11.0851 6.12845C10.9871 6.29845 11.0456 6.51566 11.2155 6.61354Z" fill="white"/>
<path d="M8.35978 6.48311C8.42548 6.59717 8.54499 6.66098 8.66778 6.66098C8.7279 6.66098 8.78893 6.64565 8.84475 6.61347C9.01475 6.51553 9.07311 6.29838 8.97511 6.12844L8.67936 5.61541C8.58148 5.44541 8.36427 5.38704 8.19439 5.48504C8.02439 5.58298 7.96602 5.80013 8.06402 5.97007L8.35978 6.48311Z" fill="white"/>
</svg>
