<svg width="20" height="20" viewBox="0 0 20 20" fill="none" xmlns="http://www.w3.org/2000/svg">
<path d="M16.299 1.60132C15.1389 1.60132 14.1991 2.54116 14.1991 3.70117V15.6004C14.1991 15.7385 14.24 15.8736 14.3167 15.9886L15.7166 18.0885C15.9936 18.5041 16.6043 18.5041 16.8814 18.0885L18.2813 15.9886C18.3579 15.8736 18.3988 15.7385 18.3988 15.6004V3.70117C18.3988 2.54116 17.459 1.60132 16.299 1.60132ZM16.299 3.00122C16.6858 3.00122 16.9989 3.31429 16.9989 3.70117V5.10108H15.599V3.70117C15.599 3.31429 15.9121 3.00122 16.299 3.00122ZM16.299 16.4383L15.599 15.3884V6.50098H16.9989V15.3884L16.299 16.4383Z" fill="white"/>
<path d="M12.6423 6.05942C12.6414 6.05836 12.6406 6.0573 12.6398 6.05627C12.6255 6.03915 12.6105 6.02227 12.5942 6.00596L8.39446 1.80625C8.37813 1.78992 8.36128 1.77495 8.34415 1.7607C8.34313 1.75984 8.34203 1.75902 8.34101 1.7582C8.19746 1.63985 8.02812 1.59179 7.86424 1.60126H2.29993C1.91335 1.60126 1.59998 1.91463 1.59998 2.30121V17.7001C1.59998 18.0867 1.91335 18.4001 2.29993 18.4001H12.0993C12.4858 18.4001 12.7992 18.0867 12.7992 17.7001V6.53619C12.8087 6.37235 12.7606 6.203 12.6423 6.05942ZM10.4094 5.80093H8.59946V3.99101L10.4094 5.80093ZM2.99988 17.0002V3.00113H7.19959V6.50089C7.19959 6.88747 7.51296 7.20084 7.89954 7.20084H11.3993V17.0002H2.99988Z" fill="white"/>
<path d="M9.29944 8.60083H4.39978C4.0132 8.60083 3.69983 8.9142 3.69983 9.30078C3.69983 9.68736 4.0132 10.0007 4.39978 10.0007H9.29944C9.68602 10.0007 9.99939 9.68736 9.99939 9.30078C9.99939 8.9142 9.68599 8.60083 9.29944 8.60083Z" fill="white"/>
<path d="M9.29944 11.4006H4.39978C4.0132 11.4006 3.69983 11.714 3.69983 12.1006C3.69983 12.4872 4.0132 12.8005 4.39978 12.8005H9.29944C9.68602 12.8005 9.99939 12.4872 9.99939 12.1006C9.99939 11.714 9.68599 11.4006 9.29944 11.4006Z" fill="white"/>
<path d="M9.29944 14.2004H4.39978C4.0132 14.2004 3.69983 14.5138 3.69983 14.9004C3.69983 15.287 4.0132 15.6003 4.39978 15.6003H9.29944C9.68602 15.6003 9.99939 15.287 9.99939 14.9004C9.99939 14.5138 9.68599 14.2004 9.29944 14.2004Z" fill="white"/>
</svg>
