<svg width="40" height="40" viewBox="0 0 40 40" fill="none" xmlns="http://www.w3.org/2000/svg">
<path fill-rule="evenodd" clip-rule="evenodd" d="M3.3335 20.0002C3.3335 10.7954 10.7954 3.3335 20.0002 3.3335C29.205 3.3335 36.6668 10.7954 36.6668 20.0002C36.6668 29.205 29.205 36.6668 20.0002 36.6668C10.7954 36.6668 3.3335 29.205 3.3335 20.0002ZM20.0002 6.66683C12.6364 6.66683 6.66683 12.6364 6.66683 20.0002C6.66683 27.364 12.6364 33.3335 20.0002 33.3335C27.364 33.3335 33.3335 27.364 33.3335 20.0002C33.3335 12.6364 27.364 6.66683 20.0002 6.66683ZM20.0002 11.6668C20.9206 11.6668 21.6668 12.413 21.6668 13.3335V18.3335H26.6668C27.5873 18.3335 28.3335 19.0797 28.3335 20.0002C28.3335 20.9206 27.5873 21.6668 26.6668 21.6668H21.6668V26.6668C21.6668 27.5873 20.9206 28.3335 20.0002 28.3335C19.0797 28.3335 18.3335 27.5873 18.3335 26.6668V21.6668H13.3335C12.413 21.6668 11.6668 20.9206 11.6668 20.0002C11.6668 19.0797 12.413 18.3335 13.3335 18.3335H18.3335V13.3335C18.3335 12.413 19.0797 11.6668 20.0002 11.6668Z" fill="#292D32"/>
</svg>
