<svg width="24" height="24" viewBox="0 0 24 24" fill="none" xmlns="http://www.w3.org/2000/svg">
<g clip-path="url(#clip0_3443_1103)">
<path fill-rule="evenodd" clip-rule="evenodd" d="M12.2929 5.29289C11.9024 5.68342 11.9024 6.31658 12.2929 6.70711L16.5858 11H5C4.44772 11 4 11.4477 4 12C4 12.5523 4.44772 13 5 13H16.5858L12.2929 17.2929C11.9024 17.6834 11.9024 18.3166 12.2929 18.7071C12.6834 19.0976 13.3166 19.0976 13.7071 18.7071L19.7071 12.7071C20.0976 12.3166 20.0976 11.6834 19.7071 11.2929L13.7071 5.29289C13.3166 4.90237 12.6834 4.90237 12.2929 5.29289Z" fill="white"/>
<path fill-rule="evenodd" clip-rule="evenodd" d="M48.7799 22.0536C50.4071 23.6808 50.4071 26.319 48.7799 27.9462L30.8929 45.8333H79.167C81.4682 45.8333 83.3337 47.6987 83.3337 49.9999C83.3337 52.3011 81.4682 54.1666 79.167 54.1666H30.8929L48.7799 72.0536C50.4071 73.6808 50.4071 76.319 48.7799 77.9462C47.1528 79.5734 44.5146 79.5734 42.8874 77.9462L17.8874 52.9462C16.2602 51.319 16.2602 48.6808 17.8874 47.0536L42.8874 22.0536C44.5146 20.4265 47.1528 20.4265 48.7799 22.0536Z" fill="#111111"/>
</g>
<defs>
<clipPath id="clip0_3443_1103">
<rect width="24" height="24" fill="white"/>
</clipPath>
</defs>
</svg>
