<svg width="42" height="42" viewBox="0 0 42 42" fill="none" xmlns="http://www.w3.org/2000/svg">
<path fill-rule="evenodd" clip-rule="evenodd" d="M16.5802 10.2314C17.3454 10.9933 17.3454 12.2286 16.5802 12.9905L13.8017 15.7567H25.7271C26.6695 15.7567 28.9631 15.9726 31.0917 17.2594C33.3622 18.6319 35.2798 21.1383 35.2798 25.2677V30.389C35.2798 31.4665 34.4025 32.34 33.3203 32.34C32.238 32.34 31.3607 31.4665 31.3607 30.389V25.2677C31.3607 22.5687 30.2166 21.2952 29.0578 20.5947C27.7573 19.8086 26.2543 19.6587 25.7271 19.6587H13.8017L16.5802 22.4249C17.3454 23.1868 17.3454 24.4221 16.5802 25.184C15.8149 25.9459 14.5742 25.9459 13.809 25.184L6.2998 17.7077L13.809 10.2314C14.5742 9.4695 15.8149 9.4695 16.5802 10.2314Z" fill="#111111"/>
</svg>
