<svg width="40" height="40" viewBox="0 0 40 40" fill="none" xmlns="http://www.w3.org/2000/svg">
<path fill-rule="evenodd" clip-rule="evenodd" d="M18.3333 6.66665C17.4129 6.66665 16.6667 7.41284 16.6667 8.33331V9.99998H23.3333V8.33331C23.3333 7.41282 22.5872 6.66665 21.6667 6.66665H18.3333ZM26.6667 9.99998V8.33331C26.6667 5.5719 24.4282 3.33331 21.6667 3.33331H18.3333C15.5719 3.33331 13.3333 5.57189 13.3333 8.33331V9.99998H11.5335C9.79991 9.99998 8.35571 11.3289 8.21174 13.0565L6.82284 29.7232C6.6609 31.6667 8.1946 33.3333 10.1447 33.3333H29.8553C31.8053 33.3333 33.3391 31.6667 33.1771 29.7232C33.1771 29.7232 33.1771 29.7232 33.1771 29.7232L31.7882 13.0565C31.6443 11.329 30.2003 9.99998 28.4665 9.99998H26.6667ZM11.5336 13.3333L10.1447 30.0001L29.8552 30L28.4664 13.3333C28.4664 13.3333 28.4664 13.3333 28.4664 13.3333L11.5336 13.3333ZM10.1436 30L8.48375 29.8616L10.1437 30" fill="#111111"/>
</svg>
