<svg width="32" height="32" viewBox="0 0 32 32" fill="none" xmlns="http://www.w3.org/2000/svg">
<path fill-rule="evenodd" clip-rule="evenodd" d="M4 8C4 5.79086 5.79086 4 8 4H21.3333C22.0697 4 22.6667 4.59695 22.6667 5.33333C22.6667 6.06971 22.0697 6.66667 21.3333 6.66667H8C7.26362 6.66667 6.66667 7.26362 6.66667 8V24C6.66667 24.7364 7.26361 25.3333 8 25.3333H24C24.7364 25.3333 25.3333 24.7364 25.3333 24V16C25.3333 15.2636 25.9303 14.6667 26.6667 14.6667C27.403 14.6667 28 15.2636 28 16V24C28 26.2092 26.2092 28 24 28H8C5.79087 28 4 26.2092 4 24V8ZM27.0572 5.72386C27.5779 5.20316 28.4221 5.20316 28.9428 5.72386C29.4635 6.24456 29.4635 7.08878 28.9428 7.60948L16.9428 19.6095C16.4221 20.1302 15.5779 20.1302 15.0572 19.6095L11.0572 15.6095C10.5365 15.0888 10.5365 14.2446 11.0572 13.7239C11.5779 13.2032 12.4221 13.2032 12.9428 13.7239L16 16.781L27.0572 5.72386Z" fill="white"/>
</svg>
