<svg width="32" height="32" viewBox="0 0 32 32" fill="none" xmlns="http://www.w3.org/2000/svg">
<path fill-rule="evenodd" clip-rule="evenodd" d="M7.05727 7.05727C7.57797 6.53657 8.42219 6.53657 8.94289 7.05727L16.0001 14.1145L23.0573 7.05727C23.578 6.53657 24.4222 6.53657 24.9429 7.05727C25.4636 7.57797 25.4636 8.42219 24.9429 8.94289L17.8857 16.0001L24.9429 23.0573C25.4636 23.578 25.4636 24.4222 24.9429 24.9429C24.4222 25.4636 23.578 25.4636 23.0573 24.9429L16.0001 17.8857L8.94289 24.9429C8.42219 25.4636 7.57797 25.4636 7.05727 24.9429C6.53657 24.4222 6.53657 23.578 7.05727 23.0573L14.1145 16.0001L7.05727 8.94289C6.53657 8.42219 6.53657 7.57797 7.05727 7.05727Z" fill="#111111"/>
</svg>
