<svg width="24" height="24" viewBox="0 0 24 24" fill="none" xmlns="http://www.w3.org/2000/svg">
<path fill-rule="evenodd" clip-rule="evenodd" d="M19.5429 4.45714C19.243 4.15727 18.757 4.15727 18.4571 4.45714L10 12.9142V14H11.0858L19.5429 5.5429C19.8427 5.24307 19.8428 4.75697 19.5429 4.45714ZM17.0429 3.04288C18.1238 1.96202 19.8762 1.96202 20.9571 3.04288C22.038 4.12376 22.038 5.87623 20.9571 6.95712C20.9571 6.95712 20.9571 6.95711 20.9571 6.95712L12.2071 15.7071C12.0196 15.8947 11.7652 16 11.5 16H9C8.44771 16 8 15.5523 8 15V12.5C8 12.2348 8.10536 11.9804 8.29289 11.7929L17.0429 3.04288ZM3 6.00001C3 4.34315 4.34315 3.00001 6 3.00001H12C12.5523 3.00001 13 3.44772 13 4.00001C13 4.55229 12.5523 5.00001 12 5.00001H6C5.44771 5.00001 5 5.44772 5 6.00001V18C5 18.5523 5.44771 19 6 19H18C18.5523 19 19 18.5523 19 18V12C19 11.4477 19.4477 11 20 11C20.5523 11 21 11.4477 21 12V18C21 19.6569 19.6569 21 18 21H6C4.34315 21 3 19.6569 3 18V6.00001Z" fill="white"/>
</svg>
