<svg width="30" height="30" viewBox="0 0 30 30" fill="none" xmlns="http://www.w3.org/2000/svg">
<mask id="mask0_3304_41982" style="mask-type:luminance" maskUnits="userSpaceOnUse" x="0" y="0" width="30" height="30">
<path d="M30 0H0V30H30V0Z" fill="white"/>
</mask>
<g mask="url(#mask0_3304_41982)">
<path fill-rule="evenodd" clip-rule="evenodd" d="M2.62502 15C2.62502 8.16548 8.1655 2.625 15 2.625C21.8346 2.625 27.375 8.16549 27.375 15C27.375 21.8345 21.8346 27.375 15 27.375C13.1008 27.375 11.2988 26.9463 9.68809 26.1799L3.97618 27.3521C3.60575 27.4281 3.22191 27.3129 2.95452 27.0455C2.68713 26.7781 2.57197 26.3943 2.64799 26.0239L3.82019 20.312C3.05363 18.7012 2.62502 16.8993 2.62502 15ZM15 4.875C9.40814 4.875 4.87502 9.40812 4.87502 15C4.87502 16.6756 5.28115 18.253 5.99939 19.6424C6.11754 19.871 6.15378 20.1332 6.10205 20.3852L5.19501 24.8051L9.61486 23.898C9.86689 23.8463 10.129 23.8825 10.3576 24.0007C11.747 24.7188 13.3245 25.125 15 25.125C20.5919 25.125 25.125 20.5919 25.125 15C25.125 9.40811 20.5919 4.875 15 4.875Z" fill="#111111"/>
<path fill-rule="evenodd" clip-rule="evenodd" d="M7.5 15C7.5 13.9645 8.33947 13.125 9.375 13.125H9.3875C10.423 13.125 11.2625 13.9645 11.2625 15V15.0125C11.2625 16.048 10.423 16.8875 9.3875 16.8875H9.375C8.33947 16.8875 7.5 16.048 7.5 15.0125V15Z" fill="#111111"/>
<path fill-rule="evenodd" clip-rule="evenodd" d="M13.125 15C13.125 13.9645 13.9645 13.125 15 13.125H15.0125C16.048 13.125 16.8875 13.9645 16.8875 15V15.0125C16.8875 16.048 16.048 16.8875 15.0125 16.8875H15C13.9645 16.8875 13.125 16.048 13.125 15.0125V15Z" fill="#111111"/>
<path fill-rule="evenodd" clip-rule="evenodd" d="M18.75 15C18.75 13.9645 19.5895 13.125 20.625 13.125H20.6375C21.673 13.125 22.5125 13.9645 22.5125 15V15.0125C22.5125 16.048 21.673 16.8875 20.6375 16.8875H20.625C19.5895 16.8875 18.75 16.048 18.75 15.0125V15Z" fill="#111111"/>
</g>
</svg>
