<svg width="20" height="20" viewBox="0 0 20 20" fill="none" xmlns="http://www.w3.org/2000/svg">
<mask id="mask0_3001_202" style="mask-type:luminance" maskUnits="userSpaceOnUse" x="0" y="0" width="20" height="20">
<path d="M20 0H0V20H20V0Z" fill="white"/>
</mask>
<g mask="url(#mask0_3001_202)">
<path fill-rule="evenodd" clip-rule="evenodd" d="M1.75001 10C1.75001 5.44366 5.44366 1.75 10 1.75C14.5564 1.75 18.25 5.44366 18.25 10C18.25 14.5563 14.5564 18.25 10 18.25C8.73385 18.25 7.53252 17.9642 6.45872 17.4532L2.65079 18.2347C2.40383 18.2854 2.14794 18.2086 1.96968 18.0304C1.79142 17.8521 1.71464 17.5962 1.76532 17.3493L2.54679 13.5413C2.03576 12.4675 1.75001 11.2662 1.75001 10ZM10 3.25C6.27209 3.25 3.25001 6.27208 3.25001 10C3.25001 11.117 3.52077 12.1687 3.9996 13.095C4.07836 13.2473 4.10252 13.4221 4.06803 13.5901L3.46334 16.5367L6.40991 15.932C6.57793 15.8975 6.75269 15.9217 6.90506 16.0004C7.83134 16.4792 8.883 16.75 10 16.75C13.728 16.75 16.75 13.7279 16.75 10C16.75 6.27208 13.728 3.25 10 3.25Z" fill="#111111"/>
<path fill-rule="evenodd" clip-rule="evenodd" d="M5 10C5 9.30964 5.55964 8.75 6.25 8.75H6.25833C6.94869 8.75 7.50833 9.30964 7.50833 10V10.0083C7.50833 10.6987 6.94869 11.2583 6.25833 11.2583H6.25C5.55964 11.2583 5 10.6987 5 10.0083V10Z" fill="#111111"/>
<path fill-rule="evenodd" clip-rule="evenodd" d="M8.75 10C8.75 9.30964 9.30964 8.75 10 8.75H10.0083C10.6987 8.75 11.2583 9.30964 11.2583 10V10.0083C11.2583 10.6987 10.6987 11.2583 10.0083 11.2583H10C9.30964 11.2583 8.75 10.6987 8.75 10.0083V10Z" fill="#111111"/>
<path fill-rule="evenodd" clip-rule="evenodd" d="M12.5 10C12.5 9.30964 13.0596 8.75 13.75 8.75H13.7583C14.4487 8.75 15.0083 9.30964 15.0083 10V10.0083C15.0083 10.6987 14.4487 11.2583 13.7583 11.2583H13.75C13.0596 11.2583 12.5 10.6987 12.5 10.0083V10Z" fill="#111111"/>
</g>
</svg>
