<svg width="32" height="32" viewBox="0 0 32 32" fill="none" xmlns="http://www.w3.org/2000/svg">
<path d="M4.80859 19.4536V24.156L16.0013 25.4069L27.1939 24.156V19.4536L16.0013 18.2026L4.80859 19.4536Z" fill="#FACB6F"/>
<path opacity="0.05" d="M8.48652 24.156V19.4536L17.8403 18.4083L16.0013 18.2026L4.80859 19.4536V24.156L16.0013 25.4069L17.8403 25.2014L8.48652 24.156Z" fill="black"/>
<path d="M27.1925 18.2026L30.2516 9.14635L29.6087 8.45754C29.6087 8.45754 21.6699 18.1013 16.5883 7.49316H15.4113C10.3298 18.1013 2.39092 8.45754 2.39092 8.45754L1.74805 9.14635L4.8071 18.2026H27.1925Z" fill="#FACB6F"/>
<g opacity="0.05">
<path d="M2.39092 8.45755L1.74805 9.14642L4.8071 18.2027H8.48503L6.25673 11.6059C4.01148 10.4259 2.39092 8.45755 2.39092 8.45755Z" fill="black"/>
</g>
<path d="M16.0006 8.58205C16.8952 8.58205 17.6204 7.85687 17.6204 6.96231C17.6204 6.06775 16.8952 5.34256 16.0006 5.34256C15.106 5.34256 14.3809 6.06775 14.3809 6.96231C14.3809 7.85687 15.106 8.58205 16.0006 8.58205Z" fill="#FEB22E"/>
<path d="M2.17248 10.4622C3.06704 10.4622 3.79223 9.73706 3.79223 8.84249C3.79223 7.94793 3.06704 7.22275 2.17248 7.22275C1.27792 7.22275 0.552734 7.94793 0.552734 8.84249C0.552734 9.73706 1.27792 10.4622 2.17248 10.4622Z" fill="#FEB22E"/>
<path d="M29.8287 10.4622C30.7233 10.4622 31.4485 9.73706 31.4485 8.84249C31.4485 7.94793 30.7233 7.22275 29.8287 7.22275C28.9342 7.22275 28.209 7.94793 28.209 8.84249C28.209 9.73706 28.9342 10.4622 29.8287 10.4622Z" fill="#FEB22E"/>
<path d="M16.0005 15.1517C16.7527 15.1517 17.3624 14.2542 17.3624 13.1472C17.3624 12.0401 16.7527 11.1427 16.0005 11.1427C15.2484 11.1427 14.6387 12.0401 14.6387 13.1472C14.6387 14.2542 15.2484 15.1517 16.0005 15.1517Z" fill="#FF6465"/>
<path d="M27.1929 16.9518H4.80758C4.1167 16.9518 3.55664 17.5118 3.55664 18.2027C3.55664 18.8936 4.1167 19.4537 4.80758 19.4537H27.193C27.8838 19.4537 28.4439 18.8936 28.4439 18.2027C28.4438 17.5118 27.8838 16.9518 27.1929 16.9518Z" fill="#FEB22E"/>
<path opacity="0.06" d="M7.23457 18.2026C7.23457 17.5117 7.79463 16.9517 8.48551 16.9517H4.80758C4.1167 16.9517 3.55664 17.5117 3.55664 18.2026C3.55664 18.8935 4.1167 19.4535 4.80758 19.4535H8.48551C7.79463 19.4536 7.23457 18.8936 7.23457 18.2026Z" fill="black"/>
<path d="M27.1929 24.156H4.80758C4.1167 24.156 3.55664 24.7161 3.55664 25.4069C3.55664 26.0978 4.1167 26.6579 4.80758 26.6579H27.193C27.8838 26.6579 28.4439 26.0978 28.4439 25.4069C28.4438 24.7161 27.8838 24.156 27.1929 24.156Z" fill="#FEB22E"/>
<path opacity="0.06" d="M7.23457 25.4069C7.23457 24.7161 7.79463 24.156 8.48551 24.156H4.80758C4.1167 24.156 3.55664 24.7161 3.55664 25.4069C3.55664 26.0978 4.1167 26.6579 4.80758 26.6579H8.48551C7.79463 26.6579 7.23457 26.0978 7.23457 25.4069Z" fill="black"/>
<path d="M16 22.6254C16.453 22.6254 16.8203 22.2581 16.8203 21.8051C16.8203 21.352 16.453 20.9847 16 20.9847C15.547 20.9847 15.1797 21.352 15.1797 21.8051C15.1797 22.2581 15.547 22.6254 16 22.6254Z" fill="#FF6465"/>
<path d="M8.97656 22.6254C9.42961 22.6254 9.79687 22.2581 9.79687 21.8051C9.79687 21.352 9.42961 20.9847 8.97656 20.9847C8.52352 20.9847 8.15625 21.352 8.15625 21.8051C8.15625 22.2581 8.52352 22.6254 8.97656 22.6254Z" fill="#FF6465"/>
<path d="M23.0234 22.6254C23.4765 22.6254 23.8437 22.2581 23.8437 21.8051C23.8437 21.352 23.4765 20.9847 23.0234 20.9847C22.5704 20.9847 22.2031 21.352 22.2031 21.8051C22.2031 22.2581 22.5704 22.6254 23.0234 22.6254Z" fill="#FF6465"/>
<path d="M14.0859 13.1469C14.0859 14.5804 14.9265 15.7033 15.9995 15.7033C17.0726 15.7033 17.9131 14.5804 17.9131 13.1469C17.9131 11.7134 17.0726 10.5905 15.9995 10.5905C14.9265 10.5904 14.0859 11.7133 14.0859 13.1469ZM16.8097 13.1469C16.8097 13.9786 16.3819 14.5999 15.9994 14.5999C15.6169 14.5999 15.1892 13.9785 15.1892 13.1469C15.1892 12.3153 15.6169 11.6938 15.9994 11.6938C16.3819 11.6938 16.8097 12.3151 16.8097 13.1469Z" fill="#FEB22E"/>
<path d="M29.8283 6.67112C28.6309 6.67112 27.6566 7.6453 27.6566 8.8428C27.6566 9.08067 27.6956 9.30955 27.7667 9.52392C27.0622 10.1387 26.3462 10.6472 25.6341 11.0379C25.3669 11.1844 25.2691 11.5198 25.4156 11.787C25.5622 12.054 25.8976 12.1519 26.1646 12.0054C26.9062 11.5987 27.6474 11.0792 28.3741 10.4575C28.5809 10.6446 28.821 10.7892 29.0825 10.884L27.2192 16.4003C27.2104 16.4003 27.2016 16.4002 27.1927 16.4002H9.83473C9.52998 16.4002 9.28304 16.6472 9.28304 16.9519C9.28304 17.2566 9.52998 17.5036 9.83473 17.5036H27.1927C27.2687 17.5036 27.3461 17.5168 27.418 17.5415C27.6933 17.6356 27.892 17.8962 27.892 18.2028C27.892 18.5885 27.5783 18.9021 27.1927 18.9021H4.80737C4.42187 18.9021 4.10812 18.5885 4.10812 18.2028C4.10812 17.8961 4.30693 17.6354 4.58387 17.541C4.65524 17.5169 4.73193 17.5036 4.80737 17.5036H7.62805C7.9328 17.5036 8.17973 17.2566 8.17973 16.9519C8.17973 16.6472 7.9328 16.4002 7.62805 16.4002H4.80737C4.79855 16.4002 4.78974 16.4003 4.7808 16.4005L2.91749 10.884C3.17887 10.7892 3.41899 10.6447 3.62581 10.4576C4.46974 11.18 5.32886 11.7614 6.18593 12.1895C7.62686 12.9092 9.01361 13.1649 10.3087 12.9492C12.2178 12.6313 13.874 11.3022 15.2371 8.99636C15.3422 9.03586 15.4503 9.06649 15.5606 9.08905C15.5622 9.08942 15.5638 9.08974 15.5655 9.08999C15.852 9.1473 16.1488 9.14792 16.4355 9.08986C16.4366 9.08961 16.4377 9.08942 16.4388 9.08917C16.5495 9.06649 16.658 9.03586 16.7633 8.9963C17.7023 10.5837 18.7863 11.7148 19.9906 12.3627C21.1418 12.9819 22.4033 13.1665 23.7396 12.9115C24.0388 12.8544 24.2351 12.5654 24.1781 12.2662C24.121 11.9669 23.8318 11.7707 23.5328 11.8277C21.2346 12.2664 19.2624 11.0969 17.6662 8.3533C17.9817 7.97624 18.1718 7.49112 18.1718 6.96224C18.1718 5.76481 17.1977 4.79056 16.0002 4.79056C14.8028 4.79056 13.8285 5.76474 13.8285 6.96224C13.8285 7.49137 14.019 7.97668 14.3345 8.35374C13.1352 10.4159 11.7212 11.5955 10.1275 11.8609C7.8343 12.2428 5.54993 10.6699 4.23362 9.52374C4.30455 9.30949 4.34349 9.08067 4.34349 8.84292C4.34349 7.64549 3.36931 6.67124 2.17181 6.67124C0.974186 6.67112 0 7.64543 0 8.8428C0 9.90824 0.771499 10.7964 1.78506 10.9793L3.73568 16.7542C3.29256 17.083 3.00468 17.6098 3.00468 18.2027C3.00468 19.0042 3.53068 19.685 4.25562 19.9186V23.691C3.53074 23.9246 3.00468 24.6053 3.00468 25.4068C3.00468 26.4008 3.8133 27.2095 4.8073 27.2095H21.9055C22.2103 27.2095 22.4572 26.9625 22.4572 26.6578C22.4572 26.3531 22.2103 26.1061 21.9055 26.1061H4.80737C4.42187 26.1061 4.10812 25.7925 4.10812 25.4068C4.10812 25.0212 4.42187 24.7076 4.80737 24.7076H27.1927C27.5783 24.7076 27.892 25.0212 27.892 25.4068C27.892 25.7925 27.5783 26.1061 27.1927 26.1061H24.1123C23.8076 26.1061 23.5606 26.3531 23.5606 26.6578C23.5606 26.9625 23.8076 27.2095 24.1123 27.2095H27.1927C28.1867 27.2095 28.9954 26.4008 28.9954 25.4068C28.9954 24.6053 28.4693 23.9245 27.7444 23.6908V19.9185C28.4693 19.6849 28.9954 19.0042 28.9954 18.2025C28.9954 17.6096 28.7074 17.0827 28.2643 16.754L30.2149 10.9792C31.2284 10.7962 32 9.90817 32 8.84267C31.9999 7.64543 31.0258 6.67112 29.8283 6.67112ZM16 5.89381C16.589 5.89381 17.0683 6.37305 17.0683 6.96212C17.0683 7.5808 16.5282 8.0733 15.9206 8.02549C15.3706 7.98224 14.9317 7.51499 14.9317 6.96212C14.9317 6.37305 15.4109 5.89381 16 5.89381ZM2.48187 9.86011C2.38256 9.89311 2.27818 9.91117 2.17168 9.91117C1.58262 9.91117 1.10344 9.43192 1.10344 8.84286C1.10344 8.2538 1.58268 7.77455 2.17168 7.77455C2.76074 7.77455 3.23999 8.2538 3.23999 8.84286C3.23999 9.29992 2.90812 9.7183 2.48187 9.86011ZM26.6409 23.6043H5.35905V20.0053H26.6409V23.6043ZM29.8283 9.91105C29.2476 9.91105 28.76 9.42286 28.76 8.84274C28.76 8.25368 29.2393 7.77443 29.8283 7.77443C30.4173 7.77443 30.8966 8.25368 30.8966 8.84274C30.8966 9.4318 30.4173 9.91105 29.8283 9.91105Z" fill="#F7A121"/>
</svg>
