<svg width="34" height="34" viewBox="0 0 34 34" fill="none" xmlns="http://www.w3.org/2000/svg">
<path fill-rule="evenodd" clip-rule="evenodd" d="M14.167 5.66665C13.3846 5.66665 12.7503 6.30091 12.7503 7.08331V8.49998H21.2503V7.08331C21.2503 6.3009 20.6161 5.66665 19.8337 5.66665H14.167ZM24.0837 8.49998V7.08331C24.0837 4.73612 22.1809 2.83331 19.8337 2.83331H14.167C11.8198 2.83331 9.91699 4.7361 9.91699 7.08331V8.49998H7.08366C6.30126 8.49998 5.66699 9.13424 5.66699 9.91665C5.66699 10.699 6.30126 11.3333 7.08366 11.3333V25.5C7.08366 27.8472 8.98646 29.75 11.3337 29.75H22.667C25.0142 29.75 26.917 27.8472 26.917 25.5V11.3333C27.6994 11.3333 28.3337 10.699 28.3337 9.91665C28.3337 9.13424 27.6994 8.49998 26.917 8.49998H24.0837ZM24.0837 11.3333H9.91699V25.5C9.91699 26.2824 10.5512 26.9166 11.3337 26.9166H22.667C23.4494 26.9166 24.0837 26.2824 24.0837 25.5V11.3333ZM14.167 14.1666C14.9494 14.1666 15.5837 14.8009 15.5837 15.5833V22.6666C15.5837 23.449 14.9494 24.0833 14.167 24.0833C13.3846 24.0833 12.7503 23.449 12.7503 22.6666V15.5833C12.7503 14.8009 13.3846 14.1666 14.167 14.1666ZM19.8337 14.1666C20.6161 14.1666 21.2503 14.8009 21.2503 15.5833V22.6666C21.2503 23.449 20.6161 24.0833 19.8337 24.0833C19.0513 24.0833 18.417 23.449 18.417 22.6666V15.5833C18.417 14.8009 19.0513 14.1666 19.8337 14.1666Z" fill="white"/>
</svg>
