<svg width="24" height="24" viewBox="0 0 24 24" fill="none" xmlns="http://www.w3.org/2000/svg">
<g clip-path="url(#clip0_681_1311)">
<path d="M16.5374 17.4433C17.1977 17.4433 17.733 16.6404 17.733 15.6499C17.733 14.6594 17.1977 13.8565 16.5374 13.8565C15.8771 13.8565 15.3418 14.6594 15.3418 15.6499C15.3418 16.6404 15.8771 17.4433 16.5374 17.4433Z" fill="white"/>
<path d="M18.909 11.5143C19.4962 11.5143 19.9723 10.797 19.9723 9.91204C19.9723 9.02712 19.4962 8.30975 18.909 8.30975C18.3218 8.30975 17.8457 9.02712 17.8457 9.91204C17.8457 10.797 18.3218 11.5143 18.909 11.5143Z" fill="white"/>
<path d="M23.1572 3.71846L12.3381 0.464889C12.3185 0.459989 12.294 0.455089 12.2744 0.450189C12.2548 0.445289 12.2303 0.440389 12.2107 0.435489C12.0686 0.410989 11.9265 0.410989 11.7844 0.435489C11.7648 0.440389 11.7403 0.445289 11.7207 0.450189C11.7011 0.455089 11.6766 0.459989 11.657 0.464889L9.24132 1.19008L7.29114 1.77808L1.82768 3.41956L0.842793 3.71356C0.342997 3.86546 0 4.32606 0 4.84545V19.1386C0 19.6629 0.342997 20.1186 0.842793 20.2705L11.657 23.5339C11.7697 23.5682 11.8824 23.5829 12 23.5829C12.1127 23.5829 12.2303 23.5682 12.343 23.5339L23.1572 20.2803C23.657 20.1284 24 19.6678 24 19.1484V4.85035C24 4.33096 23.657 3.87036 23.1572 3.71846ZM3.43977 17.8646C2.86648 17.8646 2.39608 17.1639 2.39608 16.3016C2.39608 15.4392 2.86158 14.7385 3.43977 14.7385C4.01307 14.7385 4.48346 15.4392 4.48346 16.3016C4.48346 17.1639 4.01307 17.8646 3.43977 17.8646ZM5.90445 13.4106C5.27236 13.4106 4.75786 12.6364 4.75786 11.6858C4.75786 10.7352 5.27236 9.96101 5.90445 9.96101C6.53655 9.96101 7.05104 10.7352 7.05104 11.6858C7.05104 12.6364 6.54145 13.4106 5.90445 13.4106ZM8.71703 8.99082C8.05553 8.99082 7.52144 8.18722 7.52144 7.19743C7.52144 6.20764 8.05553 5.40405 8.71703 5.40405C9.37852 5.40405 9.91262 6.20764 9.91262 7.19743C9.91262 8.18722 9.37852 8.99082 8.71703 8.99082ZM21.6333 18.2664L13.1809 20.8095V3.18927L21.6333 5.73235V18.2664Z" fill="white"/>
</g>
<defs>
<clipPath id="clip0_681_1311">
<rect width="24" height="24" fill="white"/>
</clipPath>
</defs>
</svg>
