<svg width="30" height="30" viewBox="0 0 30 30" fill="none" xmlns="http://www.w3.org/2000/svg">
<path fill-rule="evenodd" clip-rule="evenodd" d="M15 2.5C15.6904 2.5 16.25 3.05964 16.25 3.75V15.7322L19.1161 12.8661C19.6043 12.378 20.3957 12.378 20.8839 12.8661C21.372 13.3543 21.372 14.1457 20.8839 14.6339L15.8839 19.6339C15.3957 20.122 14.6043 20.122 14.1161 19.6339L9.11612 14.6339C8.62796 14.1457 8.62796 13.3543 9.11612 12.8661C9.60427 12.378 10.3957 12.378 10.8839 12.8661L13.75 15.7322V3.75C13.75 3.05964 14.3096 2.5 15 2.5ZM3.75 17.5C4.44036 17.5 5 18.0596 5 18.75V21.25C5 21.9404 5.55963 22.5 6.25 22.5H23.75C24.4404 22.5 25 21.9404 25 21.25V18.75C25 18.0596 25.5596 17.5 26.25 17.5C26.9404 17.5 27.5 18.0596 27.5 18.75V21.25C27.5 23.3211 25.8211 25 23.75 25H6.25C4.17894 25 2.5 23.3211 2.5 21.25V18.75C2.5 18.0596 3.05964 17.5 3.75 17.5Z" fill="#111111"/>
</svg>
