<svg width="26" height="26" viewBox="0 0 26 26" fill="none" xmlns="http://www.w3.org/2000/svg">
<path fill-rule="evenodd" clip-rule="evenodd" d="M3.25033 15.1667C3.84863 15.1667 4.33366 15.6517 4.33366 16.25V18.4167C4.33366 19.015 4.81867 19.5 5.41699 19.5H20.5837C21.182 19.5 21.667 19.015 21.667 18.4167V16.25C21.667 15.6517 22.152 15.1667 22.7503 15.1667C23.3486 15.1667 23.8337 15.6517 23.8337 16.25V18.4167C23.8337 20.2116 22.3786 21.6667 20.5837 21.6667H5.41699C3.62208 21.6667 2.16699 20.2117 2.16699 18.4167V16.25C2.16699 15.6517 2.65202 15.1667 3.25033 15.1667Z" fill="#CA1D47"/>
<path d="M12.9997 2.16669C13.598 2.16669 14.083 2.65171 14.083 3.25002V13.6346L16.567 11.1507C16.99 10.7276 17.676 10.7276 18.099 11.1507C18.5221 11.5737 18.5221 12.2597 18.099 12.6827L13.7657 17.0161C13.3426 17.4391 12.6567 17.4391 12.2336 17.0161L7.90031 12.6827C7.47724 12.2597 7.47724 11.5737 7.90031 11.1507C8.32338 10.7276 9.00931 10.7276 9.43237 11.1507L11.9163 13.6346V3.25002C11.9163 2.65171 12.4014 2.16669 12.9997 2.16669Z" fill="black"/>
</svg>
