<svg width="36" height="36" viewBox="0 0 36 36" fill="none" xmlns="http://www.w3.org/2000/svg">
<path fill-rule="evenodd" clip-rule="evenodd" d="M7.93934 18.4393C8.52513 17.8536 9.47487 17.8536 10.0607 18.4393L18 26.3787L25.9393 18.4393C26.5251 17.8536 27.4749 17.8536 28.0607 18.4393C28.6464 19.0251 28.6464 19.9749 28.0607 20.5607L19.0607 29.5607C18.4749 30.1464 17.5251 30.1464 16.9393 29.5607L7.93934 20.5607C7.35355 19.9749 7.35355 19.0251 7.93934 18.4393ZM7.93934 7.93934C8.52513 7.35355 9.47487 7.35355 10.0607 7.93934L18 15.8787L25.9393 7.93934C26.5251 7.35355 27.4749 7.35355 28.0607 7.93934C28.6464 8.52513 28.6464 9.47487 28.0607 10.0607L19.0607 19.0607C18.4749 19.6464 17.5251 19.6464 16.9393 19.0607L7.93934 10.0607C7.35355 9.47487 7.35355 8.52513 7.93934 7.93934Z" fill="white"/>
</svg>
