<svg width="36" height="36" viewBox="0 0 36 36" fill="none" xmlns="http://www.w3.org/2000/svg">
<path fill-rule="evenodd" clip-rule="evenodd" d="M18 3C18.8284 3 19.5 3.67157 19.5 4.5V18.8787L22.9393 15.4393C23.5251 14.8536 24.4749 14.8536 25.0607 15.4393C25.6464 16.0251 25.6464 16.9749 25.0607 17.5607L19.0607 23.5607C18.4749 24.1464 17.5251 24.1464 16.9393 23.5607L10.9393 17.5607C10.3536 16.9749 10.3536 16.0251 10.9393 15.4393C11.5251 14.8536 12.4749 14.8536 13.0607 15.4393L16.5 18.8787V4.5C16.5 3.67157 17.1716 3 18 3ZM4.5 21C5.32843 21 6 21.6716 6 22.5V25.5C6 26.3285 6.67156 27 7.5 27H28.5C29.3285 27 30 26.3285 30 25.5V22.5C30 21.6716 30.6716 21 31.5 21C32.3284 21 33 21.6716 33 22.5V25.5C33 27.9853 30.9853 30 28.5 30H7.5C5.01473 30 3 27.9853 3 25.5V22.5C3 21.6716 3.67157 21 4.5 21Z" fill="#111111"/>
</svg>
