<svg width="26" height="26" viewBox="0 0 26 26" fill="none" xmlns="http://www.w3.org/2000/svg">
<path d="M12.9999 5.20012C12.9999 4.62574 13.4655 4.16012 14.0399 4.16012H20.7999C21.3743 4.16012 21.8399 4.62574 21.8399 5.20012V5.72012C21.8399 6.29449 21.3743 6.76012 20.7999 6.76012H14.0399C13.4655 6.76012 12.9999 6.29449 12.9999 5.72012V5.20012Z" fill="#D5DBDF"/>
<path d="M12.9999 12.7401C12.9999 12.1657 13.4655 11.7001 14.0399 11.7001H20.7999C21.3743 11.7001 21.8399 12.1657 21.8399 12.7401V13.2601C21.8399 13.8345 21.3743 14.3001 20.7999 14.3001H14.0399C13.4655 14.3001 12.9999 13.8345 12.9999 13.2601V12.7401Z" fill="#D5DBDF"/>
<path d="M12.9999 20.2801C12.9999 19.7057 13.4655 19.2401 14.0399 19.2401H20.7999C21.3743 19.2401 21.8399 19.7057 21.8399 20.2801V20.8001C21.8399 21.3745 21.3743 21.8401 20.7999 21.8401H14.0399C13.4655 21.8401 12.9999 21.3745 12.9999 20.8001V20.2801Z" fill="#D5DBDF"/>
<path d="M8.84376 3.42473C9.24991 3.01858 9.9084 3.01858 10.3145 3.42473C10.7207 3.83087 10.7207 4.48936 10.3145 4.89551L7.75531 7.71418C7.34917 8.12032 6.69067 8.12032 6.28453 7.71418L4.72453 6.15418C4.31839 5.74803 4.31839 5.08954 4.72453 4.6834C5.13067 4.27725 5.78917 4.27725 6.19531 4.68339L7.01992 5.508L8.84376 3.42473Z" fill="#D5DBDF"/>
<path d="M8.84376 10.9647C9.24991 10.5586 9.9084 10.5586 10.3145 10.9647C10.7207 11.3709 10.7207 12.0294 10.3145 12.4355L7.75531 15.2542C7.34917 15.6603 6.69067 15.6603 6.28453 15.2542L4.72453 13.6942C4.31839 13.288 4.31839 12.6295 4.72453 12.2234C5.13067 11.8172 5.78917 11.8172 6.19531 12.2234L7.01992 13.048L8.84376 10.9647Z" fill="#D5DBDF"/>
<path d="M8.84376 18.5047C9.24991 18.0986 9.9084 18.0986 10.3145 18.5047C10.7207 18.9109 10.7207 19.5694 10.3145 19.9755L7.75531 22.7942C7.34917 23.2003 6.69067 23.2003 6.28453 22.7942L4.72453 21.2342C4.31839 20.828 4.31839 20.1695 4.72453 19.7634C5.13067 19.3572 5.78917 19.3572 6.19531 19.7634L7.01992 20.588L8.84376 18.5047Z" fill="#D5DBDF"/>
</svg>
