<svg width="100" height="100" viewBox="0 0 100 100" fill="none" xmlns="http://www.w3.org/2000/svg">
<path fill-rule="evenodd" clip-rule="evenodd" d="M8.33203 50C8.33203 26.9881 26.9868 8.33331 49.9987 8.33331C73.0107 8.33331 91.6654 26.9881 91.6654 50C91.6654 73.012 73.0107 91.6666 49.9987 91.6666C26.9869 91.6666 8.33203 73.012 8.33203 50ZM49.9987 16.6666C31.5892 16.6666 16.6654 31.5905 16.6654 50C16.6654 68.4096 31.5892 83.3333 49.9987 83.3333C68.4083 83.3333 83.332 68.4096 83.332 50C83.332 31.5905 68.4083 16.6666 49.9987 16.6666ZM69.4915 34.4383C71.1824 35.9991 71.2879 38.6352 69.727 40.3261L44.727 67.4095C43.9579 68.2427 42.8824 68.7265 41.7486 68.7491C40.6149 68.7718 39.5209 68.3314 38.7191 67.5296L28.3024 57.1129C26.6752 55.4857 26.6752 52.8476 28.3024 51.2204C29.9296 49.5932 32.5678 49.5932 34.195 51.2204L41.5452 58.5705L63.6037 34.6738C65.1645 32.9829 67.8006 32.8774 69.4915 34.4383Z" fill="#B2D145"/>
</svg>
