<svg width="40" height="40" viewBox="0 0 40 40" fill="none" xmlns="http://www.w3.org/2000/svg">
<path fill-rule="evenodd" clip-rule="evenodd" d="M8.8 7.55556C7.91634 7.55556 7.2 8.35149 7.2 9.33333V30.6667C7.2 31.6485 7.91634 32.4444 8.8 32.4444H31.2C32.0837 32.4444 32.8 31.6485 32.8 30.6667V9.33333C32.8 8.35149 32.0837 7.55556 31.2 7.55556H8.8ZM4 9.33333C4 6.38781 6.14903 4 8.8 4H31.2C33.851 4 36 6.38781 36 9.33333V30.6667C36 33.6122 33.851 36 31.2 36H8.8C6.14903 36 4 33.6122 4 30.6667V9.33333Z" fill="#111111"/>
<path fill-rule="evenodd" clip-rule="evenodd" d="M14 19.8627L6.73137 27.1313C6.10653 27.7561 5.09347 27.7561 4.46863 27.1313C3.84379 26.5065 3.84379 25.4934 4.46863 24.8686L12.0201 17.3171C12.5452 16.792 13.2574 16.497 14 16.497C14.7426 16.497 15.4548 16.792 15.9799 17.3171L14.8485 18.4485M14 19.8627L20.4201 26.2828C20.9452 26.8079 21.6574 27.1029 22.4 27.1029C23.1426 27.1029 23.8548 26.8079 24.3799 26.2828L27.2 23.4627L33.2686 29.5313C33.8934 30.1562 34.9065 30.1562 35.5313 29.5313C36.1562 28.9065 36.1562 27.8934 35.5313 27.2686L29.1799 20.9171L28.0485 22.0485L29.1799 20.9171C28.6548 20.392 27.9426 20.097 27.2 20.097C26.4574 20.097 25.7452 20.392 25.2201 20.9171L22.4 23.7372L15.9799 17.3171M27.4821 23.1806C27.4823 23.1803 27.4826 23.1801 27.4828 23.1799L27.2 22.897L27.4828 23.1799L27.4821 23.1806Z" fill="#111111"/>
<path d="M27.2 16.8C28.5255 16.8 29.6 15.7255 29.6 14.4C29.6 13.0745 28.5255 12 27.2 12C25.8745 12 24.8 13.0745 24.8 14.4C24.8 15.7255 25.8745 16.8 27.2 16.8Z" fill="#111111"/>
</svg>
