<svg width="24" height="24" viewBox="0 0 24 24" fill="none" xmlns="http://www.w3.org/2000/svg">
<path fill-rule="evenodd" clip-rule="evenodd" d="M3.00001 6C3.00001 4.34315 4.34315 3 6.00001 3H18C19.6569 3 21 4.34316 21 6V13.4986C21 13.4995 21 13.5005 21 13.5014V18C21 19.6569 19.6569 21 18 21H6.00001C4.34316 21 3.00001 19.6569 3.00001 18V17.0045C3 17.0017 3 16.9989 3.00001 16.9962V6ZM5.00001 17.4454V18C5.00001 18.5523 5.44771 19 6.00001 19H18C18.5523 19 19 18.5523 19 18V13.9142L17.2071 12.1213C16.8166 11.7308 16.1834 11.7308 15.7929 12.1213L12.2071 15.7071C11.8166 16.0976 11.1834 16.0976 10.7929 15.7071L9.63461 14.5488C9.63461 14.5488 9.6346 14.5488 9.6346 14.5488C9.25858 14.1728 8.65391 14.1569 8.25857 14.5127L8.25856 14.5127L5.00001 17.4454ZM19 11.0858V6C19 5.44771 18.5523 5 18 5H6.00001C5.44772 5 5.00001 5.44771 5.00001 6V14.7547L6.92063 13.0261C6.92063 13.0261 6.92064 13.0261 6.92064 13.0261C8.10661 11.9587 9.92059 12.0064 11.0488 13.1346L11.0488 13.1346L11.5 13.5858L14.3787 10.7071C15.5502 9.53557 17.4498 9.53557 18.6213 10.7071L19 11.0858ZM8.00001 9C8.00001 7.89543 8.89544 7 10 7C11.1046 7 12 7.89545 12 9C12 10.1046 11.1046 11 10 11C8.89544 11 8.00001 10.1046 8.00001 9Z" fill="white"/>
</svg>
