<svg width="40" height="40" viewBox="0 0 40 40" fill="none" xmlns="http://www.w3.org/2000/svg">
<path d="M12.125 5C11.2966 5 10.625 5.67157 10.625 6.5V27.875C10.625 28.7034 11.2966 29.375 12.125 29.375H33.5C34.3284 29.375 35 28.7034 35 27.875V6.5C35 5.67157 34.3284 5 33.5 5H12.125ZM32.6562 25.5312C32.6562 26.3597 31.9847 27.0312 31.1562 27.0312H14.4688C13.6403 27.0312 12.9688 26.3597 12.9688 25.5312V8.84375C12.9688 8.01532 13.6403 7.34375 14.4688 7.34375H31.1562C31.9847 7.34375 32.6562 8.01532 32.6562 8.84375V25.5312Z" fill="#292D32"/>
<path d="M8.84375 32.6562C8.01532 32.6562 7.34375 31.9847 7.34375 31.1562V11.7969C7.34375 11.1497 6.81908 10.625 6.17188 10.625C5.52467 10.625 5 11.1497 5 11.7969V33.5C5 34.3284 5.67157 35 6.5 35H28.2031C28.8503 35 29.375 34.4753 29.375 33.8281C29.375 33.1809 28.8503 32.6562 28.2031 32.6562H8.84375Z" fill="#292D32"/>
<path d="M17.8128 22.5012C18.2704 22.9588 19.0123 22.9589 19.4699 22.5012L23.0628 18.9083C23.5273 18.4438 25.5471 16.25 25.5471 16.25C25.5471 16.25 25.5471 19.2976 25.5471 19.9373V20.2207C25.5471 20.8679 26.0718 21.3925 26.719 21.3925C27.3662 21.3925 27.8909 20.8679 27.8909 20.2207V13.9231C27.8909 13.0947 27.2193 12.4231 26.3909 12.4231H20.0934C19.4462 12.4231 18.9215 12.9478 18.9215 13.595C18.9215 14.2422 19.4462 14.7669 20.0934 14.7669H20.3768C20.9002 14.7669 23.75 14.7669 23.75 14.7669C23.75 14.7669 21.9524 16.7045 21.4058 17.2511L17.8128 20.8441C17.3552 21.3017 17.3552 22.0436 17.8128 22.5012Z" fill="#292D32"/>
</svg>
