<svg width="30" height="30" viewBox="0 0 30 30" fill="none" xmlns="http://www.w3.org/2000/svg">
<path fill-rule="evenodd" clip-rule="evenodd" d="M8.97664 5.14587C10.3946 4.83423 11.8578 5.02137 13.2747 5.71277C13.9488 6.04169 14.7815 6.58749 15.5 7.32424C16.2185 6.5875 17.0511 6.04169 17.7252 5.71277C19.1422 5.02137 20.6054 4.83423 22.0233 5.14587C23.4278 5.45455 24.7025 6.23289 25.8033 7.33365C28.7322 10.2626 28.7322 15.0113 25.8033 17.9402L17.2678 26.4758C16.2915 27.4521 14.7085 27.4521 13.7322 26.4758L14.6161 25.5919C13.7322 26.4758 13.7322 26.4758 13.7322 26.4758L10.3798 23.1233C8.55098 21.2945 6.4171 19.1606 5.19671 17.9402C2.26776 15.0113 2.26777 10.2626 5.1967 7.33365C6.29745 6.23289 7.57222 5.45455 8.97664 5.14587Z" fill="#FF2E7E"/>
</svg>
