<svg width="30" height="30" viewBox="0 0 30 30" fill="none" xmlns="http://www.w3.org/2000/svg">
<path fill-rule="evenodd" clip-rule="evenodd" d="M9.35705 7.80146C8.51443 7.98666 7.6479 8.4756 6.80823 9.31527C4.8556 11.2679 4.8556 14.4337 6.80822 16.3863C8.02862 17.6067 10.1625 19.7406 11.9913 21.5694L15.3435 24.9217L15.3437 24.9219C15.3437 24.9219 15.3437 24.9219 15.3437 24.9219C15.3437 24.9219 15.3437 24.9219 15.3438 24.9219C15.3438 24.9219 15.3438 24.9219 15.3438 24.9219L23.8792 16.3863C25.8318 14.4337 25.8318 11.2679 23.8792 9.31527C23.0396 8.47561 22.1731 7.98666 21.3304 7.80146C20.5013 7.61924 19.6117 7.71163 18.6653 8.17343C17.8707 8.56113 16.9006 9.32253 16.461 10.1986C16.2489 10.6212 15.8166 10.8879 15.3438 10.8879C14.871 10.8879 14.4386 10.6212 14.2266 10.1986C13.7869 9.32253 12.8168 8.56114 12.0222 8.17344C11.0758 7.71164 10.1861 7.61924 9.35705 7.80146ZM15.3435 24.9222C15.3435 24.9222 15.3435 24.9222 15.3434 24.9221C15.3433 24.9223 15.3431 24.9225 15.3427 24.9229C15.3428 24.9228 15.3431 24.9226 15.3435 24.9222ZM15.3427 24.9229C15.3366 24.929 15.296 24.9697 15.0234 25.2422L15.3428 24.9228C15.3427 24.9229 15.3427 24.9229 15.3427 24.9229ZM8.82039 5.35974C10.2383 5.04809 11.7015 5.23524 13.1185 5.92663C13.7926 6.25555 14.6253 6.80136 15.3438 7.5381C16.0622 6.80136 16.8949 6.25556 17.569 5.92664C18.9859 5.23524 20.4491 5.04809 21.8671 5.35974C23.2715 5.66842 24.5463 6.44676 25.647 7.54752C28.5759 10.4764 28.5759 15.2252 25.647 18.1541L17.1115 26.6897C16.1352 27.666 14.5523 27.666 13.576 26.6897L14.4599 25.8058C13.576 26.6897 13.576 26.6897 13.5759 26.6896L13.5757 26.6894L10.2235 23.3372C8.39473 21.5083 6.26085 19.3745 5.04046 18.1541C2.11151 15.2252 2.11152 10.4764 5.04046 7.54751C6.1412 6.44676 7.41597 5.66842 8.82039 5.35974Z" fill="#111111"/>
</svg>
