<svg width="16" height="16" viewBox="0 0 16 16" fill="none" xmlns="http://www.w3.org/2000/svg">
<path fill-rule="evenodd" clip-rule="evenodd" d="M0.5 8C0.5 3.85787 3.85787 0.5 8 0.5C12.1422 0.5 15.5 3.85787 15.5 8C15.5 12.1422 12.1422 15.5 8 15.5C3.85787 15.5 0.5 12.1422 0.5 8ZM8 2C4.68629 2 2 4.68629 2 8C2 11.3137 4.68629 14 8 14C11.3137 14 14 11.3137 14 8C14 4.68629 11.3137 2 8 2ZM5.15019 5.52293C5.50373 4.40999 6.48721 3.5 8 3.5C8.95352 3.5 9.72377 3.86503 10.2481 4.45485C10.7601 5.03087 11 5.7777 11 6.5C11 7.04791 10.8675 7.4986 10.6241 7.87891C10.3913 8.24272 10.0848 8.49646 9.82753 8.69076C9.74318 8.75448 9.66334 8.81324 9.58777 8.86887C9.16746 9.17824 8.87893 9.39061 8.67949 9.81747C8.50416 10.1927 8.05781 10.3548 7.68253 10.1795C7.30726 10.0042 7.14517 9.55781 7.3205 9.18253C7.69573 8.37941 8.32145 7.92905 8.74486 7.62429C8.80966 7.57765 8.86973 7.53441 8.92343 7.49385C9.1452 7.32633 9.2759 7.20287 9.36062 7.07046C9.43479 6.95454 9.5 6.78999 9.5 6.5C9.5 6.0973 9.36492 5.71912 9.12694 5.4514C8.90123 5.19747 8.54648 5 8 5C7.19094 5 6.75114 5.43767 6.57979 5.97707C6.45438 6.37184 6.03269 6.59021 5.63792 6.4648C5.24315 6.33939 5.02478 5.9177 5.15019 5.52293ZM7.25 11.75C7.25 11.3358 7.58579 11 8 11H8.0075C8.42171 11 8.7575 11.3358 8.7575 11.75C8.7575 12.1642 8.42171 12.5 8.0075 12.5H8C7.58579 12.5 7.25 12.1642 7.25 11.75Z" fill="#292D32"/>
</svg>
