<svg width="20" height="20" viewBox="0 0 20 20" fill="none" xmlns="http://www.w3.org/2000/svg">
<path fill-rule="evenodd" clip-rule="evenodd" d="M6.2382 5.20114C5.67645 5.3246 5.09876 5.65056 4.53898 6.21035C3.23723 7.51209 3.23723 9.62264 4.53897 10.9244C5.35258 11.738 6.77517 13.1606 7.99436 14.3798L10.2292 16.6146L10.2293 16.6147C10.2293 16.6147 10.2293 16.6147 10.2293 16.6148C10.2293 16.6148 10.2293 16.6148 10.2293 16.6148C10.2293 16.6148 10.2293 16.6148 10.2293 16.6148L15.9197 10.9244C17.2214 9.62264 17.2214 7.51209 15.9197 6.21034C15.3599 5.65057 14.7822 5.3246 14.2204 5.20114C13.6677 5.07965 13.0746 5.14125 12.4437 5.44912C11.914 5.70758 11.2672 6.21518 10.9741 6.79922C10.8328 7.08094 10.5445 7.25877 10.2293 7.25877C9.91413 7.25877 9.62591 7.08094 9.48453 6.79922C9.19143 6.21518 8.54468 5.70759 8.01495 5.44912C7.38401 5.14125 6.79093 5.07965 6.2382 5.20114ZM10.2292 16.6149C10.2291 16.6149 10.2291 16.6149 10.2291 16.6149C10.229 16.615 10.2289 16.6152 10.2286 16.6154C10.2287 16.6154 10.2289 16.6152 10.2292 16.6149ZM10.2286 16.6154C10.2246 16.6195 10.1975 16.6466 10.0158 16.8283L10.2287 16.6154C10.2287 16.6154 10.2286 16.6154 10.2286 16.6154ZM5.88042 3.57332C6.82573 3.36556 7.80118 3.49032 8.74581 3.95125C9.19523 4.17053 9.75035 4.5344 10.2293 5.02556C10.7083 4.53441 11.2634 4.17053 11.7128 3.95125C12.6574 3.49032 13.6329 3.36556 14.5782 3.57332C15.5145 3.77911 16.3644 4.298 17.0982 5.03184C19.0508 6.98446 19.0508 10.1503 17.0982 12.1029L11.4078 17.7933C10.757 18.4441 9.70168 18.4441 9.05083 17.7933L9.64008 17.204C9.05082 17.7933 9.05081 17.7933 9.05077 17.7932L9.05064 17.7931L6.81584 15.5583C5.59665 14.3391 4.17406 12.9165 3.36047 12.1029C1.40784 10.1503 1.40784 6.98445 3.36047 5.03184C4.09429 4.298 4.94414 3.77911 5.88042 3.57332Z" fill="#CA1D47"/>
</svg>
