<svg width="18" height="18" viewBox="0 0 18 18" fill="none" xmlns="http://www.w3.org/2000/svg">
<path fill-rule="evenodd" clip-rule="evenodd" d="M9 2.25C7.94756 2.25 7.06223 2.97324 6.81731 3.95084C6.71664 4.35264 6.30932 4.59676 5.90752 4.49609C5.50573 4.39543 5.26161 3.98811 5.36227 3.58631C5.77041 1.95725 7.24324 0.75 9 0.75C11.071 0.75 12.75 2.42893 12.75 4.5V6C13.9927 6 15 7.00737 15 8.25V14.25C15 15.4927 13.9927 16.5 12.75 16.5H5.25C4.00737 16.5 3 15.4927 3 14.25V8.25C3 7.00736 4.00736 6 5.25 6H11.25V4.5C11.25 3.25736 10.2426 2.25 9 2.25ZM5.25 7.5C4.83579 7.5 4.5 7.83579 4.5 8.25V14.25C4.5 14.6642 4.83578 15 5.25 15H12.75C13.1642 15 13.5 14.6642 13.5 14.25V8.25C13.5 7.83578 13.1642 7.5 12.75 7.5H5.25ZM9 9.75C9.41421 9.75 9.75 10.0858 9.75 10.5V12C9.75 12.4142 9.41421 12.75 9 12.75C8.58579 12.75 8.25 12.4142 8.25 12V10.5C8.25 10.0858 8.58579 9.75 9 9.75Z" fill="#292D32"/>
</svg>
