<svg width="26" height="26" viewBox="0 0 26 26" fill="none" xmlns="http://www.w3.org/2000/svg">
<path fill-rule="evenodd" clip-rule="evenodd" d="M16.568 2.48399C16.9911 2.06092 17.677 2.06092 18.1001 2.48399L21.3501 5.73399C21.7731 6.15706 21.7731 6.84298 21.3501 7.26605L18.1001 10.5161C17.677 10.9391 16.9911 10.9391 16.568 10.5161C16.1449 10.093 16.1449 9.40706 16.568 8.98399L17.9686 7.58335H8.86772C6.10893 7.58335 4.05253 10.1271 4.63057 12.8246L4.63057 12.8246L4.85166 13.8564C4.97702 14.4414 4.60438 15.0173 4.01936 15.1426C3.43433 15.268 2.85844 14.8954 2.73308 14.3103L2.512 13.2786C1.64493 9.2323 4.72955 5.41669 8.86772 5.41669H17.9686L16.568 4.01605C16.1449 3.59298 16.1449 2.90706 16.568 2.48399ZM21.982 10.8574C22.5671 10.732 23.143 11.1047 23.2683 11.6897L23.4894 12.7214L22.4301 12.9485L23.4894 12.7215C24.3565 16.7677 21.2719 20.5834 17.1337 20.5834H8.03277L9.4334 21.984C9.85647 22.4071 9.85647 23.093 9.4334 23.5161C9.01034 23.9391 8.32441 23.9391 7.90134 23.5161L4.65134 20.2661C4.44818 20.0629 4.33404 19.7873 4.33404 19.5C4.33404 19.2127 4.44818 18.9372 4.65134 18.734L7.90134 15.484C8.32441 15.0609 9.01034 15.0609 9.4334 15.484C9.85647 15.9071 9.85647 16.593 9.4334 17.0161L8.03277 18.4167H17.1337C19.8925 18.4167 21.9489 15.8729 21.3709 13.1755L21.1498 12.1437C21.0244 11.5587 21.397 10.9828 21.982 10.8574Z" fill="white"/>
</svg>
