<svg width="30" height="30" viewBox="0 0 30 30" fill="none" xmlns="http://www.w3.org/2000/svg">
<path d="M9.6001 6.6001C9.6001 8.25695 8.25695 9.6001 6.6001 9.6001C4.94324 9.6001 3.6001 8.25695 3.6001 6.6001C3.6001 4.94324 4.94324 3.6001 6.6001 3.6001C8.25695 3.6001 9.6001 4.94324 9.6001 6.6001Z" fill="white"/>
<path d="M18.0001 6.6001C18.0001 8.25695 16.657 9.6001 15.0001 9.6001C13.3432 9.6001 12.0001 8.25695 12.0001 6.6001C12.0001 4.94324 13.3432 3.6001 15.0001 3.6001C16.657 3.6001 18.0001 4.94324 18.0001 6.6001Z" fill="white"/>
<path d="M26.4001 6.6001C26.4001 8.25695 25.057 9.6001 23.4001 9.6001C21.7432 9.6001 20.4001 8.25695 20.4001 6.6001C20.4001 4.94324 21.7432 3.6001 23.4001 3.6001C25.057 3.6001 26.4001 4.94324 26.4001 6.6001Z" fill="white"/>
<path d="M9.6001 15.0001C9.6001 16.657 8.25695 18.0001 6.6001 18.0001C4.94324 18.0001 3.6001 16.657 3.6001 15.0001C3.6001 13.3432 4.94324 12.0001 6.6001 12.0001C8.25695 12.0001 9.6001 13.3432 9.6001 15.0001Z" fill="white"/>
<path d="M18.0001 15.0001C18.0001 16.657 16.657 18.0001 15.0001 18.0001C13.3432 18.0001 12.0001 16.657 12.0001 15.0001C12.0001 13.3432 13.3432 12.0001 15.0001 12.0001C16.657 12.0001 18.0001 13.3432 18.0001 15.0001Z" fill="white"/>
<path d="M26.4001 15.0001C26.4001 16.657 25.057 18.0001 23.4001 18.0001C21.7432 18.0001 20.4001 16.657 20.4001 15.0001C20.4001 13.3432 21.7432 12.0001 23.4001 12.0001C25.057 12.0001 26.4001 13.3432 26.4001 15.0001Z" fill="white"/>
<path d="M9.6001 23.4001C9.6001 25.057 8.25695 26.4001 6.6001 26.4001C4.94324 26.4001 3.6001 25.057 3.6001 23.4001C3.6001 21.7432 4.94324 20.4001 6.6001 20.4001C8.25695 20.4001 9.6001 21.7432 9.6001 23.4001Z" fill="white"/>
<path d="M18.0001 23.4001C18.0001 25.057 16.657 26.4001 15.0001 26.4001C13.3432 26.4001 12.0001 25.057 12.0001 23.4001C12.0001 21.7432 13.3432 20.4001 15.0001 20.4001C16.657 20.4001 18.0001 21.7432 18.0001 23.4001Z" fill="white"/>
<path d="M26.4001 23.4001C26.4001 25.057 25.057 26.4001 23.4001 26.4001C21.7432 26.4001 20.4001 25.057 20.4001 23.4001C20.4001 21.7432 21.7432 20.4001 23.4001 20.4001C25.057 20.4001 26.4001 21.7432 26.4001 23.4001Z" fill="white"/>
</svg>
