<svg width="26" height="26" viewBox="0 0 26 26" fill="none" xmlns="http://www.w3.org/2000/svg">
<path fill-rule="evenodd" clip-rule="evenodd" d="M9.54442 4.21496C10.4548 3.30806 11.7456 3 13.1266 3C14.5075 3 15.7983 3.30806 16.7087 4.21496C17.5901 5.093 17.9069 6.3311 17.9069 7.76191C17.9069 9.19272 17.5901 10.4308 16.7087 11.3089C15.7983 12.2158 14.5075 12.5238 13.1266 12.5238C11.7456 12.5238 10.4548 12.2158 9.54442 11.3089C8.66299 10.4308 8.34625 9.19272 8.34625 7.76191C8.34625 6.3311 8.66299 5.093 9.54442 4.21496ZM11.3309 5.62102C11.0172 5.93345 10.7364 6.54721 10.7364 7.76191C10.7364 8.9766 11.0172 9.59036 11.3309 9.90279C11.6155 10.1864 12.1173 10.4074 13.1266 10.4074C14.1358 10.4074 14.6376 10.1864 14.9223 9.90279C15.2359 9.59036 15.5167 8.9766 15.5167 7.76191C15.5167 6.54721 15.2359 5.93345 14.9223 5.62102C14.6376 5.33745 14.1358 5.1164 13.1266 5.1164C12.1173 5.1164 11.6155 5.33745 11.3309 5.62102Z" fill="#E0E0E0"/>
<path fill-rule="evenodd" clip-rule="evenodd" d="M21.1471 18.5553C21.7946 21.2726 19.3448 23 17.3472 23H8.90594C6.90852 23 4.4583 21.2727 5.10605 18.5551C5.49361 16.9291 6.40315 15.5426 7.9498 14.6322C9.40099 13.778 11.1894 13.4762 13.1265 13.4762C15.0637 13.4762 16.8521 13.778 18.3033 14.6322C19.85 15.5426 20.7595 16.9293 21.1471 18.5553ZM18.8624 19.0739C19.0737 19.9605 18.2796 20.7106 17.3472 20.7106H8.90594C7.97355 20.7106 7.17934 19.9605 7.39068 19.0739C7.91638 16.8683 9.67436 15.7656 13.1265 15.7656C16.5787 15.7656 18.3367 16.8683 18.8624 19.0739Z" fill="#E0E0E0"/>
</svg>
