<svg width="293" height="73" viewBox="0 0 293 73" fill="none" xmlns="http://www.w3.org/2000/svg">
<path d="M56.6103 25.24C63.569 25.24 69.2103 19.5988 69.2103 12.64C69.2103 5.68125 63.569 0.0400391 56.6103 0.0400391C49.6515 0.0400391 44.0103 5.68125 44.0103 12.64C44.0103 19.5988 49.6515 25.24 56.6103 25.24Z" fill="#19E4D0"/>
<path d="M25.24 12.64V59.83C25.24 66.79 19.6 72.43 12.64 72.43C5.68004 72.43 0.0400391 66.79 0.0400391 59.83V12.64C0.0400391 5.68004 5.68004 0.0400391 12.64 0.0400391C19.59 0.0400391 25.24 5.68004 25.24 12.64Z" fill="#FF2E7E"/>
<path d="M65.3799 50.7901L21.8999 4.09006C17.1799 -1.01994 9.20994 -1.33994 4.08994 3.38006C-1.02006 8.10006 -1.34006 16.0701 3.37994 21.1901L47.3599 68.3901L47.3699 68.3801C49.6699 70.8601 52.9499 72.4201 56.5999 72.4201C63.5599 72.4201 69.1999 66.7801 69.1999 59.8201C69.2099 56.2701 67.7299 53.0801 65.3799 50.7901Z" fill="#FEDB07"/>
<path d="M119.99 8.66002C120.75 10.44 121.1 12.26 121.1 14.18V28.95C121.1 30.55 119.85 31.8 118.3 31.8C116.7 31.8 115.45 30.55 115.45 28.95V14.17C115.45 9.50002 111.62 5.67002 106.95 5.67002H101.83C97.1597 5.67002 93.3297 9.50002 93.3297 14.17V28.94C93.3297 30.54 92.0797 31.79 90.5297 31.79C88.9697 31.79 87.6797 30.54 87.6797 28.94V14.17C87.6797 12.26 88.0797 10.43 88.7897 8.65002C89.4997 7.00002 90.5297 5.49002 91.8197 4.16002C93.1097 2.87002 94.6197 1.85002 96.3097 1.13002C98.0497 0.42002 99.9097 0.0200195 101.83 0.0200195H106.95C108.86 0.0200195 110.73 0.42002 112.47 1.13002C114.16 1.84002 115.67 2.87002 116.96 4.16002C118.26 5.50002 119.28 7.01002 119.99 8.66002Z" fill="#543791"/>
<path d="M155.91 3.14002C157.91 5.14002 158.98 7.81002 158.98 10.66V28.95C158.98 30.55 157.73 31.8 156.18 31.8C154.62 31.8 153.33 30.55 153.33 28.95V18.76H134.95C132.9 18.76 131.26 20.41 131.26 22.45C131.26 24.5 132.91 26.14 134.95 26.14H142.29C143.85 26.14 145.14 27.39 145.14 28.94C145.14 30.54 143.85 31.79 142.29 31.79H134.95C129.79 31.79 125.56 27.61 125.56 22.45C125.56 17.29 129.79 13.1 134.95 13.1H153.33V10.65C153.33 7.89002 151.1 5.67002 148.39 5.67002H130.77C129.21 5.67002 127.92 4.42002 127.92 2.87002C127.92 1.31002 129.21 0.0200195 130.77 0.0200195H148.39C151.24 0.0200195 153.91 1.14002 155.91 3.14002Z" fill="#543791"/>
<path d="M172.02 18.76V20.85C172.02 23.79 174.42 26.15 177.32 26.15H194.63C196.19 26.15 197.43 27.4 197.43 28.95C197.43 30.55 196.18 31.8 194.63 31.8H177.32C174.38 31.8 171.67 30.64 169.58 28.6C167.53 26.55 166.38 23.79 166.38 20.86V11.07C166.38 8.13003 167.54 5.37003 169.63 3.28003C171.72 1.19003 174.48 0.0300293 177.42 0.0300293H190.46C195.62 0.0300293 199.8 4.26003 199.8 9.42003C199.8 14.54 195.62 18.77 190.46 18.77H172.02V18.76ZM172.02 13.11H190.44C192.49 13.11 194.13 11.42 194.13 9.42003C194.13 7.37003 192.48 5.68003 190.44 5.68003H177.4C174.42 5.68003 172.02 8.13003 172.02 11.06V13.11Z" fill="#543791"/>
<path d="M249.66 9.46005V28.95C249.66 30.55 248.41 31.8001 246.81 31.8001C245.25 31.8001 244.01 30.55 244.01 28.95V9.46005C244.01 7.41005 242.32 5.68005 240.23 5.68005C234.93 5.68005 230.62 10 230.62 15.34V28.96C230.62 30.56 229.37 31.81 227.82 31.81C226.22 31.81 224.97 30.56 224.97 28.96V15.3301C224.97 9.99005 220.65 5.67005 215.36 5.67005C213.27 5.67005 211.58 7.41005 211.58 9.45005V28.9401C211.58 30.5401 210.33 31.79 208.78 31.79C207.22 31.79 205.93 30.5401 205.93 28.9401V9.46005C205.93 4.25005 210.16 0.030047 215.36 0.030047C217.41 0.030047 219.41 0.430048 221.32 1.23005C223.1 2.03005 224.75 3.10005 226.17 4.52005C226.75 5.10005 227.33 5.77005 227.82 6.43005C228.31 5.76005 228.84 5.09005 229.47 4.52005C230.85 3.10005 232.5 2.03005 234.32 1.23005C236.19 0.430048 238.19 0.030047 240.24 0.030047C245.43 0.020047 249.66 4.25005 249.66 9.46005Z" fill="#543791"/>
<path d="M210.12 50.1301V69.6201C210.12 71.2201 208.87 72.4701 207.27 72.4701C205.71 72.4701 204.47 71.2201 204.47 69.6201V50.1301C204.47 48.0801 202.78 46.3501 200.69 46.3501C195.39 46.3501 191.08 50.6701 191.08 56.0101V69.6301C191.08 71.2301 189.83 72.4801 188.28 72.4801C186.68 72.4801 185.43 71.2301 185.43 69.6301V56.0101C185.43 50.6701 181.11 46.3501 175.82 46.3501C173.73 46.3501 172.04 48.0901 172.04 50.1301V69.6201C172.04 71.2201 170.79 72.4701 169.24 72.4701C167.68 72.4701 166.39 71.2201 166.39 69.6201V50.1301C166.39 44.9201 170.62 40.7001 175.82 40.7001C177.87 40.7001 179.87 41.1001 181.78 41.9001C183.56 42.7001 185.21 43.7701 186.63 45.1901C187.21 45.7701 187.79 46.4401 188.28 47.1001C188.77 46.4301 189.3 45.7601 189.93 45.1901C191.31 43.7701 192.96 42.7001 194.78 41.9001C196.65 41.1001 198.65 40.7001 200.7 40.7001C205.89 40.7001 210.12 44.9301 210.12 50.1301Z" fill="#543791"/>
<path d="M251.84 50.4901C252.6 52.3601 252.95 54.4501 252.95 56.5901C252.95 58.7701 252.59 60.8201 251.84 62.7301C251.04 64.6901 249.93 66.4201 248.41 67.8501C245.3 70.8801 240.89 72.4801 235.68 72.4801H233.41C228.2 72.4801 223.8 70.8801 220.68 67.8501C219.17 66.4301 218.01 64.6901 217.25 62.7301C216.49 60.8201 216.14 58.7701 216.14 56.5901C216.14 54.4501 216.5 52.3601 217.25 50.4901C218.01 48.5301 219.16 46.8001 220.68 45.3301C223.8 42.3001 228.2 40.7001 233.41 40.7001H235.68C240.89 40.7001 245.29 42.3001 248.41 45.3301C249.93 46.8001 251.04 48.5301 251.84 50.4901ZM247.3 56.5901C247.3 50.3201 242.85 46.3501 235.69 46.3501H233.42C226.26 46.3501 221.81 50.3101 221.81 56.5901C221.81 62.9101 226.26 66.8301 233.42 66.8301H235.69C242.85 66.8201 247.3 62.9001 247.3 56.5901Z" fill="#543791"/>
<path d="M291.13 9.81002C291.89 11.68 292.24 13.77 292.24 15.91C292.24 18.09 291.88 20.14 291.13 22.05C290.33 24.01 289.22 25.74 287.7 27.17C284.59 30.2 280.18 31.8 274.97 31.8H272.7C267.49 31.8 263.09 30.2 259.97 27.17C258.46 25.75 257.3 24.01 256.54 22.05C255.78 20.14 255.43 18.09 255.43 15.91C255.43 13.77 255.79 11.68 256.54 9.81002C257.3 7.85002 258.45 6.12002 259.97 4.65002C263.09 1.62002 267.49 0.0200195 272.7 0.0200195H274.97C280.18 0.0200195 284.58 1.62002 287.7 4.65002C289.21 6.12002 290.33 7.86002 291.13 9.81002ZM286.59 15.91C286.59 9.64002 282.14 5.67002 274.98 5.67002H272.71C265.55 5.67002 261.1 9.63002 261.1 15.91C261.1 22.23 265.55 26.15 272.71 26.15H274.98C282.14 26.15 286.59 22.23 286.59 15.91Z" fill="#543791"/>
<path d="M119.99 49.3301C120.75 51.1101 121.1 52.9301 121.1 54.8501V69.6201C121.1 71.2201 119.85 72.4701 118.3 72.4701C116.7 72.4701 115.45 71.2201 115.45 69.6201V54.8501C115.45 50.1801 111.62 46.3501 106.95 46.3501H101.83C97.1597 46.3501 93.3297 50.1801 93.3297 54.8501V69.6201C93.3297 71.2201 92.0797 72.4701 90.5297 72.4701C88.9697 72.4701 87.6797 71.2201 87.6797 69.6201V54.8501C87.6797 52.9401 88.0797 51.1101 88.7897 49.3301C89.4997 47.6801 90.5297 46.1701 91.8197 44.8401C93.1097 43.5501 94.6197 42.5301 96.3097 41.8101C98.0497 41.1001 99.9097 40.7001 101.83 40.7001H106.95C108.86 40.7001 110.73 41.1001 112.47 41.8101C114.16 42.5201 115.67 43.5501 116.96 44.8401C118.26 46.1701 119.28 47.6901 119.99 49.3301Z" fill="#543791"/>
<path d="M131.21 59.4301V61.5201C131.21 64.4601 133.61 66.8201 136.51 66.8201H153.82C155.38 66.8201 156.62 68.0701 156.62 69.6201C156.62 71.2201 155.37 72.4701 153.82 72.4701H136.51C133.57 72.4701 130.86 71.3101 128.77 69.2701C126.72 67.2201 125.57 64.4601 125.57 61.5301V51.7401C125.57 48.8001 126.73 46.0401 128.82 43.9501C130.91 41.8601 133.67 40.7001 136.61 40.7001H149.65C154.81 40.7001 158.99 44.9301 158.99 50.0901C158.99 55.2101 154.81 59.4401 149.65 59.4401H131.21V59.4301ZM131.21 53.7801H149.63C151.68 53.7801 153.32 52.0901 153.32 50.0901C153.32 48.0401 151.67 46.3501 149.63 46.3501H136.6C133.62 46.3501 131.22 48.8001 131.22 51.7301V53.7801H131.21Z" fill="#543791"/>
<path d="M291.13 49.3301C291.89 51.1101 292.24 52.9301 292.24 54.8501V69.6201C292.24 71.2201 290.99 72.4701 289.44 72.4701C287.84 72.4701 286.59 71.2201 286.59 69.6201V54.8501C286.59 50.1801 282.76 46.3501 278.09 46.3501H272.97C268.3 46.3501 264.47 50.1801 264.47 54.8501V69.6201C264.47 71.2201 263.22 72.4701 261.67 72.4701C260.11 72.4701 258.82 71.2201 258.82 69.6201V54.8501C258.82 52.9401 259.22 51.1101 259.93 49.3301C260.64 47.6801 261.67 46.1701 262.96 44.8401C264.25 43.5501 265.76 42.5301 267.45 41.8101C269.19 41.1001 271.05 40.7001 272.97 40.7001H278.09C280 40.7001 281.87 41.1001 283.61 41.8101C285.3 42.5201 286.81 43.5501 288.1 44.8401C289.39 46.1701 290.42 47.6901 291.13 49.3301Z" fill="#543791"/>
</svg>
