<svg width="32" height="32" viewBox="0 0 32 32" fill="none" xmlns="http://www.w3.org/2000/svg">
<path fill-rule="evenodd" clip-rule="evenodd" d="M2.66675 6.66675C2.66675 4.45761 4.45761 2.66675 6.66675 2.66675H14.8955C15.9564 2.66675 16.9738 3.08818 17.7239 3.8383L17.724 3.83833L27.4478 13.5622C29.5307 15.645 29.5307 19.0218 27.4478 21.1046L21.1046 27.4478C19.0218 29.5307 15.645 29.5307 13.5622 27.4478L3.83833 17.724L3.8383 17.7239C3.08818 16.9738 2.66675 15.9564 2.66675 14.8955V6.66675ZM6.66675 5.33341C5.93037 5.33341 5.33341 5.93037 5.33341 6.66675V14.8955C5.33341 15.2491 5.47386 15.5882 5.72394 15.8383C5.72395 15.8383 5.72396 15.8384 5.72397 15.8384L15.4478 25.5622C16.4893 26.6036 18.1776 26.6036 19.219 25.5622L25.5622 19.219C26.6036 18.1776 26.6036 16.4893 25.5622 15.4478L15.8384 5.72397C15.8384 5.72396 15.8383 5.72395 15.8383 5.72394C15.5882 5.47386 15.2491 5.33341 14.8955 5.33341H6.66675Z" fill="#111111"/>
<path d="M10 12C11.1046 12 12 11.1046 12 10C12 8.89543 11.1046 8 10 8C8.89543 8 8 8.89543 8 10C8 11.1046 8.89543 12 10 12Z" fill="#111111"/>
</svg>
