<svg width="24" height="24" viewBox="0 0 24 24" fill="none" xmlns="http://www.w3.org/2000/svg">
<path fill-rule="evenodd" clip-rule="evenodd" d="M17.4571 5.45707C17.4571 5.45708 17.4571 5.45707 17.4571 5.45707L16.4142 6.49995L17.5 7.58573L18.5429 6.54284C18.8427 6.24301 18.8428 5.75691 18.5429 5.45707C18.243 5.15722 17.757 5.15723 17.4571 5.45707ZM16.0858 8.99995L15 7.91416L5 17.9142V18.9999H6.08579L16.0858 8.99995ZM3.29289 16.7928C3.10536 16.9804 3 17.2347 3 17.4999V19.9999C3 20.5522 3.44772 20.9999 4 20.9999H6.5C6.76522 20.9999 7.01957 20.8946 7.20711 20.7071L19.9571 7.95707C19.9571 7.95708 19.9571 7.95707 19.9571 7.95707C21.038 6.87618 21.038 5.1237 19.9571 4.04282C18.8762 2.96196 17.1238 2.96196 16.0429 4.04282L3.29289 16.7928ZM20 20.9999H11C10.4477 20.9999 10 20.5522 10 19.9999C10 19.4477 10.4477 18.9999 11 18.9999H20C20.5523 18.9999 21 19.4477 21 19.9999C21 20.5522 20.5523 20.9999 20 20.9999Z" fill="#292D32"/>
</svg>
