<svg width="390" height="432" viewBox="0 0 390 432" fill="none" xmlns="http://www.w3.org/2000/svg">
<path d="M0 240.363C0 214.731 0 201.914 4.36636 191.103C8.22084 181.56 14.4655 173.169 22.5 166.736C31.6014 159.449 43.878 155.768 68.4312 148.407L266.431 89.0463C308.312 76.4901 329.253 70.2121 345.85 74.7581C360.386 78.7395 372.891 88.0454 380.879 100.826C390 115.418 390 137.28 390 181.003V336C390 369.603 390 386.405 383.46 399.239C377.708 410.529 368.529 419.708 357.239 425.46C344.405 432 327.603 432 294 432H96C62.3968 432 45.5953 432 32.7606 425.46C21.4708 419.708 12.292 410.529 6.53961 399.239C0 386.405 0 369.603 0 336V240.363Z" fill="#FDDE6A"/>
<path d="M390 -67.1461C390 -40.9199 390 -27.8069 385.473 -16.8227C381.477 -7.12881 375.011 1.3488 366.718 7.76537C357.322 15.036 344.676 18.5031 319.383 25.4374L121.383 79.7214C80.1213 91.0338 59.4905 96.6899 43.1923 91.9339C28.9128 87.767 16.6903 78.4444 8.8961 65.7749C5.39274e-06 51.3142 7.2629e-06 29.9221 1.10032e-05 -12.8621L2.48281e-05 -171C2.77657e-05 -204.603 2.92346e-05 -221.405 6.53964 -234.239C12.292 -245.529 21.4709 -254.708 32.7606 -260.46C45.5953 -267 62.3969 -267 96 -267L294 -267C327.603 -267 344.405 -267 357.239 -260.46C368.529 -254.708 377.708 -245.529 383.46 -234.239C390 -221.405 390 -204.603 390 -171L390 -67.1461Z" fill="#F7F6F9"/>
</svg>
