<svg width="34" height="34" viewBox="0 0 34 34" fill="none" xmlns="http://www.w3.org/2000/svg">
<path d="M16.5923 4.35203C16.5923 3.82625 17.0185 3.40002 17.5443 3.40002C18.0701 3.40002 18.4963 3.82625 18.4963 4.35202V29.648C18.4963 30.1738 18.0701 30.6 17.5443 30.6C17.0185 30.6 16.5923 30.1738 16.5923 29.648V4.35203Z" fill="white"/>
<path fill-rule="evenodd" clip-rule="evenodd" d="M10.8804 12.24H5.44035C4.31369 12.24 3.40035 13.1534 3.40035 14.28V19.72C3.40035 20.8467 4.31369 21.76 5.44035 21.76H10.8804C12.007 21.76 12.9204 20.8467 12.9204 19.72V14.28C12.9204 13.1534 12.007 12.24 10.8804 12.24ZM5.44035 10.2C3.18703 10.2 1.36035 12.0267 1.36035 14.28V19.72C1.36035 21.9733 3.18703 23.8 5.44035 23.8H10.8804C13.1337 23.8 14.9604 21.9733 14.9604 19.72V14.28C14.9604 12.0267 13.1337 10.2 10.8804 10.2H5.44035Z" fill="white"/>
<path d="M25.3127 11.7084C25.8456 10.7853 27.1781 10.7853 27.7111 11.7084L32.7078 20.363C33.2408 21.2861 32.5745 22.4401 31.5086 22.4401H21.5152C20.4492 22.4401 19.783 21.2861 20.316 20.363L25.3127 11.7084Z" fill="white"/>
</svg>
