<svg width="390" height="453" viewBox="0 0 390 453" fill="none" xmlns="http://www.w3.org/2000/svg">
<path d="M390 393V154.238C390 113.869 350.938 85.0191 312.355 96.8908L212.645 127.571C201.148 131.108 188.852 131.108 177.355 127.571L77.6452 96.8908C39.062 85.0191 0 113.869 0 154.238V393C0 426.137 26.8629 453 60 453H195H330C363.137 453 390 426.137 390 393Z" fill="#FFE8F0"/>
<path d="M217.773 83.6571L364.003 23.6654C379.73 17.2134 390 1.89917 390 -15.0996C390 -38.2405 371.241 -57 348.1 -57L41.9004 -57C18.7595 -57 1.14734e-05 -38.2406 9.45037e-06 -15.0996C7.96429e-06 1.89912 10.2701 17.2134 25.9968 23.6653L172.227 83.6571C186.819 89.6436 203.181 89.6436 217.773 83.6571Z" fill="#F7F6F9"/>
</svg>
