<svg width="24" height="24" viewBox="0 0 24 24" fill="none" xmlns="http://www.w3.org/2000/svg">
<path fill-rule="evenodd" clip-rule="evenodd" d="M7 7C5.89543 7 5 7.89543 5 9V15C5 16.1046 5.89542 17 7 17H8C8.55228 17 9 17.4477 9 18C9 18.5523 8.55228 19 8 19H7C4.79088 19 3 17.2092 3 15V9C3 6.79087 4.79087 5 7 5H17C19.2092 5 21 6.79088 21 9V15C21 17.2092 19.2092 19 17 19H14.4142L15.7071 20.2929C16.0976 20.6834 16.0976 21.3166 15.7071 21.7071C15.3166 22.0976 14.6834 22.0976 14.2929 21.7071L11.2929 18.7071C10.9024 18.3166 10.9024 17.6834 11.2929 17.2929L14.2929 14.2929C14.6834 13.9024 15.3166 13.9024 15.7071 14.2929C16.0976 14.6834 16.0976 15.3166 15.7071 15.7071L14.4142 17H17C18.1046 17 19 16.1046 19 15V9C19 7.89542 18.1046 7 17 7H7Z" fill="white"/>
</svg>
