<svg width="30" height="30" viewBox="0 0 30 30" fill="none" xmlns="http://www.w3.org/2000/svg">
<path fill-rule="evenodd" clip-rule="evenodd" d="M16.6161 2.86612C17.1043 2.37796 17.8957 2.37796 18.3839 2.86612L22.1339 6.61612C22.622 7.10427 22.622 7.89573 22.1339 8.38388L18.3839 12.1339C17.8957 12.622 17.1043 12.622 16.6161 12.1339C16.128 11.6457 16.128 10.8543 16.6161 10.3661L18.2322 8.75H15C10.8579 8.75 7.5 12.1079 7.5 16.25C7.5 20.3921 10.8579 23.75 15 23.75C19.1421 23.75 22.5 20.3921 22.5 16.25C22.5 15.5596 23.0596 15 23.75 15C24.4404 15 25 15.5596 25 16.25C25 21.7729 20.5229 26.25 15 26.25C9.47716 26.25 5 21.7729 5 16.25C5 10.7272 9.47716 6.25 15 6.25H18.2322L16.6161 4.63388C16.128 4.14573 16.128 3.35427 16.6161 2.86612Z" fill="white"/>
</svg>
