<svg width="100" height="100" viewBox="0 0 100 100" fill="none" xmlns="http://www.w3.org/2000/svg">
<path d="M68.2297 54.5378C70.2335 54.5378 71.8579 52.9134 71.8579 50.9096C71.8579 48.9059 70.2335 47.2815 68.2297 47.2815C66.2259 47.2815 64.6016 48.9059 64.6016 50.9096C64.6016 52.9134 66.2259 54.5378 68.2297 54.5378Z" fill="#BDBDBD"/>
<path d="M60.9734 40.0253H39.2046C38.1162 40.0253 37.3906 40.751 37.3906 41.8393C37.3906 42.9276 38.1163 43.6533 39.2046 43.6533H60.9732C62.0617 43.6533 62.7872 42.9276 62.7872 41.8393C62.7872 40.751 62.0619 40.0253 60.9734 40.0253Z" fill="#BDBDBD"/>
<path d="M84.5596 49.0956C83.4711 49.0956 82.5641 48.5513 82.0199 47.4629C80.5686 44.5604 78.7547 41.8392 76.215 39.2996L78.9361 29.685C79.1176 29.1408 78.9361 28.5965 78.5733 28.0523C78.2106 27.6895 77.6663 27.3266 77.1221 27.3266C72.2242 27.1452 68.2333 28.7779 65.1493 32.2245C63.6981 31.6803 62.0654 31.1361 60.4327 30.5919C61.7025 28.5964 62.4282 26.2382 62.4282 23.6985C62.4282 16.6236 56.8046 11 49.7297 11C42.6549 11 37.0312 16.6236 37.0312 23.6985C37.0312 30.7733 42.6549 36.3969 49.7297 36.3969C52.8136 36.3969 55.5346 35.3085 57.7116 33.4945C60.0698 34.0387 62.9723 35.1272 64.7864 36.0342C65.5121 36.3969 66.4191 36.2156 66.9633 35.4899C68.9588 32.9502 71.317 31.499 74.401 31.1362L72.0427 39.4809C71.8613 40.2066 72.0427 40.9321 72.587 41.2949C75.1266 43.6531 77.1221 46.1928 78.3919 49.0952C79.4803 51.4535 81.6571 52.7234 84.1968 52.7234C85.2853 52.7234 86.0108 53.4491 86.0108 54.5374V61.7936C86.0108 62.882 85.2851 63.6076 84.1968 63.6076H81.1129C80.5686 63.6076 80.2059 63.789 79.8431 64.1518C78.9361 65.2402 78.2104 65.9658 77.3034 66.6915C76.3964 67.5985 75.308 68.5055 73.8567 70.3196C71.1356 73.4036 69.6843 77.3945 69.6843 81.7482V83.5622C69.6843 84.6506 68.9586 85.3762 67.8703 85.3762H64.2422C63.1537 85.3762 62.4282 84.6505 62.4282 83.5622V80.1155C62.4282 79.027 61.7025 78.3015 60.6142 78.3015C59.5257 78.3015 58.8002 79.0272 58.8002 80.1155V83.5622C58.8002 86.6461 61.1584 89.0043 64.2423 89.0043H67.8702C70.9541 89.0043 73.3123 86.6461 73.3123 83.5622V81.7482C73.3123 78.3015 74.4008 75.0361 76.5776 72.6779C78.0288 71.0452 78.9358 70.1382 79.8428 69.2312C80.5685 68.6869 81.1126 67.9614 81.8383 67.2357H84.5594C87.6433 67.2357 90.0016 64.8775 90.0016 61.7936V54.5374C90.0017 51.4538 87.6433 49.0956 84.5596 49.0956ZM50.0925 32.7691C45.0131 32.7691 41.0222 28.7782 41.0222 23.6988C41.0222 18.6194 45.0131 14.6285 50.0925 14.6285C55.1719 14.6285 59.1628 18.6194 59.1628 23.6988C59.1626 28.7782 55.1717 32.7691 50.0925 32.7691Z" fill="#BDBDBD"/>
<path d="M54.2629 79.7531C48.8208 80.2973 43.0159 79.7531 37.9365 77.9391C37.3922 77.7577 36.848 77.7577 36.3038 78.1206C35.941 78.4833 35.5781 79.0276 35.5781 79.5718V83.5627C35.5781 84.6512 34.8524 85.3767 33.7641 85.3767H30.1359C29.0475 85.3767 28.3219 84.651 28.3219 83.5627V79.3903C28.3219 75.5809 27.0522 71.7713 24.5125 68.6873C23.9682 68.1431 23.424 67.4176 22.8798 66.8733C21.4285 65.2406 20.5215 63.9709 19.7958 62.5196C19.4331 61.2499 19.2516 59.98 19.2516 58.166C19.2516 48.5514 25.7822 39.844 36.3038 35.4902C37.2108 35.1274 37.755 34.0389 37.2108 33.1319C36.848 32.2249 35.7595 31.6807 34.8525 32.225C23.7868 36.7601 16.7121 45.8303 15.6236 55.989C14.5352 55.4448 13.6282 54.175 13.6282 52.7238C13.6282 51.6353 12.9025 50.9098 11.8142 50.9098C10.7258 50.9098 10 51.6353 10 52.7238C10 56.1705 12.3582 58.8917 15.4422 59.7987C15.6236 61.2499 15.8049 62.7011 16.3492 63.7896C17.0748 65.785 18.3446 67.2363 19.9773 69.2317C20.5215 69.776 21.0658 70.5015 21.61 71.2272C23.424 73.5854 24.5125 76.6693 24.5125 79.5718V83.7442C24.5125 86.8281 26.8707 89.1863 29.9546 89.1863H33.5828C36.6667 89.1863 39.0249 86.8281 39.0249 83.7442V82.293C43.9229 83.7442 49.365 84.107 54.6259 83.5627C55.5329 83.3813 56.2586 82.4743 56.2586 81.5673C56.2584 80.2973 55.3514 79.5718 54.2629 79.7531Z" fill="#BDBDBD"/>
<path d="M51.9029 25.5129V20.0707C51.9029 18.9823 51.1772 18.2567 50.0889 18.2567H48.2749C47.1865 18.2567 46.4609 18.9824 46.4609 20.0707C46.4609 21.159 47.1866 21.8847 48.2749 21.8847V25.5129C47.1865 25.5129 46.4609 26.2386 46.4609 27.3269C46.4609 28.4152 47.1866 29.1409 48.2749 29.1409H51.9029C52.9914 29.1409 53.7169 28.4152 53.7169 27.3269C53.7169 26.2386 52.9914 25.5129 51.9029 25.5129Z" fill="#BDBDBD"/>
</svg>
