<svg width="32" height="32" viewBox="0 0 32 32" fill="none" xmlns="http://www.w3.org/2000/svg">
<path fill-rule="evenodd" clip-rule="evenodd" d="M4 12.6667C4 7.88019 7.88019 4 12.6667 4C17.4532 4 21.3333 7.8802 21.3333 12.6667C21.3333 14.5788 20.7141 16.3463 19.6652 17.7796L26.2761 24.3905C26.7968 24.9112 26.7968 25.7554 26.2761 26.2761C25.7554 26.7968 24.9112 26.7968 24.3905 26.2761L17.7796 19.6652C16.3463 20.7141 14.5788 21.3333 12.6667 21.3333C7.8802 21.3333 4 17.4532 4 12.6667ZM12.6667 6.66667C9.35295 6.66667 6.66667 9.35295 6.66667 12.6667C6.66667 15.9804 9.35295 18.6667 12.6667 18.6667C15.9804 18.6667 18.6667 15.9804 18.6667 12.6667C18.6667 9.35295 15.9804 6.66667 12.6667 6.66667Z" fill="white"/>
</svg>
