<svg width="36" height="36" viewBox="0 0 36 36" fill="none" xmlns="http://www.w3.org/2000/svg">
<path fill-rule="evenodd" clip-rule="evenodd" d="M15.9418 7.1746L15.6374 8.54441C15.5291 9.03201 15.1851 9.43369 14.72 9.61579C13.871 9.94817 13.084 10.4063 12.3821 10.9679C11.9918 11.2802 11.4715 11.3775 10.9947 11.2274L9.65339 10.8052C8.98278 10.5942 8.25554 10.8772 7.90401 11.486L7.31053 12.514C6.959 13.1228 7.07753 13.8941 7.5956 14.3693L7.59563 14.3694L8.63093 15.319C8.9986 15.6562 9.17452 16.1542 9.10028 16.6476C9.03404 17.0879 8.99956 17.5395 8.99956 18C8.99956 18.4605 9.03403 18.912 9.10029 19.3525C9.1745 19.8458 8.99857 20.3438 8.63092 20.681L7.59559 21.6307C7.07753 22.1058 6.95897 22.8771 7.31049 23.4859L7.90402 24.514C8.2555 25.1228 8.98263 25.4058 9.65328 25.1948L9.6534 25.1948L10.9946 24.7726C11.4714 24.6225 11.9917 24.7198 12.3821 25.0321C13.084 25.5937 13.871 26.0518 14.7199 26.3841C15.1851 26.5662 15.5291 26.9679 15.6374 27.4555L15.9418 28.8254L15.9418 28.8255C16.0943 29.5117 16.7031 30 17.4061 30H18.593C19.296 30 19.9047 29.5118 20.0573 28.8255L20.0574 28.8254L20.3617 27.4556C20.47 26.9679 20.814 26.5662 21.2792 26.3841C22.1281 26.0518 22.9151 25.5937 23.6171 25.032C24.0075 24.7198 24.5278 24.6225 25.0047 24.7726L26.3456 25.1948L26.3458 25.1948C27.0166 25.4058 27.7437 25.1227 28.0952 24.514L28.0952 24.5139L28.6886 23.4862L28.6886 23.4861C29.0402 22.877 28.9215 22.1058 28.4036 21.6307L28.4035 21.6306L27.3682 20.681C27.0006 20.3438 26.8247 19.8459 26.8989 19.3526C26.9651 18.912 26.9996 18.4603 26.9996 18C26.9996 17.5397 26.9651 17.088 26.8989 16.6474C26.8247 16.1541 27.0006 15.6562 27.3682 15.319L28.4035 14.3694C28.9216 13.8942 29.0401 13.1229 28.6886 12.514L28.6886 12.514L28.0951 11.4861L28.095 11.486C27.7435 10.8772 27.0164 10.5941 26.3457 10.8052L25.0044 11.2274C24.5275 11.3775 24.0072 11.2801 23.6169 10.9678C22.9151 10.4063 22.1281 9.94818 21.2791 9.61578C20.814 9.43367 20.47 9.03198 20.3617 8.54437L20.0574 7.17468L20.0573 7.17455C19.9047 6.48821 19.296 6 18.593 6H17.4061C16.703 6 16.0943 6.4883 15.9418 7.1746ZM13.0132 6.52382C13.4708 4.46488 15.2969 3 17.4061 3H18.593C20.7022 3 22.5283 4.46491 22.9859 6.52374L22.9859 6.52387L23.1243 7.14661C23.7235 7.42999 24.2953 7.76138 24.8346 8.13572L25.445 7.94361C27.4569 7.31041 29.6385 8.15944 30.6931 9.98595L30.6931 9.98602L31.2866 11.0139L31.2867 11.014C32.3412 12.8405 31.9858 15.1544 30.4314 16.5801L29.9595 17.013C29.9861 17.3387 29.9996 17.6679 29.9996 18C29.9996 18.3321 29.9861 18.6613 29.9595 18.987L30.4314 19.4198C31.9858 20.8455 32.3412 23.1594 31.2867 24.986L31.2867 24.9861L30.6933 26.0138L30.6933 26.0139C29.6386 27.8407 27.4568 28.6895 25.4451 28.0564L24.8347 27.8642C24.2953 28.2386 23.7235 28.57 23.1243 28.8533L22.9859 29.4762L22.9859 29.4763C22.5283 31.535 20.7022 33 18.593 33H17.4061C15.2969 33 13.4708 31.535 13.0132 29.4763L13.0132 29.4762L12.8748 28.8534C12.2756 28.57 11.7038 28.2386 11.1645 27.8642L10.554 28.0564C8.54225 28.6895 6.36052 27.8407 5.30591 26.0139L5.30587 26.0138L4.71242 24.986C3.65785 23.1594 4.0134 20.8455 5.56772 19.4198L6.03965 18.987C6.01309 18.6612 5.99956 18.3321 5.99956 18C5.99956 17.668 6.01309 17.3388 6.03965 17.013L5.56777 16.5802L5.56773 16.5801C4.01341 15.1545 3.65789 12.8405 4.71244 11.014L5.30592 9.98604C6.36049 8.15947 8.5422 7.31039 10.5541 7.94363L11.1644 8.13574C11.7038 7.76138 12.2756 7.42998 12.8748 7.14659L13.0132 6.52382Z" fill="white"/>
<path fill-rule="evenodd" clip-rule="evenodd" d="M15 18C15 16.3431 16.3431 15 18 15C19.6569 15 21 16.3431 21 18C21 19.6569 19.6569 21 18 21C16.3431 21 15 19.6569 15 18Z" fill="white"/>
</svg>
