<svg width="30" height="30" viewBox="0 0 30 30" fill="none" xmlns="http://www.w3.org/2000/svg">
<g opacity="0.8">
<path fill-rule="evenodd" clip-rule="evenodd" d="M16.875 8.125C16.875 5.70875 18.8338 3.75 21.25 3.75C23.6662 3.75 25.625 5.70875 25.625 8.125C25.625 10.5412 23.6662 12.5 21.25 12.5C19.9629 12.5 18.8069 11.9441 18.0071 11.0615L11.1971 14.3185C11.2319 14.5409 11.25 14.7685 11.25 15C11.25 15.2315 11.2319 15.4591 11.1971 15.6815L18.0071 18.9385C18.8069 18.0559 19.9629 17.5 21.25 17.5C23.6662 17.5 25.625 19.4588 25.625 21.875C25.625 24.2912 23.6662 26.25 21.25 26.25C18.8338 26.25 16.875 24.2912 16.875 21.875C16.875 21.6436 16.8931 21.4159 16.9279 21.1935L10.1178 17.9365C9.31815 18.8191 8.16216 19.375 6.875 19.375C4.45875 19.375 2.5 17.4162 2.5 15C2.5 12.5838 4.45875 10.625 6.875 10.625C8.16216 10.625 9.31815 11.1809 10.1178 12.0635L16.9279 8.80646C16.8931 8.58407 16.875 8.35644 16.875 8.125ZM19.5574 8.93349C19.8609 9.56689 20.5062 10 21.25 10C22.2855 10 23.125 9.16053 23.125 8.125C23.125 7.08947 22.2855 6.25 21.25 6.25C20.2145 6.25 19.375 7.08947 19.375 8.125C19.375 8.41714 19.4409 8.69026 19.5574 8.93345M6.875 13.125C5.83947 13.125 5 13.9645 5 15C5 16.0355 5.83947 16.875 6.875 16.875C7.6189 16.875 8.26408 16.4419 8.56753 15.8085L8.56755 15.8085C8.68409 15.5653 8.75 15.2921 8.75 15C8.75 14.7079 8.68409 14.4347 8.56755 14.1915L8.56753 14.1915C8.26408 13.5581 7.6189 13.125 6.875 13.125ZM21.25 20C20.5062 20 19.8609 20.4331 19.5574 21.0665C19.4409 21.3097 19.375 21.5828 19.375 21.875C19.375 22.9105 20.2145 23.75 21.25 23.75C22.2855 23.75 23.125 22.9105 23.125 21.875C23.125 20.8395 22.2855 20 21.25 20Z" fill="#111111"/>
</g>
</svg>
