<svg width="19" height="20" viewBox="0 0 19 20" fill="none" xmlns="http://www.w3.org/2000/svg">
<path d="M15.2344 12.9688C14.0765 12.9688 13.0562 13.5383 12.4154 14.4045L6.87461 11.5673C6.9666 11.2538 7.03125 10.9288 7.03125 10.5859C7.03125 10.1209 6.9359 9.67871 6.77117 9.27203L12.5698 5.78266C13.2151 6.54 14.1636 7.03125 15.2344 7.03125C17.173 7.03125 18.75 5.45426 18.75 3.51562C18.75 1.57699 17.173 0 15.2344 0C13.2957 0 11.7188 1.57699 11.7188 3.51562C11.7188 3.96238 11.8107 4.38617 11.9634 4.77961L6.14746 8.27922C5.5027 7.54437 4.56785 7.07031 3.51562 7.07031C1.57699 7.07031 0 8.6473 0 10.5859C0 12.5246 1.57699 14.1016 3.51562 14.1016C4.69258 14.1016 5.73012 13.5153 6.36856 12.6248L11.8911 15.4527C11.7893 15.7811 11.7188 16.123 11.7188 16.4844C11.7188 18.423 13.2957 20 15.2344 20C17.173 20 18.75 18.423 18.75 16.4844C18.75 14.5457 17.173 12.9688 15.2344 12.9688Z" fill="white"/>
</svg>
