<svg width="100" height="100" viewBox="0 0 100 100" fill="none" xmlns="http://www.w3.org/2000/svg">
<path d="M83.5949 75.5422C85.3638 75.5422 86.7972 74.1087 86.7972 72.3399V27.4046C86.7972 25.6363 85.3635 24.2023 83.5949 24.2023H39.469C37.7005 24.2023 36.2667 25.6363 36.2667 27.4046V72.3399C36.2667 74.1087 37.7002 75.5422 39.469 75.5422H83.5949ZM83.5949 78.7445H39.469C35.9317 78.7445 33.0645 75.8773 33.0645 72.3399V27.4046C33.0645 23.8678 35.9319 21 39.469 21H83.5949C87.1321 21 89.9995 23.8678 89.9995 27.4046V72.3399C89.9995 75.8773 87.1323 78.7445 83.5949 78.7445Z" fill="#BDBDBD"/>
<path d="M64.399 42.2162C62.7659 41.3823 60.2989 41.3823 58.6656 42.2162L56.8623 43.1368V24.1948C56.8623 23.3105 56.1454 22.5936 55.2611 22.5936C54.3768 22.5936 53.66 23.3105 53.66 24.1948V43.3509C53.66 45.8683 55.8876 47.2314 58.1291 46.0855L60.1216 45.0684C60.8405 44.7015 62.2243 44.7015 62.9431 45.0684L64.9366 46.086C67.1781 47.2312 69.4048 45.8684 69.4048 43.351V24.1949C69.4048 23.3105 68.688 22.5937 67.8037 22.5937C66.9194 22.5937 66.2025 23.3105 66.2025 24.1949V43.1368L64.399 42.2162ZM24.8634 37.6022H11.6011C10.7168 37.6022 10 38.319 10 39.2033C10 40.0876 10.7168 40.8045 11.6011 40.8045H24.8634C25.7477 40.8045 26.4646 40.0876 26.4646 39.2033C26.4646 38.319 25.7477 37.6022 24.8634 37.6022ZM24.8634 56.8159H11.6011C10.7168 56.8159 10 57.5327 10 58.417C10 59.3014 10.7168 60.0182 11.6011 60.0182H24.8634C25.7477 60.0182 26.4646 59.3014 26.4646 58.417C26.4646 57.5327 25.7477 56.8159 24.8634 56.8159ZM27.9475 47.209H14.6852C13.8009 47.209 13.0841 47.9259 13.0841 48.8102C13.0841 49.6945 13.8009 50.4113 14.6852 50.4113H27.9475C28.8318 50.4113 29.5487 49.6945 29.5487 48.8102C29.5487 47.9259 28.8318 47.209 27.9475 47.209Z" fill="#BDBDBD"/>
</svg>
