<svg width="26" height="26" viewBox="0 0 26 26" fill="none" xmlns="http://www.w3.org/2000/svg">
<path d="M7.48637 8.42228L6.2151 7.7283C6.00629 7.61468 5.74221 7.69145 5.6286 7.90026C5.51498 8.10907 5.59175 8.37315 5.80363 8.48676L7.07183 9.18074C7.28064 9.29436 7.54472 9.21759 7.65833 9.00878C7.77195 8.79998 7.69518 8.5359 7.48637 8.42228Z" fill="white"/>
<path d="M10.1613 6.41732L9.44891 5.24431C9.32608 5.03857 9.05893 4.97409 8.8532 5.09999C8.64746 5.22281 8.58297 5.48997 8.70887 5.6957L9.42128 6.86871C9.5441 7.07445 9.81126 7.13893 10.017 7.01304C10.2227 6.88714 10.2872 6.62306 10.1613 6.41732Z" fill="white"/>
<path d="M12.9994 4.16016C12.7599 4.16016 12.5664 4.35361 12.5664 4.59313V5.92581C12.5664 6.16533 12.7599 6.35878 12.9994 6.35878C13.2389 6.35878 13.4323 6.16533 13.4323 5.92581V4.59313C13.4323 4.35361 13.2389 4.16016 12.9994 4.16016Z" fill="white"/>
<path d="M17.1438 5.09986C16.9381 4.97703 16.674 5.04152 16.5481 5.24418L15.8357 6.41719C15.7129 6.62293 15.7774 6.89008 15.98 7.01291C16.1858 7.13881 16.4498 7.07125 16.5757 6.86858L17.2881 5.69558C17.411 5.48984 17.3465 5.22576 17.1438 5.09986Z" fill="white"/>
<path d="M20.3655 7.90016C20.2518 7.69135 19.9878 7.61151 19.779 7.7282L18.5077 8.42218C18.2989 8.53579 18.2221 8.7968 18.3357 9.00868C18.4493 9.21749 18.7134 9.29733 18.9222 9.18064L20.1935 8.48666C20.4023 8.37304 20.4821 8.10896 20.3655 7.90016Z" fill="white"/>
<path d="M20.7681 19.1665L19.9974 17.2197C19.9329 17.0539 19.7732 16.9464 19.5951 16.9464H18.6923L17.765 10.1755C17.6053 8.94723 16.5551 8.02295 15.3145 8.02295H10.6808C9.44334 8.02295 8.39009 8.94723 8.23349 10.1724L7.30613 16.9433H6.40335C6.22525 16.9433 6.06557 17.0508 6.00108 17.2166L5.23034 19.1665C5.11672 19.4521 5.3286 19.7592 5.6326 19.7592H20.3658C20.6698 19.7592 20.8817 19.4521 20.7681 19.1665ZM9.09328 10.2861C9.19462 9.48768 9.87938 8.88889 10.6839 8.88889H15.3176C16.1221 8.88889 16.8038 9.49075 16.9082 10.2891L17.8202 16.9433H8.18128L9.09328 10.2861ZM6.27131 18.8932L6.69813 17.8124H19.3003L19.7271 18.8932H6.27131Z" fill="white"/>
</svg>
