<svg width="63" height="42" viewBox="0 0 63 42" fill="none" xmlns="http://www.w3.org/2000/svg">
<path d="M18.5242 21C19.8915 21 21 19.8915 21 18.5242C21 17.8846 20.7525 17.2698 20.3093 16.8086L8.79753 4.82995C8.77834 4.80998 8.76762 4.78336 8.76762 4.75566C8.76762 4.69644 8.81563 4.64844 8.87484 4.64844H18.2529C19.5365 4.64844 20.5771 3.60785 20.5771 2.32422C20.5771 1.04059 19.5365 0 18.2529 0H3.14432C1.64134 0 0.422928 1.21841 0.422928 2.72139C0.422928 3.40654 0.681364 4.06647 1.14664 4.56942L11.8783 16.1701C11.8968 16.1901 11.907 16.2163 11.907 16.2435C11.907 16.3032 11.8587 16.3516 11.799 16.3516H2.32422C1.04059 16.3516 0 17.3921 0 18.6758C0 19.9594 1.04059 21 2.32422 21H18.5242Z" fill="#C7C6F4"/>
<path fill-rule="evenodd" clip-rule="evenodd" d="M10.5 37.6552C13.8994 37.6552 16.6552 34.8994 16.6552 31.5C16.6552 28.1006 13.8994 25.3448 10.5 25.3448C7.10059 25.3448 4.34483 28.1006 4.34483 31.5C4.34483 34.8994 7.10059 37.6552 10.5 37.6552ZM10.5 42C16.299 42 21 37.299 21 31.5C21 25.701 16.299 21 10.5 21C4.70101 21 0 25.701 0 31.5C0 37.299 4.70101 42 10.5 42Z" fill="#C7C6F4"/>
<path d="M24.397 21C25.4282 21 26.3432 21.6612 26.6668 22.6403L31.3668 36.8589C31.3858 36.9163 31.4394 36.9551 31.4998 36.9551C31.5602 36.9551 31.6138 36.9164 31.6328 36.859L36.3436 22.6364C36.6672 21.6595 37.5804 21 38.6094 21C40.261 21 41.4134 22.637 40.8565 24.1918L35.1654 40.0802C34.7529 41.2317 33.6616 42 32.4385 42H30.5708C29.3481 42 28.2571 41.2323 27.8443 40.0814L22.1468 24.1977C21.5882 22.6403 22.7424 21 24.397 21Z" fill="#C7C6F4"/>
<path d="M39.5242 21C40.8915 21 42 19.8915 42 18.5242C42 17.8846 41.7525 17.2698 41.3093 16.8086L29.7975 4.82995C29.7783 4.80998 29.7676 4.78336 29.7676 4.75566C29.7676 4.69644 29.8156 4.64844 29.8748 4.64844H39.2529C40.5365 4.64844 41.5771 3.60785 41.5771 2.32422C41.5771 1.04059 40.5365 0 39.2529 0H24.1443C22.6413 0 21.4229 1.21841 21.4229 2.72139C21.4229 3.40654 21.6814 4.06647 22.1466 4.56942L32.8783 16.1701C32.8968 16.1901 32.907 16.2163 32.907 16.2435C32.907 16.3032 32.8587 16.3516 32.799 16.3516H23.3242C22.0406 16.3516 21 17.3921 21 18.6758C21 19.9594 22.0406 21 23.3242 21H39.5242Z" fill="#C7C6F4"/>
<path d="M60.5242 21C61.8915 21 63 19.8915 63 18.5242C63 17.8846 62.7525 17.2698 62.3093 16.8086L50.7975 4.82995C50.7783 4.80998 50.7676 4.78336 50.7676 4.75566C50.7676 4.69644 50.8156 4.64844 50.8748 4.64844H60.2529C61.5365 4.64844 62.5771 3.60785 62.5771 2.32422C62.5771 1.04059 61.5365 0 60.2529 0H45.1443C43.6413 0 42.4229 1.21841 42.4229 2.72139C42.4229 3.40654 42.6814 4.06647 43.1466 4.56942L53.8783 16.1701C53.8968 16.1901 53.907 16.2163 53.907 16.2435C53.907 16.3032 53.8587 16.3516 53.799 16.3516H44.3242C43.0406 16.3516 42 17.3921 42 18.6758C42 19.9594 43.0406 21 44.3242 21H60.5242Z" fill="#C7C6F4"/>
<path fill-rule="evenodd" clip-rule="evenodd" d="M52.5 37.6552C55.8994 37.6552 58.6552 34.8994 58.6552 31.5C58.6552 28.1006 55.8994 25.3448 52.5 25.3448C49.1006 25.3448 46.3448 28.1006 46.3448 31.5C46.3448 34.8994 49.1006 37.6552 52.5 37.6552ZM52.5 42C58.299 42 63 37.299 63 31.5C63 25.701 58.299 21 52.5 21C46.701 21 42 25.701 42 31.5C42 37.299 46.701 42 52.5 42Z" fill="#C7C6F4"/>
</svg>
