<svg width="16" height="16" viewBox="0 0 16 16" fill="none" xmlns="http://www.w3.org/2000/svg">
<g clip-path="url(#clip0_297_403)">
<path d="M8.00008 15.3334C9.45048 15.3334 10.8683 14.9033 12.0743 14.0975C13.2802 13.2917 14.2202 12.1464 14.7752 10.8064C15.3302 9.46638 15.4755 7.99189 15.1925 6.56936C14.9095 5.14683 14.2111 3.84016 13.1855 2.81457C12.1599 1.78899 10.8533 1.09056 9.43074 0.807598C8.00822 0.52464 6.53373 0.669864 5.19374 1.22491C3.85374 1.77995 2.70843 2.71988 1.90264 3.92584C1.09684 5.1318 0.666748 6.54963 0.666748 8.00002C0.669042 9.94424 1.4424 11.8082 2.81716 13.1829C4.19193 14.5577 6.05586 15.3311 8.00008 15.3334ZM8.00008 2.00002C9.18677 2.00002 10.3468 2.35192 11.3335 3.01121C12.3202 3.67049 13.0892 4.60757 13.5434 5.70392C13.9975 6.80028 14.1163 8.00668 13.8848 9.17057C13.6533 10.3345 13.0818 11.4035 12.2427 12.2427C11.4036 13.0818 10.3345 13.6532 9.17062 13.8847C8.00674 14.1162 6.80034 13.9974 5.70398 13.5433C4.60762 13.0892 3.67055 12.3201 3.01126 11.3334C2.35198 10.3468 2.00008 9.18671 2.00008 8.00002C2.00185 6.40927 2.63455 4.88417 3.75939 3.75933C4.88423 2.6345 6.40932 2.00179 8.00008 2.00002ZM5.52875 9.52869L7.05741 8.00002L5.52875 6.47136C5.40731 6.34562 5.34011 6.17722 5.34163 6.00242C5.34315 5.82762 5.41326 5.66042 5.53687 5.53681C5.66047 5.41321 5.82768 5.34309 6.00248 5.34157C6.17728 5.34006 6.34568 5.40725 6.47141 5.52869L8.00008 7.05736L9.52875 5.52869C9.65448 5.40725 9.82288 5.34006 9.99768 5.34157C10.1725 5.34309 10.3397 5.41321 10.4633 5.53681C10.5869 5.66042 10.657 5.82762 10.6585 6.00242C10.66 6.17722 10.5929 6.34562 10.4714 6.47136L8.94275 8.00002L10.4714 9.52869C10.5351 9.59019 10.5859 9.66375 10.6208 9.74509C10.6558 9.82642 10.6741 9.9139 10.6749 10.0024C10.6757 10.0909 10.6588 10.1787 10.6253 10.2607C10.5918 10.3426 10.5423 10.417 10.4797 10.4796C10.4171 10.5422 10.3426 10.5917 10.2607 10.6252C10.1788 10.6588 10.091 10.6756 10.0025 10.6749C9.91396 10.6741 9.82648 10.6557 9.74514 10.6208C9.66381 10.5858 9.59025 10.535 9.52875 10.4714L8.00008 8.94269L6.47141 10.4714C6.34568 10.5928 6.17728 10.66 6.00248 10.6585C5.82768 10.657 5.66047 10.5868 5.53687 10.4632C5.41326 10.3396 5.34315 10.1724 5.34163 9.99762C5.34011 9.82283 5.40731 9.65443 5.52875 9.52869Z" fill="#BDBDBD"/>
</g>
<defs>
<clipPath id="clip0_297_403">
<rect width="16" height="16" fill="white"/>
</clipPath>
</defs>
</svg>
