<svg width="34" height="34" viewBox="0 0 34 34" fill="none" xmlns="http://www.w3.org/2000/svg">
<path fill-rule="evenodd" clip-rule="evenodd" d="M5.66675 5.66667C5.66675 4.88426 6.30101 4.25 7.08341 4.25H26.9167C27.6992 4.25 28.3334 4.88426 28.3334 5.66667C28.3334 6.44907 27.6992 7.08333 26.9167 7.08333H7.08341C6.30101 7.08333 5.66675 6.44907 5.66675 5.66667ZM15.9983 10.3316C16.5516 9.77836 17.4486 9.77836 18.0018 10.3316L22.2518 14.5816C22.8051 15.1348 22.8051 16.0318 22.2518 16.5851C21.6986 17.1383 20.8016 17.1383 20.2483 16.5851L18.4167 14.7535V28.3333C18.4167 29.1157 17.7825 29.75 17.0001 29.75C16.2177 29.75 15.5834 29.1157 15.5834 28.3333V14.7535L13.7518 16.5851C13.1986 17.1383 12.3016 17.1383 11.7483 16.5851C11.1951 16.0318 11.1951 15.1348 11.7483 14.5816L15.9983 10.3316Z" fill="white"/>
</svg>
