<svg width="40" height="40" viewBox="0 0 40 40" fill="none" xmlns="http://www.w3.org/2000/svg">
<path fill-rule="evenodd" clip-rule="evenodd" d="M35.56 13.6703L26.84 4.49746C26.5376 4.18066 26.1184 4 25.68 4H7.2C5.4336 4 4 5.4336 4 7.2V18.4C4 19.2832 4.7168 20 5.6 20C6.4848 20 7.2 19.2832 7.2 18.4V8.8C7.2 7.9168 7.9168 7.2 8.8 7.2H23.2V13.6C23.2 15.368 24.6336 16.8 26.4 16.8H32.8V18.4C32.8 19.2832 33.5168 20 34.4 20C35.2848 20 36 19.2832 36 18.4V14.7727C36 14.3631 35.8432 13.9679 35.56 13.6703ZM21.6 28C21.6 27.1168 20.8848 26.4 20 26.4H18.4V29.6H20C20.8848 29.6 21.6 28.8848 21.6 28ZM22.76 31.9184L23.7696 33.9391C24.2432 34.8863 23.5552 36 22.496 36H22.48C21.9408 36 21.448 35.6959 21.2064 35.2127L20 32.8H18.4V34.576C18.4 35.3632 17.7632 36 16.976 36H16.624C15.8384 36 15.2 35.3632 15.2 34.576V24.624C15.2 23.8384 15.8384 23.2 16.624 23.2H19.7648C22.264 23.2 24.5184 25.0079 24.7744 27.4943C24.9632 29.3215 24.1184 30.96 22.76 31.9184ZM34.4 32.8H30.4C29.9584 32.8 29.6 32.4416 29.6 32V24.8C29.6 23.9168 28.8848 23.2 28 23.2C27.1168 23.2 26.4 23.9168 26.4 24.8V32.8V34.4C26.4 35.2832 27.1168 36 28 36H29.6H34.4C35.2848 36 36 35.2832 36 34.4C36 33.5168 35.2848 32.8 34.4 32.8ZM13.6 24.624V31.2C13.6 33.9376 11.3104 36.1392 8.5424 35.9936C5.9472 35.8576 4 33.5279 4 30.9279V24.624C4 23.8384 4.6384 23.2 5.424 23.2H5.776C6.5632 23.2 7.2 23.8384 7.2 24.624V31.2C7.2 32.0832 7.9168 32.8 8.8 32.8C9.6848 32.8 10.4 32.0832 10.4 31.2V24.624C10.4 23.8384 11.0384 23.2 11.824 23.2H12.176C12.9632 23.2 13.6 23.8384 13.6 24.624Z" fill="#111111"/>
</svg>
