<svg width="80" height="28" viewBox="0 0 80 28" fill="none" xmlns="http://www.w3.org/2000/svg">
<rect x="1" y="1" width="78" height="26" rx="13" fill="white" stroke="#FDDE6A" stroke-width="2"/>
<rect x="2" y="2" width="40" height="24" rx="12" fill="#FDDE6A"/>
<path d="M58 10.28C58 10.1254 58.2239 10 58.5 10C58.7761 10 59 10.1254 59 10.28V17.72C59 17.8746 58.7761 18 58.5 18C58.2239 18 58 17.8746 58 17.72V10.28Z" fill="#D5DBDF"/>
<path fill-rule="evenodd" clip-rule="evenodd" d="M50.1919 9.63191C50.6166 9.16022 51.2189 9 51.8632 9C52.5075 9 53.1098 9.16022 53.5346 9.63191C53.9458 10.0886 54.0936 10.7325 54.0936 11.4767C54.0936 12.2209 53.9458 12.8648 53.5346 13.3215C53.1098 13.7932 52.5075 13.9534 51.8632 13.9534C51.2189 13.9534 50.6166 13.7932 50.1919 13.3215C49.7806 12.8648 49.6328 12.2209 49.6328 11.4767C49.6328 10.7325 49.7806 10.0886 50.1919 9.63191ZM51.0254 10.3632C50.879 10.5257 50.748 10.8449 50.748 11.4767C50.748 12.1085 50.879 12.4277 51.0254 12.5902C51.1582 12.7377 51.3923 12.8526 51.8632 12.8526C52.3341 12.8526 52.5682 12.7377 52.7011 12.5902C52.8474 12.4277 52.9784 12.1085 52.9784 11.4767C52.9784 10.8449 52.8474 10.5257 52.7011 10.3632C52.5682 10.2157 52.3341 10.1008 51.8632 10.1008C51.3923 10.1008 51.1582 10.2157 51.0254 10.3632Z" fill="#D5DBDF"/>
<path fill-rule="evenodd" clip-rule="evenodd" d="M55.6769 16.8629L55.6769 16.863C55.9848 18.1695 54.82 19 53.8703 19H49.857C48.9074 19 47.7425 18.1695 48.0504 16.8629C48.2347 16.0811 48.6671 15.4144 49.4024 14.9767C50.0924 14.566 50.9427 14.4209 51.8637 14.4209C52.7846 14.4209 53.6349 14.566 54.3249 14.9767C55.0602 15.4144 55.4927 16.0811 55.6769 16.8629ZM54.5907 17.1123C54.6912 17.5386 54.3136 17.8993 53.8703 17.8993H49.857C49.4137 17.8993 49.0361 17.5386 49.1366 17.1123C49.3866 16.0519 50.2224 15.5217 51.8637 15.5217C53.505 15.5217 54.3408 16.0519 54.5907 17.1123Z" fill="#D5DBDF"/>
<path fill-rule="evenodd" clip-rule="evenodd" d="M63.2692 9.63191C63.709 9.16022 64.3325 9 64.9995 9C65.6666 9 66.2901 9.16022 66.7299 9.63191C67.1557 10.0886 67.3087 10.7325 67.3087 11.4767C67.3087 12.2209 67.1557 12.8648 66.7299 13.3215C66.2901 13.7932 65.6666 13.9534 64.9995 13.9534C64.3325 13.9534 63.709 13.7932 63.2692 13.3215C62.8434 12.8648 62.6904 12.2209 62.6904 11.4767C62.6904 10.7325 62.8434 10.0886 63.2692 9.63191ZM64.1321 10.3632C63.9806 10.5257 63.845 10.8449 63.845 11.4767C63.845 12.1085 63.9806 12.4277 64.1321 12.5902C64.2696 12.7377 64.512 12.8526 64.9995 12.8526C65.487 12.8526 65.7294 12.7377 65.867 12.5902C66.0185 12.4277 66.1541 12.1085 66.1541 11.4767C66.1541 10.8449 66.0185 10.5257 65.867 10.3632C65.7294 10.2157 65.487 10.1008 64.9995 10.1008C64.512 10.1008 64.2696 10.2157 64.1321 10.3632Z" fill="#D5DBDF"/>
<path fill-rule="evenodd" clip-rule="evenodd" d="M68.9478 16.8629L68.9478 16.863C69.2665 18.1695 68.0607 19 67.0774 19H62.9226C61.9394 19 60.7334 18.1695 61.0522 16.8629C61.243 16.0811 61.6906 15.4144 62.4519 14.9767C63.1662 14.566 64.0465 14.4209 65 14.4209C65.9535 14.4209 66.8338 14.566 67.5481 14.9767C68.3094 15.4144 68.757 16.0811 68.9478 16.8629ZM67.8233 17.1123C67.9273 17.5386 67.5364 17.8993 67.0774 17.8993H62.9226C62.4636 17.8993 62.0727 17.5386 62.1767 17.1123C62.4355 16.0519 63.3008 15.5217 65 15.5217C66.6992 15.5217 67.5645 16.0519 67.8233 17.1123Z" fill="#D5DBDF"/>
<path fill-rule="evenodd" clip-rule="evenodd" d="M14.5 8.58333C14.5 8.1231 14.8731 7.75 15.3333 7.75H16.1667C16.6269 7.75 17 8.1231 17 8.58333V9.41667C17 9.8769 16.6269 10.25 16.1667 10.25H15.3333C14.8731 10.25 14.5 9.8769 14.5 9.41667V8.58333ZM18.6667 9C18.6667 8.53976 19.0398 8.16667 19.5 8.16667H28.6667C29.1269 8.16667 29.5 8.53976 29.5 9C29.5 9.46024 29.1269 9.83333 28.6667 9.83333H19.5C19.0398 9.83333 18.6667 9.46024 18.6667 9ZM14.5 13.5833C14.5 13.1231 14.8731 12.75 15.3333 12.75H16.1667C16.6269 12.75 17 13.1231 17 13.5833V14.4167C17 14.8769 16.6269 15.25 16.1667 15.25H15.3333C14.8731 15.25 14.5 14.8769 14.5 14.4167V13.5833ZM18.6667 14C18.6667 13.5398 19.0398 13.1667 19.5 13.1667H28.6667C29.1269 13.1667 29.5 13.5398 29.5 14C29.5 14.4602 29.1269 14.8333 28.6667 14.8333H19.5C19.0398 14.8333 18.6667 14.4602 18.6667 14ZM14.5 18.5833C14.5 18.1231 14.8731 17.75 15.3333 17.75H16.1667C16.6269 17.75 17 18.1231 17 18.5833V19.4167C17 19.8769 16.6269 20.25 16.1667 20.25H15.3333C14.8731 20.25 14.5 19.8769 14.5 19.4167V18.5833ZM18.6667 19C18.6667 18.5398 19.0398 18.1667 19.5 18.1667H28.6667C29.1269 18.1667 29.5 18.5398 29.5 19C29.5 19.4602 29.1269 19.8333 28.6667 19.8333H19.5C19.0398 19.8333 18.6667 19.4602 18.6667 19Z" fill="white"/>
</svg>
