<svg width="50" height="50" viewBox="0 0 50 50" fill="none" xmlns="http://www.w3.org/2000/svg">
<path d="M25 0L50 25L25 50L4.34245e-07 25L25 0Z" fill="#FDDE6A"/>
<path d="M19.1471 28.9206L22.9301 17.3948H25.8469L21.0209 31.9258H17.2909L12.4473 17.3948H15.3641L19.1471 28.9206Z" fill="white"/>
<path d="M28.0086 27.1882C28.3621 27.966 28.8571 28.5789 29.4935 29.0267C30.1417 29.4628 30.8959 29.6808 31.7563 29.6808C32.6284 29.6808 33.2942 29.5335 33.7538 29.2388C34.2252 28.9442 34.4609 28.5258 34.4609 27.9837C34.4609 27.5005 34.3195 27.1175 34.0367 26.8347C33.7656 26.5518 33.3001 26.322 32.6401 26.1452L30.5365 25.5796C27.8495 24.8607 26.506 23.4582 26.506 21.3723C26.506 20.512 26.7299 19.7636 27.1777 19.1272C27.6256 18.479 28.2384 17.9841 29.0162 17.6423C29.794 17.3005 30.6661 17.1296 31.6325 17.1296C32.9524 17.1296 34.0956 17.4655 35.062 18.1373C36.0284 18.7972 36.7237 19.6281 37.1479 20.6298L34.8498 21.7965C34.5199 21.1601 34.0838 20.6416 33.5417 20.2409C32.9996 19.8402 32.3632 19.6399 31.6325 19.6399C30.8547 19.6399 30.2595 19.7931 29.8471 20.0995C29.4464 20.4059 29.246 20.8302 29.246 21.3723C29.246 21.8555 29.4051 22.2267 29.7233 22.486C30.0533 22.7452 30.5365 22.9574 31.1729 23.1224L33.1881 23.6527C34.3431 23.9591 35.2977 24.4541 36.0519 25.1376C36.818 25.8212 37.201 26.7699 37.201 27.9837C37.201 28.844 36.9594 29.5924 36.4762 30.2288C36.0048 30.8652 35.3566 31.3484 34.5316 31.6784C33.7067 32.0201 32.7816 32.191 31.7563 32.191C30.2949 32.191 29.0398 31.8551 27.9909 31.1834C26.942 30.5116 26.1701 29.5688 25.6751 28.355L28.0086 27.1882Z" fill="white"/>
</svg>
